<svg xmlns="http://www.w3.org/2000/svg" width="53.184" height="36.678" viewBox="0 0 53.184 36.678"><defs><style>.a{fill:#306fc5;}.b{fill:#fff;}</style></defs><g transform="translate(0 -79.451)"><path class="a" d="M53.184,112.985a3.144,3.144,0,0,1-3.144,3.144H3.144A3.144,3.144,0,0,1,0,112.985V82.595a3.144,3.144,0,0,1,3.144-3.144h46.9a3.144,3.144,0,0,1,3.144,3.144v30.39Z"/><g transform="translate(3.817 90.228)"><path class="b" d="M74.59,203.3h1.589l-.794-2.022Z" transform="translate(-70.659 -199.4)"/><path class="b" d="M155.946,286.107v.939h2.673v1.011h-2.673v1.084h2.961l1.372-1.517-1.3-1.517Z" transform="translate(-143.564 -275.417)"/><path class="b" d="M349.42,201.278l-.867,2.022h1.661Z" transform="translate(-316.164 -199.4)"/><path class="b" d="M214.146,285.358v-4.117l-1.878,2.023Z" transform="translate(-194.036 -271.057)"/><path class="b" d="M244.479,286.757a.729.729,0,0,0-.8-.65h-1.516v1.3h1.589C244.189,287.407,244.479,287.191,244.479,286.757Z" transform="translate(-220.829 -275.417)"/><path class="b" d="M295.643,287.888a.563.563,0,0,0,.217-.506.4.4,0,0,0-.217-.506,1.4,1.4,0,0,0-.577-.072h-1.445v1.156h1.445A1.405,1.405,0,0,0,295.643,287.888Z" transform="translate(-266.938 -276.043)"/><path class="b" d="M75.854,183.2v.867l-.433-.867H72.026v.867l-.434-.867H66.97a4.4,4.4,0,0,0-2.022.433V183.2H61.7v.433a2.083,2.083,0,0,0-1.372-.433H48.7L47.9,185l-.794-1.806H43.424v.867l-.361-.867H39.884l-1.445,3.395-1.661,3.684-.031.072h3.76l.026-.072.434-1.083h.939l.433,1.156h4.189v-.867l.361.867h2.094l.361-.867v.867h10.04v-1.878h.145c.144,0,.144,0,.144.217v1.589h5.2v-.433a4.321,4.321,0,0,0,1.95.433h2.167l.433-1.155h1.011l.433,1.155h4.189v-1.083l.65,1.083H79.1V183.2H75.854Zm-24.485,6.067H50.213v-3.973l-.072.166v0l-1.68,3.809H47.4l-1.733-3.973v3.973H43.207l-.506-1.083H40.245l-.506,1.083H38.47l2.137-5.056h1.806l2.022,4.839v-4.839h1.914l.034.072h0l.911,1.983.654,1.486.023-.075,1.444-3.467h1.95v5.056Zm4.984-3.973H53.536v.939H56.28v1.011H53.536v1.012h2.817v1.083H52.308v-5.128h4.045v1.083Zm5.152,1.862.007,0a.829.829,0,0,1,.071.086,1.389,1.389,0,0,1,.256.847v.02s0,.007,0,.011,0,0,0,.006c0,.04,0,.08,0,.124v1.011H60.758v-.578a1.719,1.719,0,0,0-.217-1.011.657.657,0,0,0-.213-.145,1.442,1.442,0,0,0-.654-.071h-1.3v1.806H57.147v-5.056h2.745a2.77,2.77,0,0,1,1.444.217,1.22,1.22,0,0,1,.576,1.123,1.435,1.435,0,0,1-.865,1.333A.967.967,0,0,1,61.5,187.155Zm2.432,2.11H62.709v-5.056h1.228Zm14.085,0H76.432l-2.311-3.828v3.178l-.008-.007v.661h-1.22v0H71.665l-.433-1.083H68.7l-.433,1.155H66.9a2.171,2.171,0,0,1-2.383-2.528,2.961,2.961,0,0,1,.65-2.023,2.275,2.275,0,0,1,1.806-.578h1.156v1.083H66.97a1.331,1.331,0,0,0-.939.289,1.7,1.7,0,0,0-.361,1.155,1.572,1.572,0,0,0,.361,1.228,1.152,1.152,0,0,0,.867.289H67.4l1.661-3.972H70.87l2.023,4.839v-4.839H74.7l2.094,3.539v-3.539h1.228v4.984h0Z" transform="translate(-36.748 -183.198)"/><path class="b" d="M247.045,204.386a.388.388,0,0,0,.056-.077.781.781,0,0,0,.1-.545.4.4,0,0,0-.011-.066c0-.006,0-.011,0-.017h0a.405.405,0,0,0-.219-.246,1.415,1.415,0,0,0-.578-.072h-1.445v1.156h1.445a1.407,1.407,0,0,0,.578-.072.273.273,0,0,0,.06-.043h0Z" transform="translate(-223.319 -201.269)"/><path class="b" d="M169.159,269.392a2.767,2.767,0,0,0-.361-1.372v-3.25h0v-.217h-3.478a2.056,2.056,0,0,0-1,.433v-.433H161a2.3,2.3,0,0,0-1.445.433v-.433H153.63v.433a2.794,2.794,0,0,0-1.589-.433h-3.9v.433a2.744,2.744,0,0,0-1.662-.433h-4.333l-1.011,1.084-.939-1.084h-6.5v7.3h6.356L141.1,270.8l.905,1.045h4.045v-1.661h.361a4.388,4.388,0,0,0,1.661-.217v1.95h3.25v-1.878h.144c.217,0,.217,0,.217.217v1.661H161.5a2.831,2.831,0,0,0,1.661-.434v.434h3.106a3.243,3.243,0,0,0,1.734-.361,2.426,2.426,0,0,0,1.146-1.948c0-.025.007-.05.009-.075l0,0C169.157,269.485,169.159,269.439,169.159,269.392Zm-22.752-.433h-1.445v1.878h-2.374l-1.382-1.589,0,.005-.068-.078-1.589,1.662h-4.623V265.78h4.695l1.283,1.4.27.294.037-.038,1.517-1.661h3.828a1.874,1.874,0,0,1,1.89.939,2.042,2.042,0,0,1,.06.505C148.5,268.669,147.49,268.958,146.407,268.958Zm7.223-.072a1.639,1.639,0,0,1,.217.939v1.011h-1.228v-.65a1.612,1.612,0,0,0-.217-1.012c-.144-.216-.433-.216-.866-.216h-1.3v1.878h-1.228v-5.128h2.744a2.913,2.913,0,0,1,1.445.216,1.279,1.279,0,0,1,.65,1.156,1.438,1.438,0,0,1-.867,1.372A1.231,1.231,0,0,1,153.63,268.886Zm4.984-2.1H155.8v.939h2.745v1.011H155.8v1.011h2.817v1.083h-4.045v-5.128h4.045Zm3.033,4.045h-2.311v-1.083h2.311a.61.61,0,0,0,.506-.145.524.524,0,0,0,0-.722.613.613,0,0,0-.434-.144c-1.156-.072-2.528,0-2.528-1.589,0-.722.433-1.517,1.734-1.517h2.383v1.228h-2.239a1.072,1.072,0,0,0-.506.072c-.144.072-.144.217-.144.361,0,.217.144.289.289.361a.915.915,0,0,0,.433.072h.65a1.838,1.838,0,0,1,1.372.433,1.5,1.5,0,0,1,.361,1.083C163.525,270.33,162.875,270.836,161.647,270.836Zm6.212-.506a2.1,2.1,0,0,1-1.517.506h-2.311v-1.083h2.311a.609.609,0,0,0,.506-.145.523.523,0,0,0,0-.722.611.611,0,0,0-.433-.144c-1.155-.072-2.528,0-2.528-1.589a1.476,1.476,0,0,1,1.361-1.491,2.693,2.693,0,0,1,.372-.026H168v1.228h-2.239a1.068,1.068,0,0,0-.505.072.551.551,0,0,0-.145.361c0,.217.072.289.289.361a.913.913,0,0,0,.433.072h.65a2.256,2.256,0,0,1,.773.116,1.555,1.555,0,0,1,1.01,1.142,1.622,1.622,0,0,1,.022.259A1.469,1.469,0,0,1,167.859,270.33Z" transform="translate(-123.625 -256.101)"/></g></g></svg>