<svg xmlns="http://www.w3.org/2000/svg" width="35.552" height="35.552" viewBox="0 0 35.552 35.552">
  <g id="banking" transform="translate(1.25 1.25)">
    <path id="Path_420" data-name="Path 420" d="M4.375,70.032c0,2.434,3.946,4.407,8.814,4.407S22,72.466,22,70.032s-3.946-4.407-8.814-4.407S4.375,67.6,4.375,70.032Z" transform="translate(-4.375 -50.201)" fill="none" stroke="#54acf0" stroke-linecap="round" stroke-linejoin="round" stroke-width="2.5"/>
    <path id="Path_421" data-name="Path 421" d="M4.375,83.125v8.814c0,2.434,3.946,4.407,8.814,4.407S22,94.373,22,91.939V83.125" transform="translate(-4.375 -63.294)" fill="none" stroke="#54acf0" stroke-linecap="round" stroke-linejoin="round" stroke-width="2.5"/>
    <path id="Path_422" data-name="Path 422" d="M22,100.625c0,2.434-3.946,4.407-8.814,4.407s-8.814-1.973-8.814-4.407" transform="translate(-4.375 -76.387)" fill="none" stroke="#54acf0" stroke-linecap="round" stroke-linejoin="round" stroke-width="2.5"/>
    <path id="Path_423" data-name="Path 423" d="M26.41,26.409h8.814a2.2,2.2,0,0,0,2.2-2.2V6.578a2.2,2.2,0,0,0-2.2-2.2H6.578a2.2,2.2,0,0,0-2.2,2.2V17.606" transform="translate(-4.375 -4.375)" fill="none" stroke="#54acf0" stroke-linecap="round" stroke-linejoin="round" stroke-width="2.5"/>
    <path id="Path_424" data-name="Path 424" d="M52.5,35.032a4.407,4.407,0,1,1,7.314,3.313" transform="translate(-40.381 -24.015)" fill="none" stroke="#54acf0" stroke-linecap="round" stroke-linejoin="round" stroke-width="2.5"/>
    <path id="Path_425" data-name="Path 425" d="M24.613,24.062a.551.551,0,1,1-.551.551.551.551,0,0,1,.551-.551" transform="translate(-19.105 -19.105)" fill="none" stroke="#54acf0" stroke-linecap="round" stroke-linejoin="round" stroke-width="2.5"/>
    <path id="Path_426" data-name="Path 426" d="M112.113,67.812a.551.551,0,1,1-.551.551.551.551,0,0,1,.551-.551" transform="translate(-84.57 -51.837)" fill="none" stroke="#54acf0" stroke-linecap="round" stroke-linejoin="round" stroke-width="2.5"/>
  </g>
</svg>
