<svg xmlns="http://www.w3.org/2000/svg" width="80" height="80" viewBox="0 0 80 80">
    <defs>
        <style>
            .cls-2,.cls-3{fill:none;stroke-linecap:round;stroke-linejoin:round;stroke-width:2.25px}.cls-2{stroke:#c38bfd}.cls-3{stroke:#fff}
        </style>
    </defs>
    <g id="Book_services" transform="translate(-1426 -2656)">
        <circle id="Ellipse_12" cx="40" cy="40" r="40" fill="#701fc0" transform="translate(1426 2656)"/>
        <g id="streamline-icon-business-contract-handshake-sign_140x140" transform="translate(1450 2680)">
            <path id="Path_308" d="M28.558 4.375H8.772a4.4 4.4 0 0 0-4.4 4.4v26.378a2.2 2.2 0 0 0 2.2 2.2h2.1" class="cls-2" transform="translate(-4.375 -4.375)"/>
            <path id="Path_309" d="M21.875 26.25h9.893" class="cls-2" transform="translate(-17.478 -20.754)"/>
            <path id="Path_310" d="M21.875 43.75h9.893" class="cls-2" transform="translate(-17.478 -33.857)"/>
            <path id="Path_311" d="M21.875 61.25H26.8" class="cls-2" transform="translate(-17.478 -46.96)"/>
            <path id="Path_312" d="M87.5 17.566V7.673a3.308 3.308 0 0 1 3.3-3.3 3.306 3.306 0 0 1 3.3 3.3v2.2h-6.6" class="cls-2" transform="translate(-66.615 -4.375)"/>
            <path id="Path_313" d="M105.967 114.392l-7.016 1.4" class="cls-3" transform="translate(-75.189 -86.75)"/>
            <path id="Path_314" d="M83.084 74.595l-3.312 1.4a2.081 2.081 0 0 1-1.644-.022 2.173 2.173 0 0 1-1.145-1.218 2.235 2.235 0 0 1 1.035-2.785l3.311-1.653a2.89 2.89 0 0 1 2.336-.138l6.8 2.679" class="cls-3" transform="translate(-58.626 -53.508)"/>
            <path id="Path_315" d="M47.833 98.909h2.345l4.469 3.409a1.216 1.216 0 0 0 1.685.132l6.244-5.156a1.234 1.234 0 0 0 .189-1.706l-3.44-3.824" class="cls-3" transform="translate(-36.914 -69.808)"/>
            <path id="Path_316" d="M55.921 76.392l-.362-.293a2.623 2.623 0 0 0-2.528-.322L47.8 78" class="cls-3" transform="translate(-36.888 -57.696)"/>
            <path id="Path_317" d="M39.375 91.811h.44a1.672 1.672 0 0 0 1.759-1.57v-7.852a1.672 1.672 0 0 0-1.759-1.57h-.44" class="cls-3" transform="translate(-30.581 -61.611)"/>
            <path id="Path_318" d="M129.073 91.811h-.44a1.672 1.672 0 0 1-1.759-1.57v-7.852a1.672 1.672 0 0 1 1.759-1.57h.44" class="cls-3" transform="translate(-96.097 -61.611)"/>
        </g>
    </g>
</svg>
