<svg xmlns="http://www.w3.org/2000/svg" xmlns:xlink="http://www.w3.org/1999/xlink" width="556" height="365.518" viewBox="0 0 556 365.518">
    <defs>
        <linearGradient id="linear-gradient" x1=".5" x2=".5" y1="1" gradientUnits="objectBoundingBox">
            <stop offset="0" stop-color="gray" stop-opacity=".251"/>
            <stop offset=".54" stop-color="gray" stop-opacity=".122"/>
            <stop offset="1" stop-color="gray" stop-opacity=".102"/>
        </linearGradient>
        <linearGradient id="linear-gradient-2" x1=".5" x2=".5" y1="1" y2="0" xlink:href="#linear-gradient"/>
        <style>
            .cls-9{fill:#6c63ff}.cls-11,.cls-4{opacity:.1}.cls-3{fill:#65617d}.cls-5{fill:#a5636d}.cls-6{fill:#e7effd}.cls-7{fill:#3f3d56}.cls-13{fill:#444053}.cls-16{fill:#fbbebe}.cls-18{fill:#5c5c8e}.cls-23{opacity:.5}
        </style>
    </defs>
    <g id="Interpreters_Illustration" transform="translate(.05 -.017)">
        <path id="Path_146" fill="#6c63ff" d="M540.986 372.19q-2.6 2.288-5.322 4.446c-.3.247-.619.484-.929.735a186.893 186.893 0 0 1-20.32 13.726l-1.321.769c-.319.194-.634.373-.968.552-7.383 4.263-15.042 8.186-22.793 11.9l-.082.044-.585.276q-9.376 4.495-19.034 8.6l-.155.058q-4.354 1.834-8.709 3.571c-1.185.484-2.376.934-3.566 1.393-2.24.856-4.485 1.7-6.749 2.506l-.281.106-.484.169-.6.223q-8.859 3.164-17.955 5.845l-.106.029q-6.343 1.848-12.768 3.421l-.585.145c-6.29 1.519-12.681 2.826-19.111 3.871l-1.48.237q-7.054 1.108-14.205 1.809c-26.8 2.588-53.917.484-80.552-3.126-53.782-7.3-106.852-20.974-155.254-42.412q-13.934-6.169-27.326-13.208c-.073-.039-.135-.077-.208-.111q-8.017-4.214-15.816-8.781c-1.524-.881-3.038-1.78-4.543-2.685q-2.777-1.674-5.53-3.387-3.629-2.264-7.257-4.64l-1.132-.755-.435-.3c-.614-.411-1.219-.822-1.829-1.239-22.74-15.482-43.017-34.245-52.6-57.725-11.07-27.094-3.987-61.445 23.432-77.46 9.425-5.516 20.379-8.51 31.448-10.983l1.132-.252c1.872-.411 3.745-.808 5.607-1.2 6.527-1.384 13.087-2.758 19.585-4.292 3.387-.8 6.74-1.635 10.073-2.54l1.364-.377a163.093 163.093 0 0 0 23.519-8.283h.048q1.227-.544 2.419-1.127c.513-.242 1.026-.484 1.539-.75 8.225-4.093 16.934-9.768 23.635-16.532.537-.542 1.06-1.093 1.568-1.645.392-.431.779-.866 1.152-1.3 4.7-5.477 7.949-11.559 8.568-18.013a23.224 23.224 0 0 0-.29-6.5c-.76-4.059-1.5-8.031-2.037-11.907-1.011-7.282-1.355-14.244.048-20.954a39.443 39.443 0 0 1 10.84-19.807q1.4-1.451 3.014-2.9a63.516 63.516 0 0 1 16.755-10.586q1.132-.484 2.279-.968c16.972-6.87 37.366-8.3 56.419-7.354a307.777 307.777 0 0 1 52.863 7.354c1.379.31 2.758.634 4.127.968a366.433 366.433 0 0 1 43.544 13.465c36.954 13.9 71.833 33.2 104.419 54.5l.968.629q2.042 1.33 4.059 2.671 3.9 2.588 7.741 5.211l1.727 1.176q1.277.871 2.54 1.747l2.593 1.795a2.847 2.847 0 0 1 .348.247l2.206 1.529c1.277.89 2.545 1.785 3.817 2.685l2.729 1.935c.566.406 1.137.808 1.7 1.219l2.9 2.119.648.484c.135.1.271.193.4.3l.082.053c7.867 5.772 15.545 11.757 22.74 18.1l.929.822.1.087c.784.7 1.568 1.4 2.337 2.114a157.517 157.517 0 0 1 24.694 27.907c31.608 46.926 22.227 111.908-21.738 150.551z" opacity="0.1" transform="translate(-25.44 -72.24)"/>
        <path id="Path_147" fill="url(#linear-gradient)" d="M967.052 305.848c.31-.842-2-5.516-2-5.748s-2.419-2.83-2.419-4.292-3.159-4.6-3.159-4.6-4.248-1.766-4.712-5.593-4.916-3.909-5.09-3.914c0 0 0-.348.029-.881a12.79 12.79 0 0 0-.571-4.48 4.548 4.548 0 0 0-2.622-2.23s-.484-2.985-1.393-3.9a4.4 4.4 0 0 1-1.074-4.142 5.5 5.5 0 0 0-.6-3.575 3.663 3.663 0 0 0-2.255-2.095h-.082c-2.216-.537-4.7-1.36-4.7-1.36s-.252.048-.624.1l-.31-.1a13.846 13.846 0 0 1-1.616.2 2.008 2.008 0 0 1-1.311-.431c-.774-.847-7.025-2.453-8.181-2.453s-4.48-1.534-4.48-1.534l-3.314-2.53a21.14 21.14 0 0 1-2.9-4.006l-.039-.053a13.161 13.161 0 0 1-.61-1.689c-.034-.106-.058-.213-.092-.329a18.465 18.465 0 0 0 1.843-2.264v-.024c.15-.208.29-.435.431-.653q.3-.484.581-1c.077-.15.15-.3.227-.45a1.934 1.934 0 0 0 .484-.082l.208-.077a2.453 2.453 0 0 0 .532-.334l.155-.14a3.779 3.779 0 0 0 .968-1.485c.053-.164.1-.334.14-.484a.71.71 0 0 1 .044-.174c.014-.053.053-.232.073-.353l.029-.194a1.964 1.964 0 0 1 .058-.343.659.659 0 0 0 0-.2c0-.14.039-.29.053-.435.068-.547.126-1.084.242-1.616a.045.045 0 0 0 0-.024 12.361 12.361 0 0 1 1.142-2.942c.484-.934 1.016-1.853 1.452-2.816.126-.276.247-.556.353-.837s.213-.619.31-.934a1.288 1.288 0 0 1 .068-.285 6.785 6.785 0 0 0 .155-.692 2.434 2.434 0 0 0 .058-.3c.058-.319.1-.639.126-.968a11.872 11.872 0 0 0-.794-5.385c-.576-1.451-1.451-2.734-2.027-4.171-.885-2.182-1.118-4.65-2.2-6.73a8.017 8.017 0 0 0-9.614-3.914c-1.674.619-3.13 1.834-4.838 2.38-2.274.731-4.717.179-7.078-.15s-4.974-.353-6.87 1.185c-2.182 1.776-2.782 5.114-4.838 7.059a11.126 11.126 0 0 1-1.611 1.21c-.416.285-.837.566-1.229.89a4.581 4.581 0 0 0-1.427 1.935 1.606 1.606 0 0 0-.053.164 1.515 1.515 0 0 0-.053.2 1.985 1.985 0 0 1-.034.227.871.871 0 0 0 0 .16 2.8 2.8 0 0 0 0 .348v.058a2.231 2.231 0 0 0 .063.387v.106a1.923 1.923 0 0 0 .1.319.236.236 0 0 1 0 .063 3.488 3.488 0 0 0 .14.348.563.563 0 0 0 .068.174.658.658 0 0 1 .068.145 9.154 9.154 0 0 1 .716 1.776 2.013 2.013 0 0 1-.073 1.181 1.888 1.888 0 0 1-.31.518 6.435 6.435 0 0 1-.542.6 16.029 16.029 0 0 0-3.488 5.578c-.087.237-.169.484-.247.721l.1.029.1.024a3.389 3.389 0 0 0 .576.121 3.505 3.505 0 0 0 .387.044 6 6 0 0 0 1.577-.126 2.415 2.415 0 0 0 .256-.058.281.281 0 0 0 .077-.024h.048a8.382 8.382 0 0 0 1.268-.44c.1-.044.2-.082.3-.131v1.8a18.206 18.206 0 0 0 9.27 14.8c.276.16.547.31.827.45.024.164.048.334.068.484s.039.276.053.416l-.213-.2a1.408 1.408 0 0 0-.576-.116 1.848 1.848 0 0 0-.919.237 3.386 3.386 0 0 0-1.2 1.176 8.58 8.58 0 0 1-3.784 2.9s-14.053 2.225-14.603 4.061l-6.561.387s-2.318.3-2.545 5.133v.111c-.034.576-.077 1.089-.131 1.548v.068c-.406 3.217-1.326 3.561-1.326 3.561s-2.7 4.751-2.472 7.2a.229.229 0 0 1 0 .058A3.162 3.162 0 0 1 857 278a4.355 4.355 0 0 1-2.022 2.608l-.3 4.354a2.966 2.966 0 0 0-3.242 2.608 10.321 10.321 0 0 1-1.935 4.354s-4.243 3.527-4.475 6.512l-2.627 1.611s-6.091-1.379-7.485-3.832c0 0-.165-.164-.426-.4l-.039-.058a.139.139 0 0 0 0 .029 21.365 21.365 0 0 0-2.55-2.25 1.9 1.9 0 0 1 .126 1.239l-.455-.484-1.214-1.355s-1.737-1.626-4.18-3.566q-.837-.668-1.766-1.364c-3.126-2.318-6.885-4.669-9.677-5.022-.058-.116-.29-.992-.837-.992a.919.919 0 0 0-.6.3 8.051 8.051 0 0 0-.053 11.805l.634.59 1.964 1.839 6.628 6.193c.082.058.16.121.242.174l.392.484.3.392.527.673.76.968c-.039.1-.082.2-.116.3-.285.7-.532 1.374-.735 1.993v.068c-.048.155-.1.3-.14.445a.6.6 0 0 1-.048.15c-.048.145-.087.29-.131.421a2.035 2.035 0 0 0-.068.252 1.417 1.417 0 0 1-.048.15c-.218.769-.353 1.36-.426 1.689l-.513-.16.484.218a.66.66 0 0 1 0 .082l-.029.155c.15.073.31.14.484.208l.111.048 1.9.837c.382.169.8.348 1.244.552s.789.353 1.219.537c4.954 2.206 11.9 5.375 12.391 6.009.769 1 5.864 3.909 10.5 1.452a11.052 11.052 0 0 0 5.627-6.212s4.48-6.2 4.635-7.122c.116-.706 2.187-1.5 3.145-1.839l.092-.029.387-.126v1.171a59.378 59.378 0 0 1-.706 10.262.063.063 0 0 0 0 .029 11.159 11.159 0 0 1-.769 2.564c-1.776 3.754-5.09 20.388-5.09 20.388h.077a2.246 2.246 0 0 1 .581-.029c-.068.31-.111.552-.145.716s-.048.247-.048.247h.058a2.225 2.225 0 0 1 .561-.034 1.185 1.185 0 0 1 .189.024 2.981 2.981 0 0 1-.048.348v.121c0 .019-.029.15-.039.232-.4 2.767-1.563 9.972-1.563 9.972s-.484 3.982-1.239 5.361a13.275 13.275 0 0 0-.648 3.871c0 .242-.034.484-.053.735-.126 2.051-.145 3.972-.145 3.972l-.034.126-1.137 5.158a1.527 1.527 0 0 0 .063.14c.082.155.213.421.4.75l.058.126a14.406 14.406 0 0 0 2.68 3.774 6.972 6.972 0 0 0 .813.692.877.877 0 0 1-.034.169c-.01.048-.029.184-.044.271a7.831 7.831 0 0 1-.547 1.935 6.47 6.47 0 0 0-.556 2.11 9.7 9.7 0 0 0-.048 1.568l-.063.285c-.169.789-.653 3.1-.914 4.983-.063.431-.121.847-.155 1.234a6.01 6.01 0 0 0 0 1.079 8.849 8.849 0 0 1-.1 1.81 4.088 4.088 0 0 1-.063.532c-.261 1.7-.692 3.488-.692 3.488l-1.389 13.329v.789a1.539 1.539 0 0 1-.029.348c0 .314-.048.687-.082 1.122a4.226 4.226 0 0 1-.029.484 2.522 2.522 0 0 1-.029.46v.252a2.279 2.279 0 0 1-.024.382 1.868 1.868 0 0 0 0 .368v.344c-.044.711-.092 1.48-.126 2.259v.745a5.593 5.593 0 0 1-.034.745v4.925a14.087 14.087 0 0 0 .116 1.539c.053.377.092.774.111 1.181v.561a2.69 2.69 0 0 1 0 .281v2.168c-.121 1.664-.348 3.014-.382 3.227v.455c0 .121.029.276.044.445v.242a.955.955 0 0 0 .029.281c.029.1 0 .092 0 .145 0 .174.029.353.048.542s.044.392.058.6l.029.382c0 .184.039.377.053.566v.194c0 .131.029.256.039.392l.044.6c0 .131.029.266.039.4a1.344 1.344 0 0 1 0 .2l.063.784a2.082 2.082 0 0 0 .024.387c0 .2.029.411.048.6s0 .445.034.648a4.151 4.151 0 0 1 .029.59 8.178 8.178 0 0 1 0 1.64c-.126.552-.532 2.095-.765 3.769 0 .15-.044.3-.058.455a1.636 1.636 0 0 0 0 .271l-.029.363c0 .29-.034.585-.034.871a6.71 6.71 0 0 0 .218 1.935 9.162 9.162 0 0 1 .242 1.277.658.658 0 0 0 .024.213c0 .155.034.314.048.484s.024.329.034.484c0 .339.029.687.044 1.04v.7c.034 2.042-.063 4.04-.092 4.553v.126s.484 8.588 1 11.341c.068.363.116.731.15 1.108a2.46 2.46 0 0 0 .024.421 21.585 21.585 0 0 1-.329 4.761s-.542 5.9-.769 5.9a3.776 3.776 0 0 0-.692 2.284v.039a7.449 7.449 0 0 0 2.54 5.728l.232.227.281-.106c2.264-.808 4.509-1.65 6.749-2.506 1.19-.46 2.38-.919 3.566-1.393q4.393-1.737 8.709-3.571a.552.552 0 0 1-.276-.348c-.445-1.185.218-4.838.353-5.4s1.389-12.5 1.389-12.5-.484-3.75.155-5.356-.774-7.823-.774-7.823a1.383 1.383 0 0 1 .387-1.684c.871-.919.542-9.12.542-9.12s-.077-4.142-.077-5.216a19.133 19.133 0 0 1 1.771-6.29c.842-1.306.315-5.37.315-5.37l.048-.31a3.057 3.057 0 0 1 .068-.431l.073-.411a56.852 56.852 0 0 1 1.5-6.653c1.006-3.217 2.163-8.888 2.163-8.888l6.749-18.1.223-.561.082-.223s3.314 6.135 3.314 11.805c0 0 .852 6.822.624 8.66s.692 10.5.692 10.5 1 12.42 1 12.952 1.239 10.088 2.013 11.539-.774 5.9-1.234 6.362.155 11.728.155 11.728-1.166 8.888-1.393 10.726c-.044.334-.111.837-.184 1.451 7.741-3.716 15.41-7.64 22.793-11.9.319-.179.634-.358.968-.552l.053-11s.542-5.133-.077-7.209-1.234-6.048-.382-7.122.077-6.053.077-6.053 0-10.5 1.156-13.107.774-19.082.774-19.082l.3-10.809s2.463-2.332 1.935-14.413v-.411c2.69-.169 5.724-.266 6.183.111.735.59 4.877 3.271 8.085 2.6a3.935 3.935 0 0 0 1.481-.615 43.553 43.553 0 0 0 3.871-2.99l-1.227-20.684-.131-2.3c.232.353.435.668.61.968.484.735.75 1.185.75 1.185 0-3.217 9.11-13.639 9.11-13.639s8.491-10.959 10.339-12.265 5.482-8.2 5.482-8.2a33.441 33.441 0 0 1 1.853-3.832c.821-1.392-1.971-5.074-1.661-5.916zm-27.167 14.713a4.805 4.805 0 0 1-1.026 2.066c-.039-.484-.078-.934-.116-1.418v-.126c-.542-6.745-1.122-14.9-.856-15.7a18.713 18.713 0 0 0 .319-3.958c.034-1.853 0-3.619 0-3.619l.087-.121c1.558 4.838 6.391 10.48 6.391 10.48s.852 2.453 1.853 2.53.614 3.217.614 3.217a3.647 3.647 0 0 0-1.316.484 11.517 11.517 0 0 0-1.364.924c-2.215 1.68-4.532 4.457-4.586 5.241z" transform="translate(-430.794 -141.001)"/>
        <path id="Path_148" d="M837 410.174s2.816-14.757 11.863-14.834l6.619 13.615-4.451 3.024s-9.561.304-14.031-1.805z" class="cls-3" transform="translate(-444.374 -239.008)"/>
        <path id="Path_149" d="M855.463 408.951l-4.432 3.043a52.308 52.308 0 0 1-11.563-.968 13.2 13.2 0 0 1-2.468-.836.9.9 0 0 1 .048-.237.341.341 0 0 1 0-.058 33.57 33.57 0 0 1 1.713-5.419c.276-.663.6-1.345.934-2.027 1.326-2.55 3.188-5.051 5.738-6.29a7.846 7.846 0 0 1 3.014-.789h.4l.15.3 2.235 4.6z" class="cls-4" transform="translate(-444.374 -239.024)"/>
        <path id="Path_150" d="M1023.1 505.108s9.507-.91 10.344-.227 6.236 4.185 9.435 1.979 1.064-9.889 1.064-10.194-.3-11.181-.3-11.181l-5.7-7.683-7.151-13.46-14.6-1.451.378 21.375-.073 10.954z" class="cls-3" transform="translate(-536.863 -273.876)"/>
        <path id="Path_151" d="M1023.1 505.108s9.507-.91 10.344-.227 6.236 4.185 9.435 1.979 1.064-9.889 1.064-10.194-.3-11.181-.3-11.181l-5.7-7.683-7.151-13.46-14.6-1.451.378 21.375-.073 10.954z" class="cls-4" transform="translate(-536.863 -273.876)"/>
        <path id="Path_152" d="M834.412 379.578s-.75 9.28-6.556 9.425a45.525 45.525 0 0 1-3.841-2.637c-5.08-3.8-13.136-11.1-10.91-17.9 3.193-9.734 18.71 8.225 18.71 8.225l1.2 1.335z" class="cls-5" transform="translate(-431.844 -223.643)"/>
        <path id="Path_153" d="M845.941 392.853s-.75 9.28-6.556 9.425a45.5 45.5 0 0 1-3.841-2.637l-.484-.634a7.557 7.557 0 0 0 3.169.856 4.248 4.248 0 0 0 4.137-2.608 33.606 33.606 0 0 0 1.6-3.682 11.084 11.084 0 0 0 .581-2.284z" class="cls-4" transform="translate(-443.373 -236.918)"/>
        <path id="Path_154" d="M843.915 408.841l-1.3-1.674-4.354-5.637-2.261-2.879a7.552 7.552 0 0 0 3.164.852 4.241 4.241 0 0 0 4.137-2.608 32.686 32.686 0 0 0 1.6-3.682c.721-2.051.706-3.106.45-3.464a23.3 23.3 0 0 1 2.516 2.235l.034.029.416.4.16.31 2.2 4.408v.184c.205 1.394.946 10.268-6.762 11.526z" class="cls-6" transform="translate(-443.858 -236.097)"/>
        <path id="Path_155" d="M919.886 626.09a2.218 2.218 0 0 0-.455-.3h-.039c-.91-.382-.077-5.1.077-5.709s1.369-12.376 1.369-12.376-.455-3.721.155-5.322-.764-7.741-.764-7.741a1.423 1.423 0 0 1 .382-1.674c.837-.914.532-9.052.532-9.052s-.073-4.1-.073-5.172a18.867 18.867 0 0 1 1.747-6.237c.837-1.3.3-5.322.3-5.322l.044-.31c.024-.111.044-.256.068-.426l.073-.406a2 2 0 0 1 .053-.31c.044-.242.092-.484.145-.793.029-.174.063-.358.1-.542.111-.581.242-1.219.382-1.872.044-.2.092-.411.14-.614s.116-.484.179-.735c.039-.15.073-.3.116-.445.111-.445.232-.876.363-1.287.968-3.2 2.134-8.825 2.134-8.825l7.069-18.569.082-.223.223.431c.735 1.485 3.043 6.541 3.043 11.278 0 0 .842 6.773.61 8.593s.687 10.422.687 10.422.968 12.318.968 12.85 1.219 10.044 1.979 11.486-.76 5.859-1.219 6.29.155 11.641.155 11.641-1.142 8.82-1.374 10.644c-.048.435-.145 1.166-.247 2.061l.585-.276.082-.044c7.741-3.716 15.41-7.64 22.793-11.9l.063-11.665s.532-5.1-.073-7.151-1.219-6.009-.387-7.078.082-6 .082-6 0-10.422 1.137-13.005.764-18.942.764-18.942l.3-10.722s2.482-2.366 1.9-14.713c-.063-1.316-.16-2.743-.3-4.3-.421-4.659-.847-8.878-1.234-12.531l-.1-.924c-.039-.406-.087-.808-.126-1.2-.092-.827-.179-1.621-.266-2.376-.029-.223-.053-.44-.077-.658q-.189-1.626-.353-3c-.039-.358-.087-.711-.126-1.045-.063-.484-.121-.968-.174-1.418a2.409 2.409 0 0 0-.044-.319 4.063 4.063 0 0 0-.068-.556c-.252-1.974-.4-3.053-.4-3.053h-.068l-7.649.068-16.7.16h-.489l-8.709.082h-.532l-4.18.043h-.711l-8.709.082h-.521l-3.575 14.737-7.3 16.735s-.111 1.834-.368 3.624v.106a.35.35 0 0 1-.029.174 1.267 1.267 0 0 0-.044.271 9.4 9.4 0 0 1-.614 2.366 5.912 5.912 0 0 0-.484 1.669 9.787 9.787 0 0 0-.111 1.853v.1s-.581 2.637-.919 4.882c-.063.431-.121.847-.155 1.234a7.8 7.8 0 0 0-.068 1.418 7.942 7.942 0 0 1-.053 1.452 4.088 4.088 0 0 1-.063.532c-.237 1.78-.716 3.774-.716 3.774l-1.374 13.237a.305.305 0 0 1 0 .044v.552a1.529 1.529 0 0 1-.029.348c0 .314-.048.687-.082 1.122a4.252 4.252 0 0 1-.029.484 2.516 2.516 0 0 1-.029.46v.252a2.273 2.273 0 0 1-.024.382 1.869 1.869 0 0 0 0 .368v.343c-.039.711-.087 1.481-.121 2.26v.745a5.593 5.593 0 0 1-.034.745v4.964a13.2 13.2 0 0 0 .116 1.616c.048.358.087.726.111 1.1v3.009c-.121 1.664-.348 3.014-.382 3.227v.455c0 .121.029.276.044.445v.242a.953.953 0 0 0 .029.281c.029.1 0 .092 0 .145 0 .174.029.353.048.542s.039.392.058.6l.029.382c0 .184.039.377.053.566v.193c0 .131.029.256.039.392l.044.6c0 .131.029.266.039.4v.2l.063.784a2.077 2.077 0 0 0 .024.387c0 .2.029.411.048.6s0 .445.034.648a4.142 4.142 0 0 1 .029.59 8.6 8.6 0 0 1 0 1.587 37.042 37.042 0 0 0-.755 3.822c0 .15-.044.3-.058.455a1.63 1.63 0 0 0 0 .271l-.029.363c0 .29-.034.586-.034.871a6.672 6.672 0 0 0 .218 1.824 10.247 10.247 0 0 1 .266 1.606c.039.31.063.639.082.968s.029.687.044 1.04v.7c.029 2.3-.1 4.495-.1 4.495a.542.542 0 0 0 0 .058v.039c.048.968.484 8.6.968 11.162a11.618 11.618 0 0 1 .169 1.374 2.461 2.461 0 0 0 .024.421 22.156 22.156 0 0 1-.344 4.446s-.711 5.908-.939 5.908a4.131 4.131 0 0 0-.682 2.646v.039a7.519 7.519 0 0 0 2.511 5.322l.542.542c2.264-.808 4.509-1.65 6.749-2.506 1.19-.46 2.38-.919 3.566-1.393q4.393-1.737 8.709-3.571z" class="cls-7" transform="translate(-475.675 -285.103)"/>
        <path id="Path_156" d="M998.655 291.35L987.4 303.373s-14.447-5.806-12.928-7.741c.59-.764.484-3.179.155-5.845-.532-4.214-1.674-9.067-1.674-9.067s25.251-4.108 23.117.155a6.988 6.988 0 0 0-.16 5.051 19.146 19.146 0 0 0 2.745 5.424z" class="cls-5" transform="translate(-514.549 -178.925)"/>
        <path id="Path_157" d="M996.067 280.837c-.774 1.553-1.147 1.7-.663 3.387-3.3 3.542-7.5 7.417-12.72 7.417a18.018 18.018 0 0 1-8.06-1.887c-.532-4.214-1.674-9.067-1.674-9.067s25.25-4.113 23.117.15z" class="cls-4" transform="translate(-514.549 -178.906)"/>
        <path id="Path_158" d="M991.859 247.405a18.1 18.1 0 1 1-36.209 0v-.261a18.1 18.1 0 1 1 36.206.261z" class="cls-5" transform="translate(-505.619 -153.235)"/>
        <path id="Path_159" d="M981.578 503c-2.419 0-10.383.087-19.3.227h-.111l-2.946.048h-.092c-10.581.169-21.008-1.9-25.193-1.5-8.9.837 3.193-8.225 3.193-8.225a74.508 74.508 0 0 0 20.271 2.05l2.559-.135c8.085-.455 16.213-1.214 20.461-2.492.292 2.358.723 5.779 1.158 10.027z" class="cls-4" transform="translate(-492.72 -289.403)"/>
        <path id="Path_160" fill="#5f5d7e" d="M981.578 502.06c-2.419 0-10.383.082-19.3.227h-.111l-2.946.048h-.092c-10.581.169-21.008-1.9-25.193-1.5-8.9.832 3.193-8.225 3.193-8.225a74.389 74.389 0 0 0 20.272 2.047l2.559-.131c8.085-.455 16.213-1.219 20.461-2.492.291 2.357.722 5.787 1.157 10.026z" transform="translate(-492.72 -288.917)"/>
        <path id="Path_161" d="M956.551 312.068l-14 6.541-10.794 83.5s6.386-2.9 10.039-1.064 14.907.155 14.907.155 8.225-.484 9.43.455 15.521-3.8 15.521-3.8 2.584-5.782.6-6.691.61-9.9.61-9.9l-1.214-60.241-2.419-7.741-6.531-3.962-6.691 5.322-3.193.46z" class="cls-4" transform="translate(-493.287 -194.607)"/>
        <path id="Path_162" d="M956.551 310.174l-13.992 6.541-10.8 83.517s6.386-2.9 10.039-1.064 14.907.15 14.907.15 8.225-.455 9.43.455 15.521-3.8 15.521-3.8 2.584-5.777.6-6.691.61-9.889.61-9.889l-1.214-60.241-2.419-7.741-6.533-3.961-6.691 5.322-3.193.455z" class="cls-6" transform="translate(-493.287 -193.641)"/>
        <path id="Path_163" d="M970.952 319.8s4.035 4.79 3.958 5.782-.227 3.343-.227 3.343l-3.019 6.164s-1.674 7.683-1.674 9.28-2.661 15.439-2.661 15.439l-3.193 21.288-4.036 27.915 4.108 7.074 4.867-4.108 6.459-49.737 1.369-9.812s1.451-17.645 1.451-19.469a62.2 62.2 0 0 0-.837-6.619s.992-4.562 5.1-5.627-.3-.232-.3-.232l-2.356-1.9-2.056.837s-5.734-1.748-6.953.382z" class="cls-4" transform="translate(-507.916 -199.386)"/>
        <path id="Path_164" d="M969.981 318.859s4.03 4.79 3.958 5.777-.232 3.348-.232 3.348l-3.043 6.164s-1.674 7.678-1.674 9.275-2.661 15.444-2.661 15.444l-3.2 21.288-4.03 27.912 4.108 7.073 4.867-4.108 6.459-49.732 1.369-9.812s1.451-17.645 1.451-19.474a61.877 61.877 0 0 0-.837-6.614s.968-4.567 5.095-5.632-.3-.227-.3-.227l-2.361-1.9-2.051.837s-5.699-1.752-6.918.381z" class="cls-9" transform="translate(-507.4 -198.901)"/>
        <path id="Path_165" d="M972.843 303.65s-.61.455-.76 3.5-2.284 9.889-2.284 9.889 7.91-5.477 11.868-4.867z" class="cls-4" transform="translate(-512.923 -191.68)"/>
        <path id="Path_166" d="M972.843 301.76s-.61.46-.76 3.5-2.284 9.889-2.284 9.889 7.91-5.477 11.868-4.867z" class="cls-6" transform="translate(-512.923 -190.704)"/>
        <path id="Path_167" d="M1007.453 298.62L995 309.574s10.5 6.236 11.868 7.741 2.739-14.907 2.739-14.907z" class="cls-4" transform="translate(-525.93 -189.084)"/>
        <path id="Path_168" d="M1008.373 296.73L995.9 307.684s10.494 6.236 11.863 7.741 2.738-14.911 2.738-14.911z" class="cls-6" transform="translate(-526.395 -188.108)"/>
        <path id="Path_169" d="M938.287 303.527s-1.369-.687-2.661 1.292a8.658 8.658 0 0 1-3.725 2.9s-13.847 2.206-14.379 4.03l-6.464.377s-2.284.276-2.5 5.114-1.451 5.245-1.451 5.245-2.666 4.717-2.419 7.151a3.961 3.961 0 0 1-2.056 3.653l9.526 24.694s.3 10.194-1.451 13.92-5.022 20.233-5.022 20.233 1.369-.3 1.292.61-1.674 10.876-1.674 10.876-.455 3.953-1.214 5.322-.837 8.52-.837 8.52L902 422.639s2.9 6.464 7.306 5.549 12.4-18.177 12.4-18.177l5.095-18.632 3.958-18.409 1.141-12.47 1.824-27.612 2.661-18.255s2.981-9.814 1.902-11.106z" class="cls-4" transform="translate(-477.926 -191.557)"/>
        <path id="Path_170" d="M937.382 301.639s-1.369-.682-2.661 1.3a8.659 8.659 0 0 1-3.73 2.9s-13.842 2.206-14.374 4.03l-6.464.382s-2.284.3-2.511 5.095-1.451 5.249-1.451 5.249-2.661 4.717-2.419 7.151a3.959 3.959 0 0 1-2.051 3.648l9.493 24.7s.3 10.194-1.451 13.92-5.017 20.233-5.017 20.233 1.369-.3 1.292.61-1.674 10.876-1.674 10.876-.455 3.953-1.214 5.322-.837 8.52-.837 8.52l-1.21 5.2s2.9 6.464 7.3 5.554 12.4-18.182 12.4-18.182l5.095-18.632 3.958-18.385 1.137-12.473 1.829-27.607 2.658-18.25s2.966-9.865 1.902-11.161z" class="cls-3" transform="translate(-477.461 -190.583)"/>
        <path id="Path_171" d="M854.957 408.435l-4.432 3.043a52.307 52.307 0 0 1-11.563-.968l-2.458-1.089-.484-.218.508.16a10.041 10.041 0 0 0 6.086.218c6.246-2.1 5.554-12.41 5.322-14.742a2.092 2.092 0 0 0-.048-.44.145.145 0 0 1 0-.029l.039.058a2.765 2.765 0 0 0 .285.4 3.221 3.221 0 0 0 .281.3l2.2 4.408v.184z" class="cls-4" transform="translate(-443.868 -238.507)"/>
        <path id="Path_172" d="M870.731 362l-2.129.61-.3 4.354a2.923 2.923 0 0 0-3.193 2.589 10.577 10.577 0 0 1-1.9 4.354s-4.185 3.5-4.412 6.464l-2.589 1.6s-6.009-1.369-7.378-3.8c0 0 2.738 19.624-11.863 14.834 0 0 16.353 7.151 17.113 8.138s5.782 3.871 10.344 1.452a10.974 10.974 0 0 0 5.554-6.236s4.412-6.159 4.562-7.074 3.576-1.979 3.576-1.979l6.541-15.816z" class="cls-3" transform="translate(-444.354 -221.799)"/>
        <path id="Path_173" d="M1015.51 306.769l2.206-10.039s.968 3.271 1.979 4.03 3.271 2.511 3.271 2.511 3.271 1.524 4.408 1.524 7.306 1.6 8.065 2.419 3.8.227 3.8.227 2.511.837 4.717 1.369 3.271 4.185 2.811 5.627a4.4 4.4 0 0 0 1.064 4.108c.914.914 1.369 3.871 1.369 3.871a4.461 4.461 0 0 1 2.588 2.206c.76 1.674.532 5.322.532 5.322l-11.331 15.966s.15 6.159-.3 7.528 1.6 24.646 1.6 24.646l2.356 40.007a42.037 42.037 0 0 1-3.8 2.966c-.687.3-1.369-14.147-1.369-14.679s-17.568-26.32-17.568-26.32-2.361-3.8-2.361-4.64-2.206-8.515-2.206-8.515L1014 352.1z" class="cls-4" transform="translate(-535.738 -188.108)"/>
        <path id="Path_174" d="M1054.232 329.077c0 .522-.029.871-.029.871l-11.326 15.966s.155 6.164-.3 7.533c-.266.793.314 8.98.852 15.7.382 4.838.745 8.941.745 8.941l1 16.973 1.355 23.04a42.584 42.584 0 0 1-3.8 2.966c-.682.3-1.369-14.147-1.369-14.684s-17.582-26.325-17.582-26.325-2.356-3.808-2.356-4.645-2.206-8.52-2.206-8.52l-3.343-14.829 1.519-45.334 1.292-10.039s1.9 3.275 2.9 4.03 3.266 2.511 3.266 2.511 3.271 1.524 4.413 1.524 7.3 1.6 8.065 2.419 3.8.227 3.8.227 2.506.837 4.712 1.369 3.271 4.185 2.816 5.627a4.384 4.384 0 0 0 1.064 4.108c.91.91 1.369 3.871 1.369 3.871a4.476 4.476 0 0 1 2.588 2.206 13.074 13.074 0 0 1 .555 4.494z" class="cls-3" transform="translate(-536.703 -188.087)"/>
        <path id="Path_175" d="M913.77 783.487c-1.185.484-2.376.934-3.566 1.393-3.73-1.089-7.214-2.371-7.214-2.371a99.08 99.08 0 0 1 10.78.978z" class="cls-4" transform="translate(-478.437 -438.856)"/>
        <path id="Path_176" d="M999.67 700.6s9.052 2.129 9.584 3.576z" class="cls-4" transform="translate(-528.341 -396.576)"/>
        <path id="Path_177" d="M925.225 714.12s-4.717 1.369-.15 4.108.15-4.108.15-4.108z" class="cls-4" transform="translate(-488.809 -403.555)"/>
        <path id="Path_178" d="M970.74 561.045c.532 0 8.825-2.738 11.713-1.519a19.216 19.216 0 0 0 6.469 1.214z" class="cls-4" transform="translate(-513.408 -323.596)"/>
        <path id="Path_179" d="M961.489 576.52l-.082.755-7.093 18.55s-1.142 5.627-2.134 8.82a57.813 57.813 0 0 0-1.48 6.6l6.29-38.929z" class="cls-4" transform="translate(-503.064 -330.361)"/>
        <path id="Path_180" d="M990.686 504.956l-2.947.048h-.092l-1.727-7.669c.847-.039 1.7-.082 2.559-.135z" class="cls-7" transform="translate(-521.243 -291.586)"/>
        <path id="Path_181" d="M1037.293 486.216l-1.892 1.563-6.3 5.211s-17.113 9.13-21.825.455c-4.156-7.64 15.245-13.092 19.919-14.282.634-.16 1-.242 1-.242z" class="cls-5" transform="translate(-531.966 -282.15)"/>
        <path id="Path_182" d="M918.87 339.49s3.343 1.524 4.1 3.653-4.1-3.653-4.1-3.653z" class="cls-4" transform="translate(-486.634 -210.18)"/>
        <path id="Path_183" d="M893.885 386.66s-4.867 5.932-2.9 8.225 2.9-8.225 2.9-8.225z" class="cls-4" transform="translate(-471.997 -234.528)"/>
        <path id="Path_184" d="M1072.3 346.41s-4.563.455-4.717 4.412z" class="cls-4" transform="translate(-563.395 -213.752)"/>
        <path id="Path_185" d="M989.92 459.651c.484-.455 10.954-15.966 13.387-14.6z" class="cls-4" transform="translate(-523.308 -264.623)"/>
        <path id="Path_186" d="M991.859 247.426a18.039 18.039 0 0 1-2.143 8.544h-.135c-1.147-.242-1.742-1.577-2.618-2.419a3.566 3.566 0 0 0-4.108-.576 4.166 4.166 0 0 0-2.018 3.9c-.581-2.419-.4-5.027-.968-7.465s-2.269-4.911-4.6-4.954c-1.006 0-2.177.373-2.9-.382-.44-.455-.527-1.171-.856-1.722-1.669-2.695-6.74-1.331-8.81.053s-4.475 3.59-7.049 4.775a18.1 18.1 0 1 1 36.206.261z" class="cls-4" transform="translate(-505.619 -153.256)"/>
        <path id="Path_187" fill="#4c3e42" d="M966.575 231.454c.329.552.416 1.268.856 1.722.726.75 1.9.363 2.9.382 2.332.039 4.035 2.511 4.6 4.95s.382 5.032.968 7.465a4.166 4.166 0 0 1 2.018-3.9 3.556 3.556 0 0 1 4.1.576c.876.832 1.451 2.168 2.622 2.419s2.255-.861 2.671-2.071a32.813 32.813 0 0 0 .653-3.788c.518-2.376 2.066-4.32 2.9-6.575a11.9 11.9 0 0 0-.078-8.5c-.571-1.451-1.417-2.714-2-4.142-.871-2.168-1.1-4.611-2.167-6.677a7.853 7.853 0 0 0-9.473-3.871c-1.655.624-3.092 1.829-4.771 2.366-2.245.721-4.65.179-6.977-.145s-4.9-.353-6.774 1.176c-2.153 1.761-2.743 5.07-4.766 7.006-.852.813-1.906 1.331-2.8 2.08a3.835 3.835 0 0 0-1.568 3.087c.135 1.577 1.679 3.009 1.108 4.466a3.526 3.526 0 0 1-.847 1.113 15.967 15.967 0 0 0-3.682 6.265c4.074 1.272 8.477-3.217 11.665-5.322 2.107-1.413 7.177-2.782 8.842-.082z" transform="translate(-500.679 -142.828)"/>
        <path id="Path_188" d="M1058.827 486.211l-1.892 1.563c-1.669-2.782-8.525-8.336-8.525-8.336l.3-.285c.634-.16 1-.242 1-.242z" class="cls-4" transform="translate(-553.499 -282.145)"/>
        <path id="Path_189" d="M1061.141 480.823s-.682 1.693-1.384 3.159-1.452 2.792-1.51 1.713c-.077-2.134-8.9-9.285-8.9-9.285l1.2-1.161 1.389-1.35z" class="cls-6" transform="translate(-553.984 -279.559)"/>
        <path id="Path_190" d="M1061.523 455.427l1 16.973c-2.361-3.672-8.849-13.092-13.02-12.787L1059.617 448a13.035 13.035 0 0 0 1.161-1.49c.382 4.829.745 8.917.745 8.917z" class="cls-4" transform="translate(-554.062 -265.421)"/>
        <path id="Path_191" d="M1062.436 480.823s-.682 1.693-1.384 3.159c-2.651-3.638-6.29-7.93-9.193-8.733l1.389-1.35z" class="cls-4" transform="translate(-555.28 -279.559)"/>
        <path id="Path_192" d="M1069.314 361l2.739 2.129s4.562.077 5.017 3.871 4.64 5.554 4.64 5.554 3.121 3.116 3.121 4.562 2.356 4.03 2.356 4.258 2.283 4.867 1.979 5.7 2.419 4.49 1.6 5.859a33.575 33.575 0 0 0-1.824 3.8s-3.575 6.846-5.4 8.138-10.189 12.168-10.189 12.168-8.975 10.344-8.975 13.547c0 0-8.748-14.607-13.92-14.224l10.117-11.636s1.746-1.9 1.824-3.043 4.867-6.391 7.151-6.619c0 0 .377-3.121-.61-3.193s-1.824-2.511-1.824-2.511-6.7-7.91-6.773-12.933 8.971-15.427 8.971-15.427z" class="cls-3" transform="translate(-554.552 -221.283)"/>
        <path id="Path_193" d="M1092.207 376s-6.391 4.712-5.022 6.237 5.022-6.237 5.022-6.237z" class="cls-4" transform="translate(-573.415 -229.025)"/>
        <path id="Path_194" d="M1098.4 414.407s11.863-3.8 13.063 0z" class="cls-4" transform="translate(-579.303 -247.978)"/>
        <path id="Path_195" d="M923.362 374.08s0 17.34-1.485 19.053 1.485-19.053 1.485-19.053z" class="cls-4" transform="translate(-487.971 -228.034)"/>
        <path id="Path_196" d="M1067.11 385.63l2.206 6.2s.876-6.084-2.206-6.2z" class="cls-4" transform="translate(-563.152 -233.996)"/>
        <g id="Group_7" class="cls-11" transform="translate(445.42 80.797)">
            <path id="Path_197" d="M954.568 243.574c.556-1.427-.9-2.826-1.094-4.354a2.905 2.905 0 0 0-.242 1.374c.1 1.156.968 2.23 1.176 3.3a1.934 1.934 0 0 0 .16-.319z" transform="translate(-949.788 -239.22)"/>
            <path id="Path_198" d="M976.122 265.074c-.547-2.419-.387-4.94-.939-7.335s-2.269-4.916-4.6-4.954c-1.006 0-2.177.368-2.9-.382-.44-.455-.527-1.171-.856-1.722-1.664-2.695-6.735-1.331-8.81.053-3.111 2.066-7.383 6.391-11.375 5.414-.189.46-.368.924-.518 1.4 4.074 1.272 8.477-3.217 11.665-5.322 2.075-1.379 7.141-2.748 8.81-.048.329.552.416 1.268.856 1.722.726.75 1.9.363 2.9.382 2.332.039 4.035 2.511 4.6 4.95s.382 5.032.968 7.465a4.131 4.131 0 0 1 .199-1.623z" transform="translate(-946.12 -244.337)"/>
            <path id="Path_199" d="M1019.591 274.766c-.416 1.21-1.5 2.318-2.671 2.071s-1.742-1.577-2.617-2.419a3.571 3.571 0 0 0-4.108-.571 4.137 4.137 0 0 0-2.018 3.682 3.972 3.972 0 0 1 1.79-2.2 3.556 3.556 0 0 1 4.1.576c.876.832 1.451 2.168 2.622 2.419s2.255-.861 2.671-2.071a10.646 10.646 0 0 0 .416-2.187 6.809 6.809 0 0 1-.189.7z" transform="translate(-978.152 -256.884)"/>
            <path id="Path_200" d="M1035.825 252.974c-.856 2.255-2.419 4.2-2.9 6.57-.107.484-.165.968-.223 1.451.518-2.361 2.061-4.3 2.9-6.551a11.479 11.479 0 0 0 .7-3.155 10.986 10.986 0 0 1-.477 1.685z" transform="translate(-990.811 -245.45)"/>
        </g>
        <circle id="Ellipse_7" cx=".189" cy=".189" r=".189" fill="#e6e8ec" transform="translate(380.327 143.017)"/>
        <path id="Path_201" d="M497.7 585.256s5.322-3.817 10.852-1.451c0 0-1.548 3.28-8.419 3.237z" class="cls-9" transform="translate(-269.236 -335.89)"/>
        <path id="Path_202" d="M496.091 588.09s-1.422 6.4 2.9 10.552c0 0 2.419-2.709-.324-9.014z" class="cls-9" transform="translate(-268.289 -338.501)"/>
        <path id="Path_203" d="M481.75 571.472s.2-5.4 12.434-4.083c0 0 .194 3.479-4.016 5.288s-6.217.498-8.418-1.205z" class="cls-9" transform="translate(-261.003 -327.708)"/>
        <path id="Path_204" d="M477.773 576s-5.08 1.848-.058 13.087c0 0 3.387-.89 3.793-5.453s-1.442-6.047-3.735-7.634z" class="cls-9" transform="translate(-257.775 -332.261)"/>
        <path id="Path_205" d="M465.338 551.793s-1.035-8.839 11.438-8.409c0 0 1.19 7.993-9.159 10.456z" class="cls-9" transform="translate(-252.52 -315.417)"/>
        <path id="Path_206" d="M447.58 532.206s1.321-10.117 13.866-7.6c0 0 .377 8.709-11.747 9.913z" class="cls-9" transform="translate(-243.365 -305.526)"/>
        <path id="Path_207" d="M434.35 511.461s2.477-9.918 14.907-7.436c0 0-2.593 8.912-14.031 9.193z" class="cls-9" transform="translate(-236.536 -294.903)"/>
        <path id="Path_208" d="M421.76 490.749s2.419-10.267 14.4-7.669c0 0-3.6 9.8-13.547 9.372z" class="cls-9" transform="translate(-230.037 -284.08)"/>
        <path id="Path_209" d="M413.39 468.66s1.669-12.5 12.874-10.184c0 0-2.787 11.428-11.979 11.96z" class="cls-9" transform="translate(-225.717 -271.45)"/>
        <path id="Path_210" d="M405.35 445.522s2.1-12.623 13.441-9.41c0 0-3.943 12-12.579 11.128z" class="cls-9" transform="translate(-221.567 -259.783)"/>
        <path id="Path_211" d="M400.08 420.476s3.609-12.681 12.3-12.676c0 0-3.677 13.387-11.476 15.158z" class="cls-9" transform="translate(-218.846 -245.44)"/>
        <path id="Path_212" d="M396.45 396.955s3.871-15.245 10.973-14.355c0 0-2.637 11.641-10.644 16.692z" class="cls-9" transform="translate(-216.973 -232.413)"/>
        <path id="Path_213" d="M393.86 371.969s3.687-12.725 10.644-13.489c0 0-2.366 12.468-10.359 16.745z" class="cls-9" transform="translate(-215.636 -219.982)"/>
        <path id="Path_214" d="M391.19 348.093s4.717-12.773 9.314-13.233c0 0-1.785 12.468-8.777 15.279z" class="cls-9" transform="translate(-214.258 -207.79)"/>
        <path id="Path_215" d="M389.13 323.61s2.676-13.784 7.228-15.09c0 0-.2 11.2-6.725 16.092z" class="cls-9" transform="translate(-213.194 -194.194)"/>
        <path id="Path_216" d="M384.42 296.666s2.947-11.017 6.609-12.816c0 0-.247 12.86-5.641 15.444z" class="cls-9" transform="translate(-210.763 -181.46)"/>
        <path id="Path_217" d="M379.2 270.614l-1.41-19.174s7.5 14.224 2.037 22.527z" class="cls-9" transform="translate(-207.341 -164.73)"/>
        <path id="Path_218" d="M360.853 236.528s-5.545-13.823-6.774-14.558c0 0 10.16 8.709 9.676 20.451z" class="cls-9" transform="translate(-195.102 -149.519)"/>
        <path id="Path_219" d="M455.937 560.658s-8.864-.813-8.123 11.641c0 0 8.022.968 10.228-9.415z" class="cls-9" transform="translate(-243.462 -324.336)"/>
        <path id="Path_220" d="M437.1 540.08s-10.194.358-8.873 13.063c0 0 8.612 1.2 10.978-10.751z" class="cls-9" transform="translate(-233.313 -313.72)"/>
        <path id="Path_221" d="M418.3 520.821s-9.42-3.987-14.911 7.436c0 0 8.685 3.29 15.8-5.661z" class="cls-9" transform="translate(-220.555 -303.431)"/>
        <path id="Path_222" d="M405.555 498.741s-9.652-4.253-14.8 6.9c0 0 10 3.019 15.642-5.2z" class="cls-9" transform="translate(-214.036 -291.97)"/>
        <path id="Path_223" d="M396.177 476.636s-9.449-8.36-16.387.726c0 0 9.589 6.807 16.881 1.2z" class="cls-9" transform="translate(-208.373 -279.159)"/>
        <path id="Path_224" d="M388.927 451.72s-9.517-8.559-16.377 1.035c0 0 10.576 6.914 16.774.818z" class="cls-9" transform="translate(-204.636 -266.296)"/>
        <path id="Path_225" d="M385.235 424.089s-7.494-10.847-15.715-8.051c0 0 7.78 11.5 15.734 10.644z" class="cls-9" transform="translate(-203.072 -249.454)"/>
        <path id="Path_226" d="M381.617 399.988s-7.659-13.741-14.3-11.051c0 0 5.545 10.572 14.573 13.4z" class="cls-9" transform="translate(-201.936 -235.523)"/>
        <path id="Path_227" d="M379.294 374.919s-7.741-10.746-14.544-9.135c0 0 6.406 10.949 15.376 12.3z" class="cls-9" transform="translate(-200.61 -223.667)"/>
        <path id="Path_228" d="M381.285 348.735s-6.145-12.154-10.765-12.1c0 0 3.2 12.183 10.46 14.181z" class="cls-9" transform="translate(-203.588 -208.708)"/>
        <path id="Path_229" d="M377.285 326.188s-6.773-12.289-11.525-12.129c0 0 3.638 10.591 11.355 13.242z" class="cls-9" transform="translate(-201.131 -197.052)"/>
        <path id="Path_230" d="M376.9 299.88s-5.114-10.189-9.062-11.21c0 0 2.84 12.546 8.651 13.983z" class="cls-9" transform="translate(-202.205 -183.948)"/>
        <path id="Path_231" d="M367.617 273.657L356.46 258s3.309 15.734 12.812 18.651z" class="cls-9" transform="translate(-196.331 -168.116)"/>
        <path id="Path_232" d="M349.253 244.963s-12.579-7.988-13.063-9.333c0 0 6.706 11.612 18.337 13.252z" class="cls-9" transform="translate(-185.868 -156.57)"/>
        <path id="Path_233" d="M341.982 233.43S327.4 220.449 323.81 220.6c0 0 11.612.087 18.482 12.1z" class="cls-9" transform="translate(-179.477 -148.81)"/>
        <path id="Path_234" d="M372.921 279.289l-.513.087c-3.435-20.587-7.741-32.668-12.168-34.013l.15-.484c4.679 1.414 9.01 13.321 12.531 34.41z" class="cls-13" transform="translate(-198.282 -161.344)"/>
        <path id="Path_235" d="M391.494 363.69l-.769.1c-.237-1.935-.435-3.9-.6-5.864-1.393-17.1-3.14-32.779-5.095-44.512l.426-.571c1.935 11.752 4.05 27.9 5.448 45 .154 1.971.358 3.94.59 5.847z" class="cls-13" transform="translate(-211.078 -196.424)"/>
        <path id="Path_236" d="M460.251 507.8c-.14-.058-14-5.617-28.705-19.595a112.429 112.429 0 0 1-21.506-28.12c-7.049-13.063-11.665-29.281-13.61-45.131l.823.348c4.354 35.571 21.549 59.346 34.976 72.119 14.558 13.852 28.265 19.353 28.4 19.416z" class="cls-13" transform="translate(-216.962 -249.13)"/>
        <g id="Group_8" opacity="0.7" transform="translate(213.679 48.313)">
            <path id="Path_237" d="M548.25 573.651s6.222-2.056 10.789 1.834c0 0-2.453 2.676-9 .585z" class="cls-9" transform="translate(-509.007 -379.081)"/>
            <path id="Path_238" d="M545.134 574.25s-3.261 5.69-.358 10.944c0 0 3.111-1.872 2.371-8.709z" class="cls-9" transform="translate(-506.593 -379.671)"/>
            <path id="Path_239" d="M536.46 555.946s1.8-5.1 13.063-.2c0 0-.852 3.387-5.409 3.871s-6.057-1.392-7.654-3.671z" class="cls-9" transform="translate(-502.921 -369.021)"/>
            <path id="Path_240" d="M530.522 558s-5.4.256-3.948 12.478c0 0 3.474.155 5.24-4.074s.426-6.246-1.292-8.404z" class="cls-9" transform="translate(-497.69 -371.283)"/>
            <path id="Path_241" d="M525.35 532.887s1.645-8.748 13.421-4.625c0 0-1.244 7.983-11.854 7.257z" class="cls-9" transform="translate(-497.187 -355.363)"/>
            <path id="Path_242" d="M514.34 508.973s4.272-9.265 15.482-3.125c0 0-2.221 8.4-14.161 5.966z" class="cls-9" transform="translate(-491.504 -343.278)"/>
            <path id="Path_243" d="M507.93 485.508s5.322-8.733 16.45-2.666c0 0-5.128 7.741-16.131 4.625z" class="cls-9" transform="translate(-488.195 -331.381)"/>
            <path id="Path_244" d="M502 461.923s5.351-9.086 16.039-3.038c0 0-6.353 8.288-15.734 4.916z" class="cls-9" transform="translate(-485.134 -319.05)"/>
            <path id="Path_245" d="M499.83 438.312s5.322-11.442 15.308-5.893c0 0-6.062 10.078-15 7.852z" class="cls-9" transform="translate(-484.014 -305.677)"/>
            <path id="Path_246" d="M499.2 413.781s5.758-11.428 15.632-4.983c0 0-7.34 10.286-15.327 6.856z" class="cls-9" transform="translate(-483.689 -293.251)"/>
            <path id="Path_247" d="M500.76 389.063s7.219-11.031 15.511-8.443c0 0-7.494 11.689-15.482 11.06z" class="cls-9" transform="translate(-484.494 -279.521)"/>
            <path id="Path_248" d="M503.343 365.128s8.225-13.407 14.747-10.436c0 0-5.985 10.325-15.12 12.768z" class="cls-9" transform="translate(-485.635 -266.118)"/>
            <path id="Path_249" d="M508.246 340.691s7.306-11.046 14.166-9.71c0 0-5.966 11.2-14.873 12.908z" class="cls-9" transform="translate(-487.994 -254.043)"/>
            <path id="Path_250" d="M513.522 316.745s8.307-10.794 12.831-9.865c0 0-5.414 11.37-12.923 11.979z" class="cls-9" transform="translate(-491.034 -241.631)"/>
            <path id="Path_251" d="M518.35 292.154s6.65-12.361 11.394-12.254c0 0-3.522 10.644-11.215 13.363z" class="cls-9" transform="translate(-493.573 -227.734)"/>
            <path id="Path_252" d="M522.6 264.832s6.086-9.638 10.122-10.272c0 0-4.064 12.207-9.981 13.063z" class="cls-9" transform="translate(-495.767 -214.654)"/>
            <path id="Path_253" d="M524.367 236.309l4.354-18.719s2.937 15.806-4.741 22.125z" class="cls-9" transform="translate(-496.48 -195.571)"/>
            <path id="Path_254" d="M522.043 198.308s-1.181-14.849-2.143-15.918c0 0 7.127 11.35 3.145 22.4z" class="cls-9" transform="translate(-494.374 -177.402)"/>
            <path id="Path_255" d="M512.745 538.185s-8.225-3.421-11.215 8.709c0 0 7.359 3.334 12.579-5.946z" class="cls-9" transform="translate(-484.891 -360.826)"/>
            <path id="Path_256" d="M500.5 513.391s-9.836-2.69-12.362 9.851c0 0 7.862 3.711 13.683-7z" class="cls-9" transform="translate(-477.98 -348.132)"/>
            <path id="Path_257" d="M489.74 489.805s-7.8-6.609-16.45 2.666c0 0 7.311 5.724 16.764-.706z" class="cls-9" transform="translate(-470.314 -334.904)"/>
            <path id="Path_258" d="M484.274 464.771s-7.944-6.933-16.174 2.2c0 0 8.646 5.854 16.479-.315z" class="cls-9" transform="translate(-467.635 -321.859)"/>
            <path id="Path_259" d="M483 440.08s-6.536-10.794-15.86-4.185c0 0 7.127 9.357 15.758 6.164z" class="cls-9" transform="translate(-467.14 -307.149)"/>
            <path id="Path_260" d="M483.366 414.187s-6.541-11-15.966-3.871c0 0 8.041 9.749 15.773 5.772z" class="cls-9" transform="translate(-467.274 -293.812)"/>
            <path id="Path_261" d="M489.368 385.089s-3.924-12.579-12.608-12.362c0 0 4.011 13.3 11.854 14.868z" class="cls-9" transform="translate(-472.106 -275.648)"/>
            <path id="Path_262" d="M493.133 360.882s-3.227-15.4-10.364-14.8c0 0 2.148 11.742 9.928 17.122z" class="cls-9" transform="translate(-475.208 -261.887)"/>
            <path id="Path_263" d="M498.431 336.063S494.237 323.484 487.26 323c0 0 2.864 12.367 11.021 16.319z" class="cls-9" transform="translate(-477.526 -249.981)"/>
            <path id="Path_264" d="M508.157 311.522s-2.25-13.431-6.682-14.742c0 0-.571 12.579 5.772 16.653z" class="cls-9" transform="translate(-484.857 -236.447)"/>
            <path id="Path_265" d="M511.113 288.808s-2.821-13.75-7.393-15c0 0 .319 11.191 6.9 16.019z" class="cls-9" transform="translate(-486.022 -224.591)"/>
            <path id="Path_266" d="M518.433 263.567s-1.853-11.249-5.322-13.407c0 0-1.021 12.826 4.1 15.927z" class="cls-9" transform="translate(-490.826 -212.383)"/>
            <path id="Path_267" d="M517.345 235.774l-5.995-18.264s-1.524 16.01 6.682 21.622z" class="cls-9" transform="translate(-489.903 -195.53)"/>
            <path id="Path_268" d="M508.486 202.912s-9.633-11.37-9.676-12.8c0 0 2.946 13.063 13.547 18.1z" class="cls-9" transform="translate(-483.487 -181.387)"/>
            <path id="Path_269" d="M504.937 189.74S494.878 173 491.39 172.08c0 0 11.07 3.542 14.031 17.05z" class="cls-9" transform="translate(-479.657 -172.08)"/>
            <path id="Path_270" d="M520.693 242.762l-.513-.073c2.845-20.674 2.313-33.5-1.5-36.093l.3-.426c4.035 2.753 4.63 15.4 1.713 36.592z" class="cls-13" transform="translate(-493.744 -189.676)"/>
            <path id="Path_271" d="M503.1 328.951l-.764-.14c.348-1.911.74-3.871 1.176-5.777 3.754-16.735 6.774-32.227 8.375-44.028l.576-.416c-1.626 11.8-4.432 27.839-8.2 44.594-.418 1.935-.815 3.866-1.163 5.767z" class="cls-13" transform="translate(-485.309 -227.058)"/>
            <path id="Path_272" d="M533.7 486.866c-.116-.092-11.7-9.531-21.574-27.244a112.287 112.287 0 0 1-12.187-33.248c-2.845-14.573-2.419-31.449.431-47.134l.682.576c-6.411 35.261 2.9 63.071 11.936 79.26 9.778 17.553 21.225 26.891 21.341 26.983z" class="cls-13" transform="translate(-483.073 -279.011)"/>
        </g>
        <path id="Path_273" fill="url(#linear-gradient-2)" d="M207.111 406.542a18.388 18.388 0 0 1-3.527 1.055 35.452 35.452 0 0 1-6.4.6c.063.566.111 1.093.16 1.572.116 1.316.184 2.221.184 2.221l-2.269-.155-18.714-1.277-10.945-1.616a20.414 20.414 0 0 0 1.718 2.018 9.053 9.053 0 0 0 2.187 1.7s9.875 8 11.583 8.07c.242 0 .319.242.281.624 4.156 0 17.079.6 13.494 7.8a5.733 5.733 0 0 1-2.937 2.859c-4.146 1.756-10.4-1.4-13.624-3.343-.314.614-.614 1.185-.881 1.674-.547 1.031-.929 1.713-.929 1.713l-.324-.232L159.561 420l-3.638-3.087a12.7 12.7 0 0 1-3.15-.547l-.484-.155a.931.931 0 0 0-.053.131 6.772 6.772 0 0 0-.3 1.161v.174a13.592 13.592 0 0 0-.135 1.359c0 .31-.024.639-.024.968-.029 6.59 2.613 17.181 2.613 17.181s6.846 17.461 4.417 21.491a1.816 1.816 0 0 1-.484.523 4.806 4.806 0 0 0-1.635 3.034c-.9 4.277.682 10.8.682 10.8s-.145.242-.392.619a18.712 18.712 0 0 1-1.8 2.419c-.1.116-.208.237-.319.348a8.424 8.424 0 0 1-.968.871c.063.189.131.382.2.59s.155.532.223.822a11.8 11.8 0 0 1-.6 7.117 19.608 19.608 0 0 0-1.219 5.114 39.12 39.12 0 0 0 .247 9.628c-.073-.039-.135-.077-.208-.111q-8.027-4.195-15.826-8.762c-1.524-.881-3.038-1.78-4.543-2.685q-2.777-1.674-5.53-3.387-3.629-2.264-7.257-4.64l-1.132-.755-.435-.3c-.614-.411-1.219-.822-1.829-1.239a92.919 92.919 0 0 1-6.841-10.16c-.344-.615-.653-1.2-.91-1.737v-.029l-.165-.353-.682-.242c-1.282-.45-2.095-.764-2.095-.764a23.737 23.737 0 0 0 .842-6.628 20.073 20.073 0 0 0-6.207-14.815c-7.335-6.933-8.346-13.779-8.452-16.406v-.484a6.064 6.064 0 0 1 .029-.663l.561-.537c-1.422-.285-2.758-.416-2.758-.416s4.867-17.611 13.063-23.49c4.064-2.9 7.446-7.741 9.836-11.892A180.245 180.245 0 0 1 126.85 368.6l1.476-1.863.431-.547.092-.111.116-.155q-.3-.455-.61-.9l-.135-.2a4.924 4.924 0 0 1-1.108-3.092v-.281a3.713 3.713 0 0 1 .106-.571.549.549 0 0 0 .058.087c.692-2.013 3.358-2.9 5.322-4.016 4.63-2.6 6.6-8.3 7.6-13.6.769-4.122 1.408-8.743 4.6-11.389 2.061-1.7 4.838-2.264 6.924-3.953a12.976 12.976 0 0 0 2.942-3.779c.484-.823.9-1.674 1.35-2.5a25.186 25.186 0 0 1 8.356-9.42c3.585-2.23 8.133-3.1 12.062-1.6 1.514.576 2.9 1.451 4.354 2.095a16.96 16.96 0 0 0 2.767.861c2.956.692 6.067.871 8.844 2.1 4.514 2 7.451 6.435 10.131 10.644a50.721 50.721 0 0 1 4.809 8.564v-.334a12.284 12.284 0 0 1 .968 4.451 6.774 6.774 0 0 1-.208 1.935 5.544 5.544 0 0 1-3.009 3.45l-.227.111a9.674 9.674 0 0 1-.939.421c-.048.266-.1.537-.16.8-.024.111-.053.227-.082.339-.063.271-.135.537-.213.8a18.618 18.618 0 0 1-5.806 8.873 19.513 19.513 0 0 1-6.493 3.677c-.169.058-.348.1-.518.155a4.171 4.171 0 0 1-.61 1.127 3.258 3.258 0 0 1-.658.634 3.994 3.994 0 0 1-.484.281.646.646 0 0 1-.131.063c-1.742.784-4.127.169-5.806-1-.087-.058-.169-.126-.252-.189a5.552 5.552 0 0 1-.092.866c-.048.3-.082.484-.135.735s-.073.372-.106.552-.058.3-.087.44l-.058.247a38.01 38.01 0 0 1-5.39 13.112 18.683 18.683 0 0 1-1.224 1.65l-1.2 1.829v.247a20.826 20.826 0 0 1-3.111 11.51 33.56 33.56 0 0 1-2.153 3.237l.271.16c2.709 1.543 8.051 4.287 11.428 4.054 0 0 12.773 1.65 14.253.823.2-.116.4.044.585.387 2.066-1.258 6.817-3.924 10.567-4.277 2.622-.252 4.756.624 5.153 3.871s-1.561 5.356-4.299 6.531z" transform="translate(-58.429 -194.943)"/>
        <path id="Path_274" d="M158.579 634.792a10.605 10.605 0 0 1 .7 9.3 23.633 23.633 0 0 0-1.185 9.314c-1.524-.881-3.038-1.781-4.543-2.685q-2.777-1.674-5.53-3.387-3.629-2.264-7.257-4.64l-1.132-.755-.435-.3a.912.912 0 0 0-.14-.194 87.836 87.836 0 0 1-6.672-10.218c-.406-.755-.76-1.451-1.04-2.09v-.034a4.071 4.071 0 0 1-.566-2.327 4.77 4.77 0 0 1 2.347-2.9c2.787-1.452 7.257-.111 11.679 2.022a80.751 80.751 0 0 1 10.905 6.643l.392.285.039.029c1.451 1.031 2.293 1.713 2.293 1.713a2.307 2.307 0 0 1 .145.224z" class="cls-16" transform="translate(-79.814 -356.663)"/>
        <path id="Path_275" d="M157.085 633.468a10.606 10.606 0 0 1 .7 9.314 23.645 23.645 0 0 0-1.185 9.318q-2.284-1.331-4.543-2.69-2.782-1.674-5.53-3.387c-2.419-1.514-4.838-3.063-7.233-4.645l-1.132-.755-.435-.3a1.05 1.05 0 0 0-.14-.194 86.967 86.967 0 0 1-6.672-10.218c-.406-.755-.76-1.451-1.04-2.09v-.021a4.084 4.084 0 0 1-.566-2.332 4.785 4.785 0 0 1 2.347-2.9c2.787-1.452 7.257-.111 11.679 2.022a80.753 80.753 0 0 1 10.905 6.643l.392.285.039.029c1.451 1.031 2.293 1.713 2.293 1.713s.036.067.121.208z" opacity="0.05" transform="translate(-79.056 -355.982)"/>
        <path id="Path_276" d="M188.525 647.53a11.815 11.815 0 0 1-.682 2.419 19.131 19.131 0 0 0-1.1 4.354 38.472 38.472 0 0 0 .039 9.517q-8.027-4.195-15.826-8.762c-1.524-.881-3.038-1.78-4.543-2.685-.339-2.574-.822-4.838-1.369-5.395a96.339 96.339 0 0 1-7.344-11.21c-.329-.581-.614-1.142-.881-1.674v-.024c-.1-.213-.2-.416-.29-.619-.653-1.4-1-2.5-.827-3.024a5.583 5.583 0 0 1 1.993-2.874c4.291-3.135 13.213 1.108 20.064 5.322l.169.1c1.3.808 2.526 1.606 3.629 2.351l.643.435c2.835 1.935 4.717 3.44 4.717 3.44a10.3 10.3 0 0 1 1.118 2.313 12.268 12.268 0 0 1 .4 1.4 11.694 11.694 0 0 1 .09 4.616z" class="cls-16" transform="translate(-92.681 -358.311)"/>
        <path id="Path_277" d="M132.4 631.216c3.517 1.229 8.709 2.859 11.534 2.9a5.469 5.469 0 0 0 .876-.043c1.989-.271 8.119.164 13.745.672 2.255.2 4.427.406 6.222.59l4.509.484v-1.739c-1.253-.861-2.709-1.819-4.267-2.787-6.875-4.248-15.908-8.588-20.233-5.428-6.091-2.942-12.275-4.354-14.031.88-.204.683.536 2.415 1.645 4.471z" class="cls-4" transform="translate(-79.809 -356.643)"/>
        <path id="Path_278" d="M99.25 549.984c.1 2.608 1.074 9.376 8.075 16.213 8.931 8.709 5.124 21.23 5.124 21.23s10.644 4.18 15.236 4.292a5.469 5.469 0 0 0 .876-.044c2.753-.382 13.7.629 19.987 1.263l4.509.484V556.4l-49.321-11.98-4.466 4.451a8.709 8.709 0 0 0-.019 1.113z" class="cls-18" transform="translate(-63.56 -315.96)"/>
        <g id="Group_9" class="cls-11" transform="translate(35.68 228.484)">
            <path id="Path_280" d="M187.817 643.313l.808.082v.4l-4.509-.484c-4.514-.455-11.413-1.1-15.966-1.292 3.15-.283 13.576.681 19.667 1.294z" transform="translate(-134.81 -594.795)"/>
            <path id="Path_281" d="M99.269 548.921l4.466-4.451 2.98.721-3.721 3.73a8.708 8.708 0 0 0 0 1.113c.1 2.608 1.074 9.372 8.075 16.213 8.931 8.709 5.124 21.225 5.124 21.225s8.806 3.459 13.852 4.171a12 12 0 0 0-1.451.082 5.462 5.462 0 0 1-.876.044c-4.592-.116-15.236-4.3-15.236-4.3s3.808-12.517-5.124-21.225c-7.035-6.841-8.012-13.605-8.109-16.2a8.71 8.71 0 0 1 .02-1.123z" transform="translate(-99.24 -544.47)"/>
        </g>
        <path id="Path_282" d="M303 496.631s14.916-10.344 16-1.035-16 8-16 8z" class="cls-16" transform="translate(-168.736 -288.752)"/>
        <path id="Path_283" fill="#f7cddd" d="M238.231 487.7s8.065 5.322 12.531 5.008c0 0 12.192 1.635 13.61.818s2.289 11.815 2.289 11.815l-20.035-1.418-12.85-1.959s-6.425-3.919-6.425-7.3 10.88-6.964 10.88-6.964z" transform="translate(-129.687 -286.682)"/>
        <path id="Path_284" d="M238.231 487.7s8.065 5.322 12.531 5.008c0 0 12.192 1.635 13.61.818s2.289 11.815 2.289 11.815l-20.035-1.418-12.85-1.959s-6.425-3.919-6.425-7.3 10.88-6.964 10.88-6.964z" class="cls-9" transform="translate(-129.687 -286.682)"/>
        <path id="Path_285" d="M270.3 543.322s18.138-.75 14.074 7.7-17.8-1.809-17.8-1.809z" class="cls-16" transform="translate(-149.932 -315.384)"/>
        <path id="Path_286" d="M236.58 475.746s14.7-11 12.633-24.389-12.633 10.238-12.633 10.238z" class="cls-18" transform="translate(-134.451 -265.801)"/>
        <path id="Path_287" d="M245 360.82a18.6 18.6 0 0 0 11.612 17.219 16.673 16.673 0 0 0 2.39.793 18.874 18.874 0 0 0 2.637.484c.639.063 1.282.1 1.935.1a18.313 18.313 0 0 0 6.1-1.06A18.579 18.579 0 1 0 245 360.82z" class="cls-16" transform="translate(-138.798 -211.591)"/>
        <path id="Path_288" d="M99.25 549.984c1.664.3 3.721.866 3.721 1.727 0 1.451 23.224 9.294 23.224 9.294s-.871 2.027 1.451 5.516 21.206 23.519 21.206 23.519l-.063.59-.242 2.308-1.147 11.036s7.257-2.613 9.58-2.322a3.161 3.161 0 0 0 2.318-1.084 11.128 11.128 0 0 0-1.514-3.711s-1.882-1.481-4.722-3.44V556.4l-49.321-11.98-4.466 4.451a8.709 8.709 0 0 0-.019 1.113z" class="cls-4" transform="translate(-63.56 -315.96)"/>
        <path id="Path_289" d="M94.94 470.892s5.806.576 5.806 2.032 23.224 9.294 23.224 9.294-.871 2.027 1.451 5.516 21.206 23.519 21.206 23.519l-1.451 13.934s7.257-2.613 9.58-2.322c1.04.131 2.187-.832 3.135-1.935a20.255 20.255 0 0 0 2.095-2.985s-2.617-11.041.871-13.653-3.774-21.772-3.774-21.772-3.285-13.624-2.318-19.469a7.107 7.107 0 0 1 .281-1.147.347.347 0 0 1 .044-.131c2.071-5.583 24.346-52.422 24.346-52.422a33.348 33.348 0 0 0-.281-3.972c-.044-.368-.1-.75-.174-1.132a19.444 19.444 0 0 0-.45-2.066c-.126-.445-.261-.871-.421-1.277-.687-1.771-1.742-3.13-3.319-3.164 0 0-1.742-1.935-5.806-2.448-3-.392-7.257 0-13.063 2.448-13.644 5.806-16.837 6.1-16.837 6.1l-6.861 8.985-1.413 1.848a177.7 177.7 0 0 0-13.988 21.227c-2.284 4.1-5.516 8.888-9.391 11.762-7.842 5.812-12.492 23.23-12.492 23.23z" class="cls-9" transform="translate(-61.34 -238.915)"/>
        <path id="Path_290" d="M171.426 482.3s-19.382 4.79-26.9 16.876z" class="cls-4" transform="translate(-86.937 -283.895)"/>
        <path id="Path_291" d="M184.726 526.18s-3.663 24.607-2.647 26.46 2.647-26.46 2.647-26.46z" class="cls-4" transform="translate(-106.228 -306.545)"/>
        <path id="Path_292" d="M189.955 545.683c1.413 1.848 7.136 16.116 7.136 16.116l-1.655 23.954-1.451 13.934s7.257-2.613 9.585-2.322c1.035.131 2.187-.827 3.135-1.935-1.51-8.162-4.732-25.236-5.322-25.565-.769-.435-4.688-14.157-4.9-17.969s-5.666-12.405-5.666-12.405-2.28 4.344-.862 6.192z" class="cls-4" transform="translate(-110.145 -313.415)"/>
        <path id="Path_293" d="M201.681 454.616c.353 1.089.914 7.4.914 7.4.4 5.569 4.606 7.388 7.219 7.969a7.1 7.1 0 0 1 .281-1.147c1.742-4.93 24.39-52.553 24.39-52.553a31.268 31.268 0 0 0-.9-7.17c-4.93-1.451-12.739.784-12.739.784-2.255-.3-9.614 14.341-9.614 14.341s-4.906 11.21-5.443 12.734 0 4.035-.218 4.906-2.511 1.626-2.835 2.83-.111 3.585-.329 4.021-1.107 4.796-.726 5.885z" class="cls-4" transform="translate(-116.389 -245.867)"/>
        <path id="Path_294" d="M205.285 452.821c.358 1.089.914 7.4.914 7.4a8.221 8.221 0 0 0 5.801 7.565 12.241 12.241 0 0 0 3.484.7l3.5 3.038 16.165 11.926s6.028-11.128 4.393-11.2-11.065-7.983-11.065-7.983c-2.9-1.539-5.777-6.686-7.117-9.328a7.52 7.52 0 0 0 .174-.968c.585-4.93 12.778-23.8 12.778-23.8s4.712-5.549 6.551-15.831c.053-.232.087-.484.131-.721a7.9 7.9 0 0 0 .1-.968c.218-3.953-2.656-5.39-6.072-5.733a24.589 24.589 0 0 0-5.322.164 38.324 38.324 0 0 0-5.225 1.026c-1.451-.189-5.061 5.883-7.422 10.184-1.272 2.332-2.187 4.156-2.187 4.156s-4.93 11.215-5.482 12.739 0 4.03-.218 4.906-2.511 1.626-2.83 2.83-.116 3.585-.334 4.021-1.085 4.788-.717 5.877z" class="cls-9" transform="translate(-118.251 -244.943)"/>
        <path id="Path_295" d="M166.61 394.378c3.067 3.155 8.07 3.164 12.067 1.563s7.388-4.524 11.1-6.773c2.419-1.451 4.954-2.676 7.325-4.19.348-.227.687-.455 1.016-.687 2.738-1.935 5.1-4.417 7.935-6.193a12.347 12.347 0 0 1 6.377-2.042 7.223 7.223 0 0 1 3.043.639 3.932 3.932 0 0 1 .484.251 13.224 13.224 0 0 1 2.564 1.935c.8.721 1.568 1.49 2.419 2.158.053-.232.087-.484.131-.721a7.9 7.9 0 0 0 .1-.968c.639.063 1.282.1 1.935.1a18.314 18.314 0 0 0 6.111-1.084 1.358 1.358 0 0 1 .044-.237c.7-3.658 1.935-7.533 4.9-9.589 1.708-1.2 4.437-1.679 6.8-2.588a18.579 18.579 0 1 0-35.009 2.013c-3-.392-7.257 0-13.063 2.448-13.644 5.806-16.837 6.1-16.837 6.1l-6.822 9a7.708 7.708 0 0 1 1.655 3.571c.142 2.44-2.219 4.128-4.275 5.294z" class="cls-4" transform="translate(-98.334 -211.601)"/>
        <path id="Path_296" fill="#7c5c5c" d="M234.181 353.107c-2.946 2.061-4.2 5.932-4.9 9.585a7.537 7.537 0 0 1-1.122 3.251c-1.563 2.027-4.708 1.451-6.749 0s-3.648-3.658-5.927-4.688c-3.029-1.364-6.585-.368-9.415 1.408s-5.2 4.258-7.94 6.188c-2.646 1.868-5.6 3.2-8.356 4.877-3.706 2.259-7.093 5.177-11.094 6.774s-9 1.6-12.062-1.558c2.056-1.142 4.417-2.83 4.258-5.274s-3.009-4.277-2.816-6.774 3.14-3.493 5.254-4.722c4.427-2.574 6.29-8.225 7.257-13.45.735-4.079 1.34-8.641 4.393-11.259 1.964-1.689 4.63-2.24 6.609-3.909 1.877-1.587 2.9-3.992 4.1-6.2a24.637 24.637 0 0 1 7.973-9.323c3.421-2.206 7.77-3.058 11.525-1.572 1.451.566 2.748 1.452 4.171 2.066 3.532 1.529 7.582 1.326 11.084 2.932 4.311 1.984 7.112 6.367 9.676 10.528 2.192 3.556 6.478 9.851 5.279 14.447-1.217 4.684-8 4.433-11.198 6.673z" transform="translate(-98.34 -197.907)"/>
        <g id="Group_10" class="cls-11" transform="translate(68.261 142.185)">
            <path id="Path_297" d="M169.59 420.266a3 3 0 0 1 .1-.566c.779 1.229 1.751 2.419 1.843 3.871a3.344 3.344 0 0 1-.082.992c-.864-1.394-1.982-2.696-1.861-4.297z" transform="translate(-168.129 -393.767)"/>
            <path id="Path_298" d="M177.79 402.73c4-1.606 7.388-4.524 11.094-6.774 2.758-1.679 5.709-3.009 8.356-4.877 2.738-1.935 5.109-4.417 7.94-6.188s6.386-2.772 9.415-1.408c2.279 1.031 3.871 3.213 5.927 4.688s5.187 2.051 6.749.024a7.454 7.454 0 0 0 1.122-3.246c.7-3.658 1.935-7.528 4.9-9.589 3.2-2.235 9.981-1.984 11.21-6.7a7.256 7.256 0 0 0 .16-2.559 10.291 10.291 0 0 1 .716 6.043c-1.234 4.717-8.012 4.466-11.215 6.7-2.942 2.061-4.2 5.932-4.9 9.589a7.489 7.489 0 0 1-1.118 3.246c-1.568 2.027-4.712 1.451-6.774-.024s-3.648-3.658-5.927-4.688c-3.029-1.364-6.585-.363-9.415 1.408s-5.2 4.258-7.94 6.188c-2.646 1.872-5.6 3.2-8.356 4.877-3.706 2.264-7.093 5.177-11.094 6.774s-9 1.592-12.062-1.563a15.054 15.054 0 0 0 2.245-1.49 12.9 12.9 0 0 0 8.967-.431z" transform="translate(-166.58 -366.1)"/>
        </g>
        <path id="Path_299" fill="#3acc6c" d="M574.222 318.978l-19.836-19.948a10.533 10.533 0 0 0-14.96-.1L414.861 422.438l-52.669-53.08a10.5 10.5 0 0 0-14.853-.106l-20.05 19.837a10.644 10.644 0 0 0-.1 14.96l79.986 80.615a10.644 10.644 0 0 0 14.96.106l151.976-150.837a10.533 10.533 0 0 0 .111-14.955z" transform="translate(-179.661 -187.66)"/>
        <g id="Group_11" class="cls-23" transform="translate(351.466 291.256)">
            <path id="Path_300" d="M765.133 674.23s-14.8-.89-13.063 9.478a2.531 2.531 0 0 0 1.316 2.661s0-.769 1.515-.508a6.681 6.681 0 0 0 1.611.077 3.324 3.324 0 0 0 1.964-.808s4.156-1.718 5.777-8.52c0 0 1.2-1.481 1.147-1.863l-2.5 1.069a4.458 4.458 0 0 1 .184 3.295s-.082-3.232-.561-3.155c-.1 0-1.3.624-1.3.624s1.451 3.135.358 5.419c0 0 .421-3.871-.818-5.191l-1.756 1.026s1.713 3.242.552 5.883c0 0 .3-4.054-.924-5.632l-1.592 1.239s1.611 3.193.629 5.39c0 0-.126-4.722-.968-5.08a9.663 9.663 0 0 0-1.606 1.737s1.1 2.318.421 3.542c0 0-.421-3.15-.765-3.159a10.432 10.432 0 0 0-1.534 3.508 7.557 7.557 0 0 1 1.2-3.711 4.189 4.189 0 0 0-2.124 1.1s.213-1.451 2.467-1.606a9.754 9.754 0 0 1 1.451-1.674 9.092 9.092 0 0 0-3.6.416s1.2-1.393 4.006-.76l1.572-1.282a12.965 12.965 0 0 0-4.2.039s1.451-1.229 4.625-.334l1.713-1.021a15.6 15.6 0 0 0-4.016-.348s1.582-.852 4.519.073l1.224-.552s-1.843-.363-2.385-.416-.566-.208-.566-.208a6.4 6.4 0 0 1 3.459.387 15.641 15.641 0 0 0 2.568-1.135z" class="cls-9" transform="translate(-751.928 -674.211)"/>
        </g>
        <g id="Group_12" class="cls-23" transform="translate(335.421 218.851)">
            <path id="Path_301" d="M721.468 524.575s-7.514 12.778 2.521 15.932a2.535 2.535 0 0 0 2.971.039s-.673-.373.232-1.582a6.925 6.925 0 0 0 .8-1.4 3.386 3.386 0 0 0 .169-2.119s.353-4.485-4.969-9.014c0 0-.779-1.742-1.137-1.872l-.184 2.709a4.478 4.478 0 0 1 3.019 1.335s-2.9-1.393-3.068-.934c-.029.1-.034 1.451-.034 1.451s3.464.116 4.993 2.138c0 0-3.251-2.129-5-1.626l.116 2.032s3.667-.058 5.5 2.177c0 0-3.479-2.109-5.438-1.737l.382 1.984s3.58 0 5.085 1.882c0 0-4.262-2.027-4.964-1.451a11.08 11.08 0 0 0 .813 2.221s2.569.068 3.348 1.234c0 0-2.995-1.055-3.164-.755a10.653 10.653 0 0 0 2.419 2.961 7.572 7.572 0 0 1-2.763-2.753 4.17 4.17 0 0 0 0 2.419s-1.214-.861-.3-2.9a9.627 9.627 0 0 1-.837-2.056 9.178 9.178 0 0 0-1.263 3.387s-.7-1.7 1.142-3.919l-.426-1.984a13.1 13.1 0 0 0-1.872 3.764s-.44-1.843 1.8-4.272l-.135-1.989a15.42 15.42 0 0 0-2.129 3.416s-.044-1.8 2.109-3.992l.068-1.34s-1.161 1.48-1.451 1.935-.44.411-.44.411a6.363 6.363 0 0 1 1.911-2.9 16.153 16.153 0 0 0 .176-2.832z" class="cls-9" transform="translate(-718.766 -524.56)"/>
        </g>
        <g id="Group_13" class="cls-23" transform="translate(288.43 116.91)">
            <path id="Path_302" d="M624.34 313.87s-7.509 12.783 2.521 15.932a2.526 2.526 0 0 0 2.971.039s-.673-.373.237-1.582a6.892 6.892 0 0 0 .8-1.4 3.352 3.352 0 0 0 .169-2.119s.358-4.485-4.969-9.014c0 0-.779-1.737-1.137-1.868l-.184 2.7a4.471 4.471 0 0 1 3.019 1.335s-2.9-1.393-3.063-.934c-.034.1-.034 1.451-.034 1.451s3.459.116 4.988 2.138c0 0-3.251-2.129-5-1.626l.121 2.032s3.662-.058 5.491 2.177c0 0-3.479-2.1-5.438-1.737l.382 1.984s3.58 0 5.09 1.887c0 0-4.267-2.032-4.969-1.451a10.85 10.85 0 0 0 .818 2.216s2.564.068 3.343 1.234c0 0-2.995-1.055-3.159-.755a10.489 10.489 0 0 0 2.419 2.961 7.577 7.577 0 0 1-2.767-2.748 4.2 4.2 0 0 0 0 2.39s-1.214-.861-.3-2.927a9.627 9.627 0 0 1-.837-2.056 9.177 9.177 0 0 0-1.263 3.387s-.7-1.7 1.147-3.919l-.431-1.984a13 13 0 0 0-1.867 3.764s-.445-1.843 1.8-4.272l-.135-1.988a15.42 15.42 0 0 0-2.129 3.416s-.044-1.795 2.11-3.987l.068-1.345s-1.161 1.48-1.452 1.935-.44.411-.44.411a6.4 6.4 0 0 1 1.935-2.9 15.481 15.481 0 0 0 .145-2.777z" class="cls-9" transform="translate(-621.641 -313.86)"/>
        </g>
        <g id="Group_14" class="cls-23" transform="translate(113.572 20.111)">
            <path id="Path_303" d="M276.018 113.79s-27.965 20.321-9.454 36.417c0 0 2.095 3.813 6.319 2.85 0 0-1.093-1.422 1.979-3.164a15.757 15.757 0 0 0 3.009-2.245 7.79 7.79 0 0 0 2.337-4.354s4.945-9.26-2.221-23.9c0 0-.044-4.446-.7-5.061l-2.9 5.622s4.2 1.979 5.216 5.67c0 0-4.94-5.7-5.69-4.838-.15.169-1.413 3.048-1.413 3.048s7.3 3.474 8.685 9.222c0 0-4.974-7.586-9.193-8.138l-1.64 4.456s7.891 3.295 9.72 9.778c0 0-5.477-7.741-10.015-8.781l-1.026 4.6s7.635 3.363 9.12 8.767c0 0-7.257-8.312-9.285-7.7 0 0-.687 4.277-.324 5.5 0 0 5.428 2.54 6.009 5.757 0 0-5.424-5.041-6.062-4.558 0 0 .59 5.806 2.448 8.6a17.689 17.689 0 0 1-3.353-8.457 9.792 9.792 0 0 0-2.192 5.133s-1.8-2.975 2.066-6.546c0 0-.276-4.548.135-5.177 0 0-4.316 2.985-5.869 6.082 0 0 .092-4.277 6.1-7.311l.929-4.64s-5.907 3.643-7.5 6.29c0 0 .769-4.354 7.828-7.461l1.568-4.379s-5.322 2.753-7.741 5.322c0 0 1.582-3.871 8.225-6.565l1.389-2.806s-3.871 2.08-4.911 2.777-1.331.484-1.331.484a14.882 14.882 0 0 1 6.8-4.437s3.262-5.63 2.938-5.857z" class="cls-9" transform="translate(-260.232 -113.79)"/>
        </g>
        <g id="Group_15" class="cls-23" transform="translate(60.415 82.958)">
            <path id="Path_304" d="M192.14 247.892s-36.175-15.211-40.917 12.217c0 0-2.472 4.277.968 7.809 0 0 .74-1.9 4.238.063a17.984 17.984 0 0 0 3.948 1.606 8.883 8.883 0 0 0 5.622-.3s11.892-.643 21.9-16.208c0 0 4.287-2.651 4.5-3.648l-7.175.484s.552 5.249-2.419 8.4c0 0 2.637-8.148 1.369-8.375-.256-.048-3.788.416-3.788.416s.914 9.13-3.871 13.852c0 0 4.442-9.285 2.506-13.687l-5.288 1.021s1.451 9.6-3.783 15.187c0 0 4.3-9.87 2.642-14.882l-5.07 1.7s1.224 9.391-3.155 14.031c0 0 3.822-11.907 2.022-13.547 0 0-4.558 1.848-5.535 2.9 0 0 .726 6.773-2.061 9.217 0 0 1.713-8.225.866-8.564 0 0-5.3 3.987-6.914 7.427a20.119 20.119 0 0 1 6.255-8.222 11.092 11.092 0 0 0-6.29.885s1.834-3.488 7.572-1.834c0 0 4.253-2.946 5.1-2.9 0 0-5.429-2.419-9.352-2.119 0 0 4.2-2.419 10.678 1.621l5.046-1.829s-7.011-3.595-10.528-3.58c0 0 4.674-1.809 11.844 3.222l5.177-1.069s-5.806-3.556-9.725-4.379c0 0 4.7-.745 11.215 4.137l3.542-.3s-4.287-2.526-5.583-3.14-1.239-1.011-1.239-1.011a16.885 16.885 0 0 1 8.307 4s7.342-.151 7.376-.601z" class="cls-9" transform="translate(-150.363 -243.685)"/>
        </g>
        <g id="Group_16" class="cls-23" transform="translate(45.395 29.143)">
            <path id="Path_305" d="M154.455 152.072s-12.826-29.644-31.265-16.048a5.487 5.487 0 0 0-3.871 5.177s1.519-.706 2.477 2.453a15.027 15.027 0 0 0 1.451 3.2 7.286 7.286 0 0 0 3.513 3.024s7.432 6.4 22.256 2.85c0 0 4.059.866 4.756.4l-4.533-3.808s-2.661 3.435-6.232 3.6c0 0 6.207-3.338 5.583-4.195-.126-.174-2.487-1.906-2.487-1.906s-4.659 5.941-10.16 6.033c0 0 7.93-2.99 9.285-6.7l-3.725-2.419s-4.679 6.546-10.963 6.89c0 0 8.177-3.411 10.049-7.34l-3.982-1.853s-4.625 6.29-9.855 6.527c0 0 9.052-4.9 8.912-6.894 0 0-3.759-1.5-4.95-1.413 0 0-3.421 4.427-6.474 4.3 0 0 5.7-3.914 5.39-4.6 0 0-5.419-.648-8.336.484a16.511 16.511 0 0 1 8.394-1.326 9.065 9.065 0 0 0-4.233-3.048s3.082-1.031 5.545 3.217c0 0 4.2.677 4.693 1.181 0 0-1.839-4.543-4.354-6.59 0 0 3.871.968 5.424 7.049l4.04 1.795s-2.114-6.135-4.214-8.123c0 0 3.808 1.587 5.2 8.66l3.672 2.318s-1.422-5.419-3.275-8.143c0 0 3.213 2.235 4.306 8.849l2.274 1.839s-1.113-3.938-1.534-5.041-.155-1.306-.155-1.306a13.909 13.909 0 0 1 2.656 7.1s4.451 4.064 4.722 3.807z" class="cls-9" transform="translate(-119.32 -132.456)"/>
        </g>
        <g id="Group_17" class="cls-23" transform="translate(315.707 53.243)">
            <path id="Path_306" d="M692.825 193.208s-3.025-14.515-12.579-10.108a2.525 2.525 0 0 0-2.226 1.969s.75-.179.89 1.331a6.938 6.938 0 0 0 .344 1.572 3.387 3.387 0 0 0 1.3 1.684s2.748 3.561 9.73 3.338c0 0 1.747.764 2.1.619l-1.689-2.129a4.466 4.466 0 0 1-3.13 1.04s3.1-.924 2.9-1.369c-.044-.092-.943-1.089-.943-1.089s-2.642 2.24-5.133 1.771c0 0 3.837-.61 4.795-2.153l-1.451-1.427s-2.68 2.506-5.535 2.076c0 0 3.991-.774 5.2-2.366l-1.616-1.21s-2.661 2.39-5.037 2.018c0 0 4.524-1.364 4.645-2.274a9.637 9.637 0 0 0-2.095-1.093s-1.935 1.674-3.3 1.335c0 0 2.9-1.229 2.85-1.568a10.425 10.425 0 0 0-3.793-.556 7.6 7.6 0 0 1 3.895.179 4.151 4.151 0 0 0-1.621-1.761s1.481-.179 2.2 1.935a9.485 9.485 0 0 1 2 .968 9.309 9.309 0 0 0-1.345-3.387s1.655.789 1.785 3.672l1.65 1.181a12.973 12.973 0 0 0-1.142-4.045s1.563 1.069 1.534 4.354l1.451 1.384a15.518 15.518 0 0 0-.716-3.963s1.234 1.3 1.113 4.354l.851 1.04s-.131-1.872-.218-2.419.048-.6.048-.6a6.4 6.4 0 0 1 .537 3.445 16.227 16.227 0 0 0 1.751 2.252z" class="cls-9" transform="translate(-678.02 -182.268)"/>
        </g>
        <g id="Group_18" class="cls-23" transform="translate(263.634 322.306)">
            <path id="Path_307" d="M585.2 749.328s-3.019-14.515-12.579-10.107a2.53 2.53 0 0 0-2.23 1.969s.75-.179.89 1.33a6.686 6.686 0 0 0 .348 1.572 3.387 3.387 0 0 0 1.3 1.684s2.748 3.561 9.734 3.338c0 0 1.747.764 2.1.619l-1.684-2.129a4.471 4.471 0 0 1-3.135 1.04s3.1-.924 2.9-1.369c-.039-.092-.943-1.089-.943-1.089s-2.642 2.24-5.133 1.771c0 0 3.842-.61 4.795-2.153l-1.451-1.451s-2.651 2.516-5.516 2.071c0 0 3.992-.774 5.2-2.366l-1.616-1.21s-2.656 2.39-5.032 2.018c0 0 4.524-1.36 4.645-2.274a9.754 9.754 0 0 0-2.095-1.093s-1.935 1.674-3.309 1.335c0 0 2.9-1.229 2.85-1.568a10.425 10.425 0 0 0-3.793-.556 7.616 7.616 0 0 1 3.9.179 4.186 4.186 0 0 0-1.621-1.761s1.476-.179 2.192 1.935a9.51 9.51 0 0 1 2 .968 9.309 9.309 0 0 0-1.345-3.387s1.655.789 1.78 3.672L580 743.5a13.019 13.019 0 0 0-1.147-4.045s1.568 1.069 1.539 4.354l1.451 1.384a15.378 15.378 0 0 0-.721-3.962s1.239 1.3 1.118 4.354l.852 1.04s-.135-1.872-.223-2.419.048-.6.048-.6a6.373 6.373 0 0 1 .537 3.44 18.139 18.139 0 0 0 1.746 2.282z" class="cls-9" transform="translate(-570.39 -738.388)"/>
        </g>
    </g>
</svg>
