<svg xmlns="http://www.w3.org/2000/svg" width="53.618" height="53.415" viewBox="0 0 53.618 53.415"><defs><style>.a,.b{fill:none;stroke-linecap:round;stroke-linejoin:round;stroke-width:3px;}.a{stroke:#fff;}.b{stroke:#ab57ff;}</style></defs><g transform="translate(1.915 1.5)"><path class="a" d="M90.706,6.37a5.654,5.654,0,0,0-8.184,0L79.014,9.992,75.506,6.37a5.654,5.654,0,0,0-8.184,0,6.129,6.129,0,0,0,0,8.463l10.447,10.8a1.718,1.718,0,0,0,2.49,0l10.447-10.8A6.129,6.129,0,0,0,90.706,6.37Z" transform="translate(-42.197 -4.618)"/><path class="a" d="M85.312,104.708a.837.837,0,0,1,.837.837" transform="translate(-54.353 -66.422)"/><path class="a" d="M83.125,105.545a.837.837,0,0,1,.837-.837" transform="translate(-53.002 -66.422)"/><path class="a" d="M83.962,107.733a.837.837,0,0,1-.837-.837" transform="translate(-53.002 -67.773)"/><path class="a" d="M86.149,106.9a.837.837,0,0,1-.837.837" transform="translate(-54.353 -67.773)"/><path class="a" d="M91.875,77.43a3.347,3.347,0,1,0,3.347-3.347A3.347,3.347,0,0,0,91.875,77.43Z" transform="translate(-58.405 -47.512)"/><path class="b" d="M4.375,119.125a15.068,15.068,0,0,1,28.409,0" transform="translate(-4.375 -69.125)"/><path class="b" d="M20.772,64.056a15.3,15.3,0,0,0,17.045,3.427" transform="translate(-14.5 -41.32)"/><path class="b" d="M17.447,61.412a9.2,9.2,0,1,0,9.2-9.2,9.2,9.2,0,0,0-9.2,9.2Z" transform="translate(-12.447 -34.005)"/></g></svg>