<svg xmlns="http://www.w3.org/2000/svg" width="53.526" height="53" viewBox="0 0 53.526 53"><defs><style>.a,.b{fill:none;stroke-linecap:round;stroke-linejoin:round;stroke-width:3px;}.a{stroke:#ab57ff;}.b{stroke:#fff;}</style></defs><g transform="translate(1.5 1.5)"><path class="a" d="M4.369,83.125v20" transform="translate(-4.369 -53.125)"/><path class="a" d="M4.369,105.208H37.7a6.667,6.667,0,0,0-6.667-6.667H22.7a6.667,6.667,0,0,0-6.667-6.667H4.369" transform="translate(-4.369 -58.542)"/><path class="a" d="M34.994,109.375h6.667" transform="translate(-23.327 -69.375)"/><path class="b" d="M82.15,33.279c-1.26-2.167-5.856-3.707-11.616-5.84-1.593-.591-1.333-4.751-.627-5.529a11.76,11.76,0,0,0,3.06-9.111c0-5.2-3.4-8.424-7.46-8.424s-7.46,3.222-7.46,8.418a11.76,11.76,0,0,0,3.06,9.111c.707.778.967,4.938-.627,5.529-5.242,1.942-9.527,3.4-11.2,5.276" transform="translate(-32.175 -4.375)"/></g></svg>