<svg xmlns="http://www.w3.org/2000/svg" xmlns:xlink="http://www.w3.org/1999/xlink" width="335.16" height="220.336" viewBox="0 0 335.16 220.336"><defs><style>.a{fill:#10608f;opacity:0.68;}.b{fill:url(#a);}.c{fill:#65617d;}.d,.l{opacity:0.1;}.e{fill:#a5636d;}.f{fill:#e7effd;}.g{fill:#3f3d56;}.h{fill:#5f5d7e;}.i{fill:#259ecc;}.j{fill:#6a7490;}.k{fill:#4c3e42;}.m{fill:#e6e8ec;}.n{fill:#6c63ff;}.o{fill:#dff1ff;}.p{fill:#444053;}.q{opacity:0.7;}.r{fill:url(#b);}.s{fill:#fbbebe;}.t{opacity:0.05;}.u{fill:#5c6d8e;}.v{fill:none;}.w{fill:#f7cddd;}.x{fill:#2fbcf1;}.y{fill:#5c5c8e;}.z{fill:#7c5c5c;}.aa{fill:#3acc6c;}.ab{opacity:0.5;}</style><linearGradient id="a" x1="0.5" y1="1" x2="0.5" gradientUnits="objectBoundingBox"><stop offset="0" stop-color="gray" stop-opacity="0.251"/><stop offset="0.54" stop-color="gray" stop-opacity="0.122"/><stop offset="1" stop-color="gray" stop-opacity="0.102"/></linearGradient><linearGradient id="b" x1="0.5" y1="1" x2="0.5" y2="0" xlink:href="#a"/></defs><g transform="translate(0.05 -0.017)"><path class="a" d="M336.194,253.058q-1.569,1.38-3.208,2.68c-.184.149-.373.292-.56.443a112.656,112.656,0,0,1-12.249,8.274l-.8.464c-.192.117-.382.225-.583.332-4.451,2.569-9.067,4.935-13.74,7.175l-.05.026-.353.166Q299,275.329,293.182,277.8l-.093.035q-2.625,1.105-5.25,2.152c-.715.292-1.432.563-2.149.84-1.35.516-2.7,1.024-4.069,1.511l-.169.064-.292.1-.365.134q-5.34,1.907-10.823,3.523l-.064.018q-3.824,1.114-7.7,2.062l-.353.088c-3.791.916-7.644,1.7-11.52,2.333l-.892.143q-4.252.668-8.563,1.091c-16.155,1.56-32.5.292-48.557-1.884-32.42-4.4-64.411-12.643-93.588-25.566q-8.4-3.719-16.472-7.962c-.044-.023-.082-.047-.125-.067q-4.833-2.54-9.534-5.293c-.919-.531-1.832-1.073-2.739-1.619q-1.674-1.009-3.334-2.042-2.187-1.365-4.375-2.8l-.682-.455-.262-.178c-.37-.248-.735-.5-1.1-.747-13.708-9.333-25.931-20.643-31.705-34.8C21.733,192.161,26,171.454,42.53,161.8c5.681-3.325,12.284-5.13,18.957-6.62l.682-.152c1.129-.248,2.257-.487,3.38-.726,3.934-.834,7.889-1.662,11.806-2.587h0c2.042-.481,4.063-.986,6.072-1.531l.822-.227a98.315,98.315,0,0,0,14.177-4.993h.029q.739-.328,1.458-.68c.309-.146.618-.292.927-.452a54.935,54.935,0,0,0,14.247-9.966c.324-.327.639-.659.945-.992.236-.26.47-.522.694-.785,2.832-3.3,4.792-6.968,5.165-10.858h0a14,14,0,0,0-.175-3.917c-.458-2.447-.9-4.841-1.228-7.178a36.783,36.783,0,0,1,.029-12.631h0a23.776,23.776,0,0,1,6.536-11.943q.843-.875,1.817-1.75a38.288,38.288,0,0,1,10.1-6.381q.682-.292,1.374-.583c10.231-4.141,22.524-5,34.009-4.433a185.53,185.53,0,0,1,31.866,4.433c.831.187,1.662.382,2.488.583a220.891,220.891,0,0,1,26.249,8.117c22.276,8.379,43.3,20.013,62.944,32.852l.583.379q1.231.8,2.447,1.61,2.354,1.56,4.666,3.141l1.041.709q.77.525,1.531,1.053l1.563,1.082h0a1.717,1.717,0,0,1,.21.149l1.33.922c.77.537,1.534,1.076,2.3,1.619h0l1.645,1.167c.341.245.685.487,1.027.735l1.75,1.277.391.292c.082.058.163.117.242.181l.05.032c4.742,3.479,9.371,7.087,13.708,10.911l.56.5.058.052c.473.42.945.846,1.409,1.275A94.952,94.952,0,0,1,349.3,162.3C368.352,190.592,362.7,229.764,336.194,253.058Z" transform="translate(-25.44 -72.24)"/><path class="b" d="M904.946,265.978c.187-.507-1.207-3.325-1.207-3.465s-1.458-1.706-1.458-2.587-1.9-2.771-1.9-2.771-2.561-1.064-2.841-3.371-2.963-2.357-3.068-2.359c0,0,0-.21.018-.531a7.71,7.71,0,0,0-.344-2.7,2.742,2.742,0,0,0-1.581-1.345,6.091,6.091,0,0,0-.84-2.354,2.651,2.651,0,0,1-.648-2.5,3.314,3.314,0,0,0-.365-2.155,2.208,2.208,0,0,0-1.359-1.263h-.05c-1.336-.324-2.832-.82-2.832-.82s-.152.029-.376.061l-.187-.061a8.351,8.351,0,0,1-.974.122,1.211,1.211,0,0,1-.79-.26c-.467-.51-4.235-1.479-4.932-1.479a11.716,11.716,0,0,1-2.7-.925l-2-1.525a12.735,12.735,0,0,1-1.75-2.415l-.023-.032h0a7.925,7.925,0,0,1-.367-1.018c-.02-.064-.035-.128-.055-.2h0a11.133,11.133,0,0,0,1.111-1.365v-.015c.09-.125.175-.262.26-.394q.184-.292.35-.6c.047-.09.09-.184.137-.271a1.165,1.165,0,0,0,.292-.05l.125-.047a1.484,1.484,0,0,0,.321-.2L875,227a2.277,2.277,0,0,0,.583-.9c.032-.1.061-.2.085-.292a.428.428,0,0,1,.026-.1c.009-.032.032-.14.044-.213l.017-.117a1.169,1.169,0,0,1,.035-.207.4.4,0,0,0,0-.12c0-.085.023-.175.032-.262.041-.33.076-.653.146-.974a.026.026,0,0,0,0-.015,7.458,7.458,0,0,1,.688-1.773c.292-.563.612-1.117.875-1.7h0c.076-.166.149-.335.213-.5s.128-.373.187-.563a.777.777,0,0,1,.041-.172,4.125,4.125,0,0,0,.093-.417,1.462,1.462,0,0,0,.035-.184c.035-.193.058-.385.076-.583a7.157,7.157,0,0,0-.478-3.246c-.347-.875-.875-1.648-1.222-2.514-.534-1.315-.674-2.8-1.327-4.057a4.833,4.833,0,0,0-5.8-2.359c-1.009.373-1.887,1.105-2.917,1.435a9.643,9.643,0,0,1-4.267-.09,5.3,5.3,0,0,0-4.141.715c-1.315,1.07-1.677,3.083-2.917,4.255a6.706,6.706,0,0,1-.971.729c-.251.172-.5.341-.741.537a2.76,2.76,0,0,0-.86,1.167.977.977,0,0,0-.032.1.91.91,0,0,0-.032.12,1.18,1.18,0,0,1-.02.137.521.521,0,0,0,0,.1,1.7,1.7,0,0,0,0,.21h0v.035a1.345,1.345,0,0,0,.038.233v.064a1.166,1.166,0,0,0,.058.193.136.136,0,0,1,0,.038,2.1,2.1,0,0,0,.085.21.34.34,0,0,0,.041.1.391.391,0,0,1,.041.087,5.519,5.519,0,0,1,.432,1.07,1.214,1.214,0,0,1-.044.712,1.14,1.14,0,0,1-.187.312,3.882,3.882,0,0,1-.327.362,9.663,9.663,0,0,0-2.1,3.363c-.053.143-.1.292-.149.435h0l.061.017.061.015a2.043,2.043,0,0,0,.347.073,2.116,2.116,0,0,0,.233.026,3.615,3.615,0,0,0,.951-.076,1.459,1.459,0,0,0,.155-.035h0a.171.171,0,0,0,.047-.015h.029a5.052,5.052,0,0,0,.764-.265c.058-.026.12-.05.178-.079V223.1a10.975,10.975,0,0,0,5.588,8.922c.166.1.33.187.5.271.015.1.029.2.041.292s.023.166.032.251l-.128-.12a.849.849,0,0,0-.347-.07,1.114,1.114,0,0,0-.554.143,2.04,2.04,0,0,0-.726.709,5.172,5.172,0,0,1-2.281,1.75s-8.458,1.339-8.79,2.447l-3.955.233s-1.4.184-1.534,3.094v.067c-.021.347-.047.656-.079.933v.041c-.245,1.939-.8,2.147-.8,2.147s-1.63,2.864-1.49,4.343a.146.146,0,0,1,0,.035h0a1.9,1.9,0,0,1-.038.6,2.625,2.625,0,0,1-1.219,1.572l-.184,2.625a1.788,1.788,0,0,0-1.954,1.572,6.222,6.222,0,0,1-1.167,2.625s-2.558,2.126-2.7,3.926l-1.584.971s-3.672-.831-4.512-2.31c0,0-.1-.1-.257-.242l-.023-.035a.093.093,0,0,0,0,.017,12.9,12.9,0,0,0-1.537-1.356,1.143,1.143,0,0,1,.076.747l-.274-.292-.732-.817s-1.047-.98-2.52-2.149h0q-.5-.4-1.065-.822c-1.884-1.4-4.15-2.814-5.833-3.027-.035-.07-.175-.6-.5-.6a.554.554,0,0,0-.362.178,4.853,4.853,0,0,0-.032,7.116l.382.356,1.184,1.108,4,3.733c.05.035.1.073.146.105l.236.292.184.236.318.405.458.583c-.023.061-.05.12-.07.178-.172.42-.321.828-.443,1.2v.041c-.029.093-.058.181-.085.268a.366.366,0,0,1-.029.09c-.029.087-.053.175-.079.254a1.208,1.208,0,0,0-.041.152.855.855,0,0,1-.029.09c-.131.464-.213.82-.257,1.018l-.309-.1.292.131a.373.373,0,0,1,0,.05l-.017.093c.09.044.187.085.292.125l.067.029,1.143.5h0c.23.1.481.21.75.333s.475.213.735.324h0c2.986,1.33,7.172,3.24,7.469,3.622a5.88,5.88,0,0,0,6.329.875,6.663,6.663,0,0,0,3.392-3.745,38.841,38.841,0,0,0,2.794-4.293c.07-.426,1.318-.907,1.9-1.108l.055-.017.233-.076v.706a35.791,35.791,0,0,1-.426,6.186.037.037,0,0,0,0,.017,6.719,6.719,0,0,1-.464,1.546c-1.07,2.263-3.068,12.29-3.068,12.29h.047a1.355,1.355,0,0,1,.35-.018c-.041.187-.067.332-.088.432s-.029.149-.029.149h.035a1.341,1.341,0,0,1,.338-.02.715.715,0,0,1,.114.015,1.8,1.8,0,0,1-.029.21v.073c0,.012-.017.09-.023.14-.242,1.668-.942,6.011-.942,6.011a13.758,13.758,0,0,1-.747,3.232,8,8,0,0,0-.391,2.333c0,.146-.02.292-.032.443-.076,1.237-.087,2.394-.087,2.394l-.02.076-.685,3.109a.9.9,0,0,0,.038.085h0c.05.093.128.254.242.452h0l.035.076A8.685,8.685,0,0,0,839,307.964a4.2,4.2,0,0,0,.49.417h0a.529.529,0,0,1-.02.1c-.006.029-.018.111-.026.163a4.728,4.728,0,0,1-.33,1.167,3.9,3.9,0,0,0-.336,1.272h0a5.866,5.866,0,0,0-.029.945l-.038.172h0c-.1.475-.394,1.869-.551,3-.038.26-.073.51-.093.744a3.617,3.617,0,0,0,0,.65,5.343,5.343,0,0,1-.058,1.091,2.482,2.482,0,0,1-.038.321c-.158,1.027-.417,2.1-.417,2.1l-.837,8.035v.475a.927.927,0,0,1-.017.21c0,.19-.029.414-.05.677a2.535,2.535,0,0,1-.018.292,1.531,1.531,0,0,1-.017.277v.152a1.363,1.363,0,0,1-.015.23,1.13,1.13,0,0,0,0,.222v.207c-.026.429-.055.892-.076,1.362v.449a3.357,3.357,0,0,1-.021.449v2.969a8.51,8.51,0,0,0,.07.927c.032.227.055.467.067.712v.338a1.63,1.63,0,0,1,0,.169v1.307c-.073,1-.21,1.817-.23,1.945h0v.274c0,.073.017.166.026.268v.146h0a.575.575,0,0,0,.018.169c.017.058,0,.055,0,.088a3.271,3.271,0,0,0,.029.327c.012.114.026.236.035.359l.018.23c0,.111.023.227.032.341v.117c0,.079.018.155.023.236l.026.359c0,.079.017.16.023.239a.817.817,0,0,1,0,.122l.038.472a1.254,1.254,0,0,0,.015.233c0,.122.017.248.029.365s0,.268.02.391a2.5,2.5,0,0,1,.018.356,4.928,4.928,0,0,1,0,.989c-.076.333-.321,1.263-.461,2.272,0,.09-.026.181-.035.274a.982.982,0,0,0,0,.163l-.018.219c0,.175-.02.353-.02.525a4.047,4.047,0,0,0,.131,1.167,5.535,5.535,0,0,1,.146.77.4.4,0,0,0,.015.128c0,.093.021.19.029.292s.015.2.02.292c0,.2.018.414.026.627v.423c.02,1.231-.038,2.435-.055,2.744v.076s.292,5.177.6,6.836c.041.219.07.44.091.668a1.488,1.488,0,0,0,.015.254,13.014,13.014,0,0,1-.2,2.87,31.547,31.547,0,0,1-.464,3.555,2.276,2.276,0,0,0-.417,1.377v.023a4.49,4.49,0,0,0,1.531,3.453l.14.137.169-.064c1.365-.487,2.718-.995,4.069-1.511.717-.277,1.435-.554,2.149-.84q2.648-1.047,5.25-2.152h0a.333.333,0,0,1-.166-.21,9.5,9.5,0,0,1,.213-3.255c.082-.338.837-7.533.837-7.533a9.317,9.317,0,0,1,.093-3.229c.385-.968-.467-4.716-.467-4.716a.834.834,0,0,1,.233-1.015c.525-.554.327-5.5.327-5.5s-.047-2.5-.047-3.144a11.533,11.533,0,0,1,1.068-3.792c.507-.787.19-3.237.19-3.237h0l.029-.187a1.836,1.836,0,0,1,.041-.26l.044-.248a34.274,34.274,0,0,1,.9-4.01c.607-1.94,1.3-5.358,1.3-5.358l4.069-10.911h0l.134-.338.05-.134a17.729,17.729,0,0,1,2,7.116,41.2,41.2,0,0,1,.376,5.221,62.889,62.889,0,0,0,.417,6.329s.6,7.487.6,7.808.747,6.081,1.213,6.956-.467,3.558-.744,3.835.093,7.07.093,7.07-.7,5.358-.84,6.466c-.026.2-.067.5-.111.875,4.666-2.24,9.289-4.605,13.74-7.175.192-.108.382-.216.583-.332l.032-6.629a16.748,16.748,0,0,0-.047-4.346c-.373-1.251-.744-3.646-.23-4.293s.047-3.649.047-3.649,0-6.332.7-7.9.467-11.5.467-11.5l.184-6.516s1.484-1.406,1.167-8.688V305.5c1.622-.1,3.45-.16,3.727.067.443.356,2.94,1.972,4.873,1.569h0a2.371,2.371,0,0,0,.893-.37,26.249,26.249,0,0,0,2.333-1.8L889.06,292.5h0l-.079-1.385c.14.213.263.4.367.583.292.443.452.715.452.715,0-1.939,5.492-8.222,5.492-8.222s5.119-6.606,6.233-7.393,3.3-4.944,3.3-4.944a20.158,20.158,0,0,1,1.117-2.31C906.442,268.7,904.759,266.485,904.946,265.978Zm-16.376,8.869a2.9,2.9,0,0,1-.618,1.245c-.023-.292-.047-.563-.07-.855v-.076a94.568,94.568,0,0,1-.516-9.464,11.276,11.276,0,0,0,.192-2.386h0c.021-1.117,0-2.182,0-2.182h0l.052-.073a23.3,23.3,0,0,0,3.853,6.317s.513,1.479,1.117,1.525.37,1.939.37,1.939a2.2,2.2,0,0,0-.793.292,6.932,6.932,0,0,0-.822.557h0C890,272.7,888.6,274.374,888.57,274.847Z" transform="translate(-581.706 -166.6)"/><path class="c" d="M837,404.282s1.7-8.9,7.151-8.942l3.99,8.207-2.683,1.823S839.695,405.554,837,404.282Z" transform="translate(-600.343 -301.096)"/><path class="d" d="M848.129,403.557l-2.672,1.835a31.532,31.532,0,0,1-6.97-.583,7.959,7.959,0,0,1-1.487-.5.539.539,0,0,1,.029-.143.2.2,0,0,1,0-.035,20.245,20.245,0,0,1,1.032-3.267c.166-.4.359-.811.563-1.222a8.347,8.347,0,0,1,3.459-3.791,4.729,4.729,0,0,1,1.817-.475h.242l.09.181,1.347,2.774Z" transform="translate(-600.343 -301.117)"/><path class="c" d="M1020.35,488.34s5.731-.548,6.236-.137,3.759,2.523,5.687,1.193.641-5.961.641-6.145-.184-6.74-.184-6.74l-3.439-4.631-4.311-8.114-8.8-.875.228,12.885-.044,6.6Z" transform="translate(-727.264 -348.944)"/><path class="d" d="M1020.35,488.34s5.731-.548,6.236-.137,3.759,2.523,5.687,1.193.641-5.961.641-6.145-.184-6.74-.184-6.74l-3.439-4.631-4.311-8.114-8.8-.875.228,12.885-.044,6.6Z" transform="translate(-727.264 -348.944)"/><path class="e" d="M825.8,374.015s-.452,5.594-3.952,5.681a27.434,27.434,0,0,1-2.316-1.59c-3.062-2.289-7.918-6.693-6.577-10.791,1.925-5.868,11.278,4.958,11.278,4.958l.72.8Z" transform="translate(-583.147 -280.01)"/><path class="d" d="M841.619,392.232s-.452,5.594-3.952,5.681a27.434,27.434,0,0,1-2.316-1.59l-.292-.382a4.555,4.555,0,0,0,1.91.516,2.561,2.561,0,0,0,2.494-1.572,20.266,20.266,0,0,0,.965-2.219,6.677,6.677,0,0,0,.35-1.377Z" transform="translate(-598.968 -298.227)"/><path class="f" d="M840.771,401.238l-.785-1.009-2.625-3.4L836,395.1a4.553,4.553,0,0,0,1.907.513,2.556,2.556,0,0,0,2.494-1.572,19.682,19.682,0,0,0,.965-2.22c.435-1.237.426-1.872.271-2.088a14.043,14.043,0,0,1,1.517,1.347l.02.018.251.239.1.187,1.327,2.657v.111C844.971,395.131,845.417,400.48,840.771,401.238Z" transform="translate(-599.634 -297.101)"/><path class="g" d="M911.05,569.907a1.338,1.338,0,0,0-.274-.181h-.023c-.548-.23-.047-3.074.047-3.442s.825-7.46.825-7.46a9.664,9.664,0,0,1,.093-3.208c.367-.965-.461-4.666-.461-4.666a.858.858,0,0,1,.23-1.009c.5-.551.321-5.457.321-5.457s-.044-2.473-.044-3.118a11.372,11.372,0,0,1,1.053-3.759c.5-.782.184-3.208.184-3.208h0l.026-.187c.015-.067.026-.155.041-.257l.044-.245a1.2,1.2,0,0,1,.032-.187c.026-.146.055-.292.088-.478.017-.105.038-.216.061-.327.067-.35.146-.735.23-1.129.026-.122.055-.248.085-.37s.07-.292.108-.443c.023-.09.044-.178.07-.268.067-.268.14-.528.219-.776.583-1.928,1.286-5.32,1.286-5.32l4.261-11.193.049-.134.134.26h0a17.168,17.168,0,0,1,1.834,6.8,40.4,40.4,0,0,1,.367,5.18,61.367,61.367,0,0,0,.414,6.282s.583,7.426.583,7.746.735,6.055,1.193,6.924-.458,3.532-.735,3.791.093,7.017.093,7.017-.688,5.317-.828,6.416c-.029.263-.088.7-.149,1.242l.353-.166.05-.026c4.666-2.24,9.289-4.605,13.74-7.175l.038-7.032a16.858,16.858,0,0,0-.044-4.311c-.365-1.237-.735-3.622-.233-4.267s.049-3.619.049-3.619,0-6.282.685-7.84.461-11.418.461-11.418l.181-6.463s1.5-1.426,1.143-8.869c-.038-.793-.1-1.654-.178-2.593-.254-2.809-.51-5.352-.744-7.554-.02-.19-.041-.376-.061-.557-.023-.245-.053-.487-.076-.723-.055-.5-.108-.977-.16-1.432-.017-.134-.032-.265-.047-.4q-.114-.98-.213-1.808c-.023-.216-.052-.429-.076-.63-.038-.292-.073-.583-.1-.855a1.456,1.456,0,0,0-.026-.192,2.441,2.441,0,0,0-.041-.335c-.152-1.19-.242-1.84-.242-1.84h-.041l-4.611.041-10.065.1h-.294l-5.25.05h-.321l-2.52.026h-.429l-5.25.05h-.318l-2.155,8.884-4.4,10.088s-.067,1.105-.222,2.184v.064a.211.211,0,0,1-.017.1.762.762,0,0,0-.026.163,5.67,5.67,0,0,1-.37,1.426,3.564,3.564,0,0,0-.292,1.006,5.889,5.889,0,0,0-.067,1.117h0V510s-.35,1.59-.554,2.943c-.038.26-.073.51-.093.744a4.7,4.7,0,0,0-.041.855,4.781,4.781,0,0,1-.032.875,2.464,2.464,0,0,1-.038.321c-.143,1.073-.432,2.275-.432,2.275l-.828,7.98a.171.171,0,0,1,0,.026v.333a.92.92,0,0,1-.018.21c0,.19-.029.414-.05.677a2.547,2.547,0,0,1-.017.292,1.519,1.519,0,0,1-.018.277v.152a1.368,1.368,0,0,1-.015.23,1.125,1.125,0,0,0,0,.222v.207c-.023.429-.052.893-.073,1.362v.449a3.367,3.367,0,0,1-.02.449v2.992a7.965,7.965,0,0,0,.07.974c.029.216.052.438.067.665v1.814c-.073,1-.21,1.817-.23,1.945h0v.274c0,.073.017.166.026.268v.146h0a.576.576,0,0,0,.018.169c.018.058,0,.055,0,.087,0,.1.018.213.029.327s.023.236.035.359l.017.23c0,.111.023.228.032.341v.117c0,.079.018.155.023.236l.026.359c0,.079.018.16.023.239v.123l.038.472a1.258,1.258,0,0,0,.015.233c0,.122.017.248.029.365s0,.268.021.391a2.512,2.512,0,0,1,.017.356,5.175,5.175,0,0,1,0,.957,22.355,22.355,0,0,0-.455,2.3c0,.091-.026.181-.035.274a.969.969,0,0,0,0,.163l-.018.219c0,.175-.02.353-.02.525a4.02,4.02,0,0,0,.131,1.1,6.181,6.181,0,0,1,.16.968c.023.187.038.385.05.583s.017.414.026.627v.423c.017,1.385-.058,2.709-.058,2.709s0,.023,0,.035v.023c.029.583.292,5.183.583,6.728a7.037,7.037,0,0,1,.1.828,1.482,1.482,0,0,0,.015.254,13.36,13.36,0,0,1-.207,2.68,32.035,32.035,0,0,1-.566,3.561,2.489,2.489,0,0,0-.411,1.6v.023a4.532,4.532,0,0,0,1.514,3.208l.327.327c1.365-.487,2.718-.995,4.069-1.511.717-.277,1.435-.554,2.149-.84q2.648-1.047,5.25-2.152Z" transform="translate(-643.296 -364.351)"/><path class="e" d="M988.445,286.421l-6.787,7.248s-8.709-3.5-7.793-4.666c.356-.461.292-1.916.093-3.523-.321-2.54-1.009-5.466-1.009-5.466s15.221-2.476,13.935.093a4.212,4.212,0,0,0-.1,3.045A11.542,11.542,0,0,0,988.445,286.421Z" transform="translate(-696.642 -218.644)"/><path class="d" d="M986.885,280.068c-.467.936-.691,1.027-.4,2.042-1.989,2.135-4.521,4.471-7.668,4.471a10.862,10.862,0,0,1-4.859-1.137c-.321-2.54-1.009-5.466-1.009-5.466S988.171,277.5,986.885,280.068Z" transform="translate(-696.643 -218.617)"/><path class="e" d="M977.477,240.162a10.914,10.914,0,1,1-21.827,0V240a10.913,10.913,0,1,1,21.826.158Z" transform="translate(-684.388 -183.389)"/><path class="d" d="M961.354,499.016c-1.458,0-6.259.052-11.637.137h-.067l-1.776.029h-.055c-6.378.1-12.664-1.143-15.186-.907-5.366.5,1.925-4.958,1.925-4.958a44.914,44.914,0,0,0,12.22,1.237l1.543-.082c4.873-.274,9.773-.732,12.334-1.5C960.832,494.393,961.092,496.455,961.354,499.016Z" transform="translate(-666.687 -370.252)"/><path class="h" d="M961.354,498.076c-1.458,0-6.259.05-11.637.137h-.067l-1.776.029h-.055c-6.378.1-12.664-1.143-15.186-.907-5.366.5,1.925-4.958,1.925-4.958a44.843,44.843,0,0,0,12.22,1.234l1.543-.079c4.873-.274,9.773-.735,12.334-1.5C960.832,493.453,961.092,495.521,961.354,498.076Z" transform="translate(-666.687 -369.586)"/><path class="d" d="M946.7,310.977l-8.437,3.943-6.507,50.333s3.85-1.75,6.052-.642,8.986.093,8.986.093,4.958-.292,5.684.274,9.356-2.292,9.356-2.292,1.557-3.485.365-4.034.367-5.97.367-5.97l-.732-36.314L960.38,311.7l-3.943-2.383-4.034,3.208-1.925.277Z" transform="translate(-667.466 -240.163)"/><path class="f" d="M946.7,309.092l-8.435,3.943-6.51,50.345s3.85-1.75,6.052-.642,8.986.09,8.986.09,4.958-.274,5.684.274,9.356-2.292,9.356-2.292,1.557-3.482.365-4.034.367-5.961.367-5.961l-.732-36.314-1.458-4.666-3.943-2.386-4.034,3.208-1.925.274Z" transform="translate(-667.466 -238.839)"/><path class="d" d="M966.642,319.315s2.432,2.887,2.386,3.485-.137,2.015-.137,2.015l-1.82,3.716s-1.009,4.631-1.009,5.594-1.6,9.307-1.6,9.307l-1.925,12.833L960.1,373.093l2.476,4.264,2.934-2.476L969.4,344.9l.825-5.915s.875-10.637.875-11.736a37.5,37.5,0,0,0-.5-3.99,4.7,4.7,0,0,1,3.074-3.392c2.476-.642-.184-.14-.184-.14l-1.42-1.146-1.24.5S967.377,318.032,966.642,319.315Z" transform="translate(-687.54 -246.723)"/><path class="i" d="M965.659,318.375s2.429,2.887,2.386,3.482-.14,2.018-.14,2.018l-1.835,3.716s-1.009,4.629-1.009,5.591-1.6,9.31-1.6,9.31l-1.928,12.833L959.1,372.15l2.476,4.264,2.934-2.476,3.894-29.979.825-5.915s.875-10.637.875-11.739a37.306,37.306,0,0,0-.5-3.987,4.664,4.664,0,0,1,3.071-3.395c2.488-.642-.181-.137-.181-.137l-1.423-1.146-1.237.5S966.394,317.089,965.659,318.375Z" transform="translate(-686.832 -246.057)"/><path class="d" d="M971.635,303.65s-.368.274-.458,2.109a36.617,36.617,0,0,1-1.377,5.961s4.768-3.3,7.154-2.934Z" transform="translate(-694.411 -236.147)"/><path class="f" d="M971.635,301.76s-.368.277-.458,2.109a36.7,36.7,0,0,1-1.377,5.961s4.768-3.3,7.154-2.934Z" transform="translate(-694.411 -234.808)"/><path class="d" d="M1002.507,298.62l-7.507,6.6s6.329,3.759,7.154,4.666,1.651-8.986,1.651-8.986Z" transform="translate(-712.262 -232.584)"/><path class="f" d="M1003.419,296.73l-7.519,6.6s6.326,3.759,7.151,4.666,1.651-8.989,1.651-8.989Z" transform="translate(-712.899 -231.245)"/><path class="d" d="M923.874,303.481s-.825-.414-1.6.779a5.219,5.219,0,0,1-2.246,1.75s-8.347,1.33-8.668,2.429l-3.9.227s-1.377.166-1.5,3.083-.875,3.161-.875,3.161-1.607,2.844-1.458,4.311a2.388,2.388,0,0,1-1.24,2.2l5.743,14.886s.184,6.145-.875,8.391-3.028,12.2-3.028,12.2.825-.184.779.367-1.009,6.556-1.009,6.556a13.2,13.2,0,0,1-.732,3.208c-.458.825-.5,5.136-.5,5.136L902,375.283s1.75,3.9,4.4,3.345,7.472-10.957,7.472-10.957l3.071-11.231,2.386-11.1.688-7.519,1.1-16.645,1.6-11S924.524,304.26,923.874,303.481Z" transform="translate(-646.385 -235.978)"/><path class="j" d="M922.971,301.594s-.825-.411-1.6.782a5.22,5.22,0,0,1-2.249,1.75s-8.344,1.33-8.665,2.429l-3.9.23s-1.377.184-1.514,3.071-.875,3.164-.875,3.164-1.6,2.844-1.458,4.311a2.386,2.386,0,0,1-1.237,2.2l5.722,14.892s.184,6.145-.875,8.391-3.024,12.2-3.024,12.2.825-.184.779.368-1.009,6.556-1.009,6.556a13.2,13.2,0,0,1-.732,3.208c-.458.825-.5,5.136-.5,5.136l-.729,3.132s1.75,3.9,4.4,3.348,7.475-10.96,7.475-10.96l3.071-11.231,2.386-11.083.685-7.519,1.1-16.642,1.6-11S923.613,302.375,922.971,301.594Z" transform="translate(-645.748 -234.642)"/><path class="d" d="M847.435,402.848l-2.671,1.834a31.531,31.531,0,0,1-6.97-.583l-1.482-.656-.292-.131.306.1a6.053,6.053,0,0,0,3.669.131c3.765-1.266,3.348-7.481,3.208-8.887a1.266,1.266,0,0,0-.029-.265.084.084,0,0,1,0-.018l.023.035a1.665,1.665,0,0,0,.172.242,1.941,1.941,0,0,0,.169.178h0l1.327,2.657v.111Z" transform="translate(-599.648 -300.408)"/><path class="j" d="M857.317,362l-1.283.367-.184,2.625a1.762,1.762,0,0,0-1.925,1.56,6.375,6.375,0,0,1-1.146,2.625s-2.523,2.109-2.66,3.9l-1.56.962s-3.622-.825-4.448-2.292c0,0,1.651,11.829-7.151,8.942,0,0,9.858,4.311,10.316,4.906a5.794,5.794,0,0,0,6.236.875,6.615,6.615,0,0,0,3.348-3.759,38.354,38.354,0,0,0,2.75-4.264c.09-.551,2.155-1.193,2.155-1.193l3.943-9.534Z" transform="translate(-600.314 -277.479)"/><path class="d" d="M1014.91,302.782l1.33-6.052a6.89,6.89,0,0,0,1.193,2.43c.61.458,1.972,1.514,1.972,1.514a11.456,11.456,0,0,0,2.657.919c.685,0,4.4.962,4.862,1.458s2.292.137,2.292.137,1.514.5,2.844.825,1.971,2.523,1.694,3.392a2.651,2.651,0,0,0,.642,2.476,5.871,5.871,0,0,1,.825,2.333,2.689,2.689,0,0,1,1.56,1.33,9.25,9.25,0,0,1,.321,3.208l-6.83,9.624a28.083,28.083,0,0,1-.184,4.538c-.274.825.962,14.857.962,14.857l1.421,24.117a25.34,25.34,0,0,1-2.292,1.788c-.414.184-.825-8.528-.825-8.849s-10.59-15.866-10.59-15.866a14.224,14.224,0,0,1-1.423-2.8c0-.5-1.33-5.133-1.33-5.133L1014,330.11Z" transform="translate(-725.72 -231.245)"/><path class="j" d="M1038.995,316.213c0,.315-.017.525-.017.525l-6.828,9.624h0a28.071,28.071,0,0,1-.181,4.541c-.16.478.189,5.413.513,9.464.23,2.917.449,5.39.449,5.39l.6,10.231.817,13.888a25.673,25.673,0,0,1-2.289,1.788c-.411.184-.825-8.528-.825-8.852s-10.6-15.869-10.6-15.869a14.271,14.271,0,0,1-1.42-2.8c0-.5-1.33-5.136-1.33-5.136l-2.015-8.939.916-27.328.779-6.052a12.953,12.953,0,0,0,1.75,2.429c.6.455,1.969,1.514,1.969,1.514a11.44,11.44,0,0,0,2.66.919c.688,0,4.4.962,4.862,1.458s2.292.137,2.292.137,1.511.5,2.841.825,1.972,2.523,1.7,3.392a2.643,2.643,0,0,0,.642,2.476,5.905,5.905,0,0,1,.825,2.333,2.7,2.7,0,0,1,1.56,1.33A7.873,7.873,0,0,1,1038.995,316.213Z" transform="translate(-727.045 -231.217)"/><path class="d" d="M909.488,783.1c-.715.292-1.432.563-2.15.84-2.249-.656-4.348-1.429-4.348-1.429A59.722,59.722,0,0,1,909.488,783.1Z" transform="translate(-647.086 -575.347)"/><path class="d" d="M999.67,700.6s5.457,1.283,5.778,2.155Z" transform="translate(-715.569 -517.326)"/><path class="d" d="M924.374,714.12s-2.844.826-.09,2.476S924.374,714.12,924.374,714.12Z" transform="translate(-661.319 -526.903)"/><path class="d" d="M970.74,560.318c.321,0,5.32-1.651,7.061-.916a11.583,11.583,0,0,0,3.9.732Z" transform="translate(-695.077 -417.175)"/><path class="d" d="M957.2,574.851l-.049.455-4.276,11.182s-.688,3.392-1.286,5.317a34.854,34.854,0,0,0-.892,3.981l3.791-23.466Z" transform="translate(-680.882 -426.459)"/><path class="g" d="M988.793,501.875l-1.776.029h-.055l-1.041-4.623c.51-.023,1.027-.05,1.543-.082Z" transform="translate(-705.83 -373.248)"/><path class="e" d="M1025.139,483.318l-1.141.942-3.8,3.141s-10.316,5.5-13.156.274c-2.505-4.605,9.19-7.892,12.007-8.609.382-.1.6-.146.6-.146Z" transform="translate(-720.544 -360.299)"/><path class="d" d="M918.87,339.49s2.015.919,2.473,2.2S918.87,339.49,918.87,339.49Z" transform="translate(-658.335 -261.534)"/><path class="d" d="M892.546,386.66s-2.934,3.576-1.75,4.958S892.546,386.66,892.546,386.66Z" transform="translate(-638.249 -294.947)"/><path class="d" d="M1070.424,346.41s-2.75.274-2.844,2.66Z" transform="translate(-763.674 -266.436)"/><path class="d" d="M989.92,453.818c.292-.274,6.6-9.624,8.07-8.8Z" transform="translate(-708.663 -336.247)"/><path class="d" d="M977.477,240.191a10.873,10.873,0,0,1-1.292,5.151H976.1c-.691-.146-1.05-.951-1.578-1.458a2.15,2.15,0,0,0-2.476-.347,2.511,2.511,0,0,0-1.216,2.354c-.35-1.458-.239-3.03-.583-4.5s-1.368-2.96-2.773-2.987c-.607,0-1.312.225-1.75-.23-.265-.274-.318-.706-.516-1.038-1.006-1.625-4.063-.8-5.311.032a32.65,32.65,0,0,1-4.249,2.879,10.913,10.913,0,1,1,21.825.158Z" transform="translate(-684.388 -183.418)"/><path class="k" d="M958.434,222.539c.2.332.251.764.516,1.038.438.452,1.143.219,1.75.23,1.406.023,2.432,1.514,2.774,2.984s.23,3.033.583,4.5a2.511,2.511,0,0,1,1.216-2.351,2.144,2.144,0,0,1,2.473.347c.528.5.875,1.307,1.581,1.458s1.359-.519,1.61-1.248a19.788,19.788,0,0,0,.394-2.284c.312-1.432,1.245-2.6,1.75-3.964a7.175,7.175,0,0,0-.047-5.121c-.344-.875-.854-1.636-1.2-2.5-.525-1.307-.665-2.779-1.307-4.025a4.734,4.734,0,0,0-5.711-2.333c-1,.376-1.864,1.1-2.876,1.426a9.5,9.5,0,0,1-4.206-.087,5.2,5.2,0,0,0-4.083.709c-1.3,1.062-1.654,3.057-2.873,4.223-.513.49-1.149.8-1.689,1.254a2.312,2.312,0,0,0-.945,1.861c.082.951,1.012,1.814.668,2.692a2.126,2.126,0,0,1-.51.671,9.625,9.625,0,0,0-2.219,3.777c2.456.767,5.11-1.939,7.032-3.208C954.375,221.736,957.431,220.911,958.434,222.539Z" transform="translate(-677.609 -169.108)"/><path class="d" d="M1054.689,483.311l-1.14.942c-1.006-1.677-5.139-5.025-5.139-5.025l.178-.172c.382-.1.6-.146.6-.146Z" transform="translate(-750.094 -360.292)"/><path class="f" d="M1056.457,478.073s-.411,1.021-.834,1.9-.875,1.683-.91,1.032c-.047-1.286-5.363-5.6-5.363-5.6l.72-.7.837-.814Z" transform="translate(-750.76 -356.743)"/><path class="d" d="M1056.747,451.885l.6,10.231c-1.423-2.214-5.334-7.892-7.848-7.708l6.1-7a7.838,7.838,0,0,0,.7-.9C1056.529,449.421,1056.747,451.885,1056.747,451.885Z" transform="translate(-750.867 -337.342)"/><path class="d" d="M1058.236,478.073s-.411,1.021-.834,1.9c-1.6-2.193-3.791-4.78-5.541-5.264l.837-.814Z" transform="translate(-752.538 -356.743)"/><path class="j" d="M1061.821,361l1.651,1.283s2.75.047,3.024,2.333,2.8,3.348,2.8,3.348,1.881,1.878,1.881,2.75,1.42,2.429,1.42,2.567,1.376,2.934,1.193,3.439,1.458,2.707.963,3.532a20.248,20.248,0,0,0-1.1,2.292s-2.155,4.127-3.258,4.906-6.142,7.335-6.142,7.335-5.41,6.236-5.41,8.166c0,0-5.273-8.8-8.391-8.575l6.1-7.014s1.053-1.146,1.1-1.835,2.934-3.853,4.311-3.99c0,0,.228-1.881-.368-1.925s-1.1-1.514-1.1-1.514-4.036-4.769-4.083-7.8S1061.821,361,1061.821,361Z" transform="translate(-751.539 -276.771)"/><path class="d" d="M1090.136,376s-3.853,2.841-3.027,3.759S1090.136,376,1090.136,376Z" transform="translate(-777.424 -287.396)"/><path class="d" d="M1098.4,413.735s7.151-2.292,7.875,0Z" transform="translate(-785.505 -313.404)"/><path class="d" d="M922.606,374.08s0,10.453-.9,11.485S922.606,374.08,922.606,374.08Z" transform="translate(-660.17 -286.036)"/><path class="d" d="M1067.11,385.63l1.33,3.736S1068.968,385.7,1067.11,385.63Z" transform="translate(-763.34 -294.218)"/><g class="l" transform="translate(268.482 48.712)"><path d="M954.035,241.845c.335-.86-.542-1.7-.659-2.625a1.75,1.75,0,0,0-.146.828c.058.7.583,1.345.709,1.989a1.159,1.159,0,0,0,.1-.193Z" transform="translate(-951.154 -239.22)"/><path d="M964.205,258.742c-.329-1.458-.233-2.978-.566-4.421s-1.368-2.963-2.774-2.987c-.607,0-1.312.222-1.75-.23-.265-.274-.318-.706-.516-1.038-1-1.625-4.06-.8-5.311.032-1.875,1.245-4.451,3.853-6.857,3.264-.114.277-.222.557-.312.846,2.456.767,5.11-1.939,7.032-3.208,1.251-.831,4.3-1.657,5.311-.029.2.332.251.764.516,1.038.438.452,1.143.219,1.75.23,1.406.023,2.432,1.514,2.774,2.984s.23,3.033.583,4.5A2.49,2.49,0,0,1,964.205,258.742Z" transform="translate(-946.12 -246.242)"/><path d="M1015.057,274.24c-.251.729-.9,1.4-1.61,1.248s-1.05-.951-1.578-1.458a2.153,2.153,0,0,0-2.476-.344,2.494,2.494,0,0,0-1.216,2.219,2.4,2.4,0,0,1,1.079-1.327,2.144,2.144,0,0,1,2.473.347c.528.5.875,1.307,1.581,1.458s1.359-.519,1.61-1.248a6.42,6.42,0,0,0,.251-1.318,4.112,4.112,0,0,1-.114.423Z" transform="translate(-990.077 -263.46)"/><path d="M1034.584,252.3c-.516,1.359-1.458,2.532-1.75,3.961-.064.292-.1.583-.134.875.312-1.423,1.242-2.593,1.75-3.949a6.916,6.916,0,0,0,.423-1.9A6.614,6.614,0,0,1,1034.584,252.3Z" transform="translate(-1007.449 -247.77)"/></g><circle class="m" cx="0.114" cy="0.114" r="0.114" transform="translate(229.244 86.218)"/><path class="n" d="M497.7,584.373s3.208-2.3,6.542-.875c0,0-.933,1.977-5.075,1.951Z" transform="translate(-360 -434.047)"/><path class="n" d="M496,588.09s-.857,3.859,1.75,6.361c0,0,1.458-1.633-.2-5.433Z" transform="translate(-358.702 -437.63)"/><path class="n" d="M481.75,569.767s.12-3.258,7.5-2.462a3.5,3.5,0,0,1-2.421,3.188A4.235,4.235,0,0,1,481.75,569.767Z" transform="translate(-348.702 -422.818)"/><path class="n" d="M476.869,576s-3.062,1.114-.035,7.889a3.49,3.49,0,0,0,2.287-3.287A4.257,4.257,0,0,0,476.869,576Z" transform="translate(-344.273 -429.066)"/><path class="n" d="M465.329,548.447s-.624-5.328,6.895-5.069c0,0,.717,4.818-5.521,6.3Z" transform="translate(-337.061 -405.951)"/><path class="n" d="M447.58,529.028s.8-6.1,8.359-4.579c0,0,.227,5.25-7.081,5.976Z" transform="translate(-324.498 -392.378)"/><path class="o" d="M434.35,508.349s1.493-5.979,8.986-4.483c0,0-1.563,5.372-8.458,5.541Z" transform="translate(-315.126 -377.8)"/><path class="o" d="M421.76,487.536s1.458-6.189,8.682-4.623c0,0-2.17,5.909-8.166,5.649Z" transform="translate(-306.208 -362.948)"/><path class="o" d="M413.39,464.5s1.006-7.533,7.761-6.139c0,0-1.68,6.889-7.221,7.21Z" transform="translate(-300.279 -345.615)"/><path class="o" d="M405.35,441.576s1.263-7.609,8.1-5.673c0,0-2.377,7.236-7.583,6.708Z" transform="translate(-294.584 -329.605)"/><path class="o" d="M400.08,415.441s2.176-7.644,7.414-7.641c0,0-2.217,8.07-6.918,9.137Z" transform="translate(-290.851 -309.922)"/><path class="o" d="M396.45,391.238s2.333-9.19,6.615-8.653c0,0-1.589,7.017-6.416,10.062Z" transform="translate(-288.28 -292.045)"/><path class="o" d="M393.86,366.611s2.222-7.67,6.416-8.131c0,0-1.426,7.516-6.244,10.094Z" transform="translate(-286.445 -274.986)"/><path class="o" d="M391.19,342.837s2.844-7.7,5.614-7.977c0,0-1.076,7.516-5.291,9.21Z" transform="translate(-284.554 -258.255)"/><path class="o" d="M389.13,317.617s1.613-8.309,4.357-9.1c0,0-.12,6.749-4.054,9.7Z" transform="translate(-283.095 -239.597)"/><path class="o" d="M384.42,291.576s1.776-6.641,3.984-7.726c0,0-.149,7.752-3.4,9.309Z" transform="translate(-279.758 -222.122)"/><path class="o" d="M378.642,263l-.852-11.558s4.524,8.575,1.228,13.579Z" transform="translate(-275.062 -199.164)"/><path class="o" d="M358.163,230.746s-3.342-8.333-4.083-8.776c0,0,6.125,5.25,5.833,12.328Z" transform="translate(-258.267 -178.289)"/><path class="n" d="M452.693,560.654s-5.343-.49-4.9,7.017c0,0,4.836.583,6.165-5.676Z" transform="translate(-324.632 -418.191)"/><path class="n" d="M433.526,540.08s-6.145.216-5.349,7.875c0,0,5.191.723,6.618-6.48Z" transform="translate(-310.703 -403.622)"/><path class="n" d="M412.379,520.554s-5.678-2.4-8.989,4.483c0,0,5.235,1.983,9.522-3.412Z" transform="translate(-293.196 -389.503)"/><path class="n" d="M399.679,498.424s-5.818-2.564-8.919,4.159c0,0,6.028,1.82,9.429-3.132Z" transform="translate(-284.249 -373.775)"/><path class="n" d="M389.668,475.241s-5.7-5.04-9.878.438c0,0,5.78,4.1,10.176.72Z" transform="translate(-276.479 -356.195)"/><path class="n" d="M382.422,450.324s-5.737-5.159-9.872.624c0,0,6.375,4.168,10.112.493Z" transform="translate(-271.35 -338.543)"/><path class="o" d="M378.993,420.708s-4.518-6.539-9.473-4.853c0,0,4.69,6.93,9.485,6.416Z" transform="translate(-269.204 -315.431)"/><path class="o" d="M375.938,395.46s-4.617-8.283-8.618-6.661c0,0,3.342,6.373,8.785,8.076Z" transform="translate(-267.645 -296.313)"/><path class="o" d="M373.517,371.225s-4.666-6.478-8.767-5.506c0,0,3.861,6.6,9.269,7.414Z" transform="translate(-265.825 -280.043)"/><path class="o" d="M377.009,343.931s-3.7-7.326-6.489-7.291c0,0,1.928,7.344,6.305,8.548Z" transform="translate(-269.912 -259.515)"/><path class="o" d="M372.707,321.369s-4.083-7.408-6.947-7.312c0,0,2.193,6.384,6.845,7.982Z" transform="translate(-266.54 -243.519)"/><path class="o" d="M373.3,295.428s-3.083-6.142-5.463-6.758c0,0,1.712,7.563,5.215,8.429Z" transform="translate(-268.014 -225.536)"/><path class="o" d="M363.186,267.438,356.46,258s1.995,9.484,7.723,11.243Z" transform="translate(-259.953 -203.811)"/><path class="o" d="M344.065,241.256s-7.583-4.815-7.875-5.626c0,0,4.042,7,11.054,7.988Z" transform="translate(-245.595 -187.965)"/><path class="o" d="M334.764,228.333s-8.79-7.825-10.954-7.735a13.858,13.858,0,0,1,11.141,7.291Z" transform="translate(-236.825 -177.317)"/><path class="p" d="M367.884,265.622l-.309.053c-2.071-12.41-4.666-19.692-7.335-20.5l.09-.292C363.151,245.732,365.761,252.909,367.884,265.622Z" transform="translate(-262.63 -194.517)"/><path class="p" d="M388.926,343.493l-.464.058c-.143-1.167-.262-2.351-.362-3.535-.84-10.307-1.893-19.759-3.071-26.832l.257-.344c1.167,7.084,2.441,16.817,3.284,27.124C388.664,341.156,388.786,342.343,388.926,343.493Z" transform="translate(-280.19 -242.657)"/><path class="p" d="M434.9,470.918a60.816,60.816,0,0,1-17.3-11.812,67.772,67.772,0,0,1-12.964-16.951,79.06,79.06,0,0,1-8.2-27.205l.5.21c2.625,21.442,12.99,35.774,21.084,43.474a60.348,60.348,0,0,0,17.12,11.7Z" transform="translate(-288.266 -314.986)"/><g class="q" transform="translate(128.787 29.13)"><path class="n" d="M548.25,573.435s3.751-1.24,6.5,1.105c0,0-1.479,1.613-5.425.353Z" transform="translate(-524.594 -456.147)"/><path class="n" d="M544.514,574.25s-1.966,3.43-.216,6.6c0,0,1.875-1.129,1.429-5.25Z" transform="translate(-521.281 -456.957)"/><path class="n" d="M536.46,555.021s1.085-3.077,7.875-.12a3.513,3.513,0,0,1-3.261,2.333C538.327,557.526,537.422,556.395,536.46,555.021Z" transform="translate(-516.243 -442.341)"/><path class="n" d="M528.855,558s-3.258.155-2.38,7.522a3.5,3.5,0,0,0,3.159-2.456A4.235,4.235,0,0,0,528.855,558Z" transform="translate(-509.064 -445.446)"/><path class="o" d="M525.35,530.612s.992-5.273,8.09-2.788c0,0-.75,4.812-7.145,4.375Z" transform="translate(-508.373 -423.599)"/><path class="o" d="M514.34,506.9s2.575-5.585,9.333-1.884c0,0-1.339,5.066-8.537,3.6Z" transform="translate(-500.574 -407.015)"/><path class="o" d="M507.93,483.6s3.208-5.264,9.916-1.607c0,0-3.091,4.666-9.724,2.788Z" transform="translate(-496.034 -390.689)"/><path class="o" d="M502,459.891s3.226-5.477,9.668-1.832c0,0-3.829,5-9.485,2.963Z" transform="translate(-491.833 -373.766)"/><path class="o" d="M499.83,435.368s3.208-6.9,9.228-3.552c0,0-3.654,6.075-9.041,4.734Z" transform="translate(-490.296 -355.415)"/><path class="o" d="M499.2,411.019s3.471-6.889,9.423-3c0,0-4.424,6.2-9.239,4.133Z" transform="translate(-489.85 -338.363)"/><path class="o" d="M500.76,385.553s4.351-6.65,9.35-5.089c0,0-4.518,7.046-9.333,6.667Z" transform="translate(-490.955 -319.52)"/><path class="o" d="M503.195,360.812s4.958-8.082,8.89-6.291c0,0-3.608,6.224-9.114,7.7Z" transform="translate(-492.52 -301.128)"/><path class="o" d="M507.966,336.789s4.4-6.658,8.539-5.853c0,0-3.6,6.752-8.965,7.781Z" transform="translate(-495.757 -284.558)"/><path class="o" d="M513.485,312.8s5.008-6.507,7.734-5.947c0,0-3.264,6.854-7.79,7.221Z" transform="translate(-499.929 -267.525)"/><path class="o" d="M518.35,287.287s4.01-7.452,6.868-7.388c0,0-2.123,6.416-6.76,8.055Z" transform="translate(-503.414 -248.453)"/><path class="o" d="M522.6,260.752s3.669-5.81,6.1-6.192c0,0-2.45,7.358-6.017,7.875Z" transform="translate(-506.425 -230.505)"/><path class="o" d="M524.213,228.874l2.625-11.284s1.77,9.528-2.858,13.337Z" transform="translate(-507.403 -204.317)"/><path class="o" d="M521.192,191.985s-.712-8.951-1.292-9.6c0,0,4.3,6.842,1.9,13.5Z" transform="translate(-504.512 -179.383)"/><path class="o" d="M508.291,538.009s-4.958-2.062-6.761,5.25c0,0,4.436,2.01,7.583-3.584Z" transform="translate(-491.5 -431.095)"/><path class="o" d="M495.592,513.3s-5.929-1.622-7.452,5.938c0,0,4.739,2.237,8.248-4.217Z" transform="translate(-482.015 -413.676)"/><path class="o" d="M483.206,488.9s-4.7-3.984-9.916,1.607c0,0,4.407,3.45,10.106-.426Z" transform="translate(-471.496 -395.523)"/><path class="o" d="M477.85,463.769s-4.789-4.179-9.75,1.324c0,0,5.212,3.529,9.934-.19Z" transform="translate(-467.82 -377.621)"/><path class="o" d="M476.7,437.567s-3.94-6.507-9.56-2.523c0,0,4.3,5.641,9.5,3.716Z" transform="translate(-467.14 -357.435)"/><path class="o" d="M477.024,411.7s-3.943-6.629-9.625-2.333c0,0,4.847,5.877,9.508,3.479Z" transform="translate(-467.324 -339.133)"/><path class="o" d="M484.36,380.178s-2.365-7.583-7.6-7.452c0,0,2.418,8.015,7.145,8.962Z" transform="translate(-473.954 -314.206)"/><path class="o" d="M489.017,355s-1.945-9.28-6.247-8.922c0,0,1.295,7.078,5.985,10.322Z" transform="translate(-478.211 -295.322)"/><path class="o" d="M493.994,330.875s-2.529-7.583-6.734-7.875c0,0,1.727,7.455,6.644,9.837Z" transform="translate(-481.392 -278.984)"/><path class="o" d="M505.5,305.667s-1.356-8.1-4.028-8.887c0,0-.344,7.583,3.479,10.039Z" transform="translate(-491.452 -260.411)"/><path class="o" d="M508.176,282.851s-1.7-8.289-4.456-9.041c0,0,.193,6.746,4.162,9.657Z" transform="translate(-493.051 -244.14)"/><path class="o" d="M516.287,258.242s-1.117-6.781-3.208-8.082c0,0-.615,7.732,2.47,9.6Z" transform="translate(-499.645 -227.388)"/><path class="o" d="M514.92,228.52l-3.614-11.01s-.919,9.651,4.028,13.034Z" transform="translate(-498.377 -204.26)"/><path class="o" d="M504.643,197.827s-5.807-6.854-5.833-7.717c0,0,1.776,7.875,8.166,10.914Z" transform="translate(-489.573 -184.852)"/><path class="o" d="M499.556,182.725s-6.063-10.088-8.166-10.645a13.831,13.831,0,0,1,8.458,10.278Z" transform="translate(-484.317 -172.08)"/><path class="p" d="M519.893,228.228l-.309-.044c1.715-12.462,1.394-20.191-.9-21.757l.178-.257C521.293,207.829,521.652,215.453,519.893,228.228Z" transform="translate(-503.648 -196.228)"/><path class="p" d="M502.8,308.948l-.461-.085c.21-1.152.446-2.333.709-3.482,2.263-10.088,4.083-19.427,5.049-26.54l.347-.251c-.98,7.113-2.672,16.782-4.941,26.882C503.247,306.638,503.008,307.8,502.8,308.948Z" transform="translate(-492.074 -247.526)"/><path class="p" d="M519.523,444.118a60.757,60.757,0,0,1-13-16.423,67.688,67.688,0,0,1-7.347-20.042c-1.715-8.785-1.458-18.957.26-28.413l.411.347c-3.864,21.256,1.75,38.02,7.2,47.778A60.154,60.154,0,0,0,519.9,443.631Z" transform="translate(-489.004 -318.821)"/></g><path class="r" d="M160.317,368.185a11.082,11.082,0,0,1-2.126.636,21.371,21.371,0,0,1-3.859.365c.038.341.067.659.1.948.07.793.111,1.339.111,1.339l-1.368-.093-11.281-.77-6.6-.977a12.3,12.3,0,0,0,1.035,1.216,5.457,5.457,0,0,0,1.318,1.024s5.953,4.821,6.982,4.865c.146,0,.193.146.169.376,2.505,0,10.3.365,8.134,4.7a3.456,3.456,0,0,1-1.77,1.724c-2.5,1.059-6.27-.846-8.213-2.015-.19.37-.37.715-.531,1.009-.33.621-.56,1.032-.56,1.032l-.2-.14-10.01-7.128-2.193-1.861a7.653,7.653,0,0,1-1.9-.329h0l-.292-.093a.559.559,0,0,0-.032.079,4.078,4.078,0,0,0-.178.7v.105a8.194,8.194,0,0,0-.082.82c0,.187-.015.385-.015.583a54.963,54.963,0,0,0,1.575,10.357s4.127,10.526,2.663,12.955h0a1.094,1.094,0,0,1-.292.315,2.9,2.9,0,0,0-.986,1.829c-.545,2.578.411,6.513.411,6.513s-.088.146-.236.373a11.279,11.279,0,0,1-1.085,1.458c-.061.07-.125.143-.192.21a5.08,5.08,0,0,1-.583.525c.038.114.079.23.12.356s.093.321.134.5a7.111,7.111,0,0,1-.365,4.29,11.82,11.82,0,0,0-.735,3.083h0a23.582,23.582,0,0,0,.149,5.8c-.044-.023-.082-.047-.125-.067q-4.838-2.529-9.54-5.282c-.919-.531-1.832-1.073-2.739-1.619q-1.674-1.009-3.334-2.042-2.187-1.365-4.375-2.8l-.682-.455-.262-.178c-.37-.248-.735-.5-1.1-.747a56.013,56.013,0,0,1-4.124-6.125c-.207-.37-.394-.723-.548-1.047v-.017l-.1-.213-.411-.146h0c-.773-.271-1.263-.461-1.263-.461h0a14.309,14.309,0,0,0,.507-4,12.1,12.1,0,0,0-3.742-8.93c-4.421-4.179-5.031-8.306-5.1-9.89v-.292a3.651,3.651,0,0,1,.018-.4l.338-.324c-.857-.172-1.662-.251-1.662-.251s2.934-10.616,7.875-14.16a23.182,23.182,0,0,0,5.929-7.169,108.654,108.654,0,0,1,8.831-12.946l.89-1.123.26-.33.055-.067.07-.093q-.181-.274-.367-.542l-.082-.12a2.968,2.968,0,0,1-.668-1.864V341a2.238,2.238,0,0,1,.064-.344.33.33,0,0,0,.035.053c.417-1.213,2.024-1.75,3.208-2.421,2.791-1.569,3.981-5,4.579-8.2.464-2.485.849-5.27,2.774-6.865,1.242-1.027,2.917-1.365,4.174-2.383a7.821,7.821,0,0,0,1.773-2.278c.292-.5.542-1.009.814-1.5a15.182,15.182,0,0,1,5.037-5.678,8.369,8.369,0,0,1,7.271-.962c.913.347,1.75.875,2.625,1.263a10.218,10.218,0,0,0,1.668.519,29.268,29.268,0,0,1,5.331,1.269c2.721,1.207,4.491,3.879,6.107,6.416a30.575,30.575,0,0,1,2.9,5.162v-.2a7.4,7.4,0,0,1,.583,2.683,4.084,4.084,0,0,1-.125,1.167,3.342,3.342,0,0,1-1.814,2.079l-.137.067a5.836,5.836,0,0,1-.566.254c-.029.16-.061.324-.1.481-.015.067-.032.137-.05.2-.038.163-.082.324-.128.484a11.223,11.223,0,0,1-3.5,5.349,11.763,11.763,0,0,1-3.914,2.217c-.1.035-.21.061-.312.093a2.514,2.514,0,0,1-.367.68,1.964,1.964,0,0,1-.4.382,2.41,2.41,0,0,1-.292.169.389.389,0,0,1-.079.038,3.816,3.816,0,0,1-3.5-.6c-.053-.035-.1-.076-.152-.114a3.347,3.347,0,0,1-.055.522c-.029.181-.05.292-.082.443s-.044.224-.064.332-.035.181-.052.265l-.035.149a22.912,22.912,0,0,1-3.249,7.9,11.252,11.252,0,0,1-.738.995l-.723,1.1v.149a12.554,12.554,0,0,1-1.875,6.938,20.231,20.231,0,0,1-1.3,1.951l.163.1c1.633.93,4.853,2.584,6.889,2.444,0,0,7.7.995,8.592.5.123-.07.242.026.353.233,1.245-.758,4.109-2.365,6.37-2.578,1.581-.152,2.867.376,3.106,2.333S161.968,367.477,160.317,368.185Z" transform="translate(-70.71 -240.626)"/><path class="s" d="M147.518,630.218a6.393,6.393,0,0,1,.42,5.608,14.246,14.246,0,0,0-.715,5.614c-.919-.531-1.832-1.073-2.739-1.619q-1.674-1.009-3.334-2.042-2.187-1.365-4.375-2.8l-.682-.455-.263-.178a.546.546,0,0,0-.085-.117,52.959,52.959,0,0,1-4.022-6.16c-.245-.455-.458-.875-.627-1.26v-.021a2.454,2.454,0,0,1-.341-1.4,2.875,2.875,0,0,1,1.415-1.75c1.68-.875,4.375-.067,7.04,1.219a48.679,48.679,0,0,1,6.574,4l.236.172.023.018c.875.621,1.382,1.032,1.382,1.032A1.384,1.384,0,0,1,147.518,630.218Z" transform="translate(-100.058 -462.553)"/><path class="t" d="M146.033,628.895a6.393,6.393,0,0,1,.42,5.614,14.254,14.254,0,0,0-.715,5.617q-1.377-.8-2.739-1.622-1.677-1.009-3.334-2.042c-1.458-.913-2.917-1.846-4.36-2.8l-.682-.455-.262-.178a.631.631,0,0,0-.085-.117,52.426,52.426,0,0,1-4.022-6.16c-.245-.455-.458-.875-.627-1.26v-.017a2.462,2.462,0,0,1-.341-1.406,2.884,2.884,0,0,1,1.415-1.75c1.68-.875,4.375-.067,7.04,1.219a48.681,48.681,0,0,1,6.574,4l.236.172.023.018c.875.621,1.382,1.032,1.382,1.032S145.981,628.81,146.033,628.895Z" transform="translate(-99.016 -461.618)"/><path class="s" d="M175.47,639.164a7.122,7.122,0,0,1-.411,1.458,11.533,11.533,0,0,0-.662,2.625h0a23.191,23.191,0,0,0,.023,5.737q-4.839-2.529-9.54-5.282c-.919-.531-1.832-1.073-2.739-1.619a8.42,8.42,0,0,0-.825-3.252,58.073,58.073,0,0,1-4.427-6.758c-.2-.35-.37-.688-.531-1.009v-.015c-.061-.128-.12-.251-.175-.373a3.331,3.331,0,0,1-.5-1.823,3.365,3.365,0,0,1,1.2-1.732c2.587-1.89,7.965.668,12.095,3.208l.1.061c.782.487,1.522.968,2.187,1.417l.388.263c1.709,1.167,2.844,2.074,2.844,2.074a6.211,6.211,0,0,1,.674,1.394,7.4,7.4,0,0,1,.242.846A7.049,7.049,0,0,1,175.47,639.164Z" transform="translate(-117.715 -464.814)"/><path class="d" d="M131.732,628.046a28.989,28.989,0,0,0,6.953,1.75,3.3,3.3,0,0,0,.528-.026h0a60.935,60.935,0,0,1,8.286.405c1.359.12,2.669.245,3.751.356l2.718.292v-1.05c-.755-.519-1.633-1.1-2.572-1.68-4.144-2.561-9.589-5.177-12.2-3.272-3.672-1.773-7.4-2.625-8.458.531A5.676,5.676,0,0,0,131.732,628.046Z" transform="translate(-100.051 -462.525)"/><path class="u" d="M99.246,547.774c.058,1.572.647,5.652,4.868,9.773,5.384,5.25,3.089,12.8,3.089,12.8s6.416,2.52,9.184,2.587a3.31,3.31,0,0,0,.528-.026c1.66-.23,8.257.379,12.048.761l2.718.292V551.641L101.95,544.42,99.258,547.1a5.247,5.247,0,0,0-.012.671Z" transform="translate(-77.752 -406.696)"/><path class="v" d="M135.46,630.91" transform="translate(-103.408 -467.961)"/><g class="l" transform="translate(21.488 137.738)"><path d="M180.006,642.778l.487.05v.239l-2.718-.292c-2.721-.274-6.88-.665-9.624-.779C170.049,641.827,176.334,642.408,180.006,642.778Z" transform="translate(-148.052 -613.531)"/><path d="M99.257,547.153l2.692-2.683,1.8.435-2.243,2.249a5.249,5.249,0,0,0,0,.671c.058,1.572.647,5.649,4.868,9.773,5.384,5.25,3.089,12.795,3.089,12.795a50.733,50.733,0,0,0,8.35,2.514,7.239,7.239,0,0,0-.875.05,3.3,3.3,0,0,1-.528.026c-2.768-.07-9.184-2.59-9.184-2.59s2.3-7.545-3.089-12.795c-4.241-4.124-4.83-8.2-4.888-9.765A5.248,5.248,0,0,1,99.257,547.153Z" transform="translate(-99.24 -544.47)"/></g><path class="s" d="M303,494.676s8.992-6.236,9.648-.624S303,498.876,303,498.876Z" transform="translate(-222.085 -369.359)"/><path class="w" d="M233.909,487.7s4.862,3.208,7.554,3.019c0,0,7.35.986,8.2.493s1.38,7.122,1.38,7.122l-12.077-.855-7.746-1.181s-3.873-2.362-3.873-4.4S233.909,487.7,233.909,487.7Z" transform="translate(-168.498 -366.519)"/><path class="x" d="M233.909,487.7s4.862,3.208,7.554,3.019c0,0,7.35.986,8.2.493s1.38,7.122,1.38,7.122l-12.077-.855-7.746-1.181s-3.873-2.362-3.873-4.4S233.909,487.7,233.909,487.7Z" transform="translate(-168.498 -366.519)"/><path class="s" d="M268.819,543.315s10.934-.452,8.484,4.64-10.733-1.091-10.733-1.091Z" transform="translate(-196.279 -405.906)"/><path class="y" d="M236.58,464.426s8.86-6.629,7.615-14.7-7.615,6.171-7.615,6.171Z" transform="translate(-175.036 -337.864)"/><path class="s" d="M245,353.434a11.211,11.211,0,0,0,7,10.38,10.049,10.049,0,0,0,1.441.478,11.379,11.379,0,0,0,1.59.292c.385.038.773.058,1.167.058a11.037,11.037,0,0,0,3.678-.639A11.2,11.2,0,1,0,245,353.434Z" transform="translate(-181 -263.471)"/><path class="d" d="M99.246,547.774c1,.184,2.243.522,2.243,1.041,0,.875,14,5.6,14,5.6s-.525,1.222.875,3.325,12.783,14.177,12.783,14.177l-.038.356-.146,1.391-.694,6.653s4.375-1.575,5.775-1.4a1.905,1.905,0,0,0,1.4-.653,6.708,6.708,0,0,0-.913-2.237s-1.135-.893-2.847-2.074V551.641L101.95,544.42,99.258,547.1a5.247,5.247,0,0,0-.012.671Z" transform="translate(-77.752 -406.696)"/><path class="x" d="M94.94,440.811s3.5.347,3.5,1.225,14,5.6,14,5.6-.525,1.222.875,3.325S126.1,465.141,126.1,465.141l-.875,8.4s4.375-1.575,5.775-1.4c.627.079,1.318-.5,1.89-1.167a12.21,12.21,0,0,0,1.263-1.8s-1.578-6.655.525-8.23S132.4,447.82,132.4,447.82s-1.98-8.213-1.4-11.736a4.281,4.281,0,0,1,.169-.691.21.21,0,0,1,.026-.079c1.248-3.366,14.676-31.6,14.676-31.6a20.1,20.1,0,0,0-.169-2.394c-.026-.222-.061-.452-.1-.682a11.724,11.724,0,0,0-.271-1.245c-.076-.268-.158-.525-.254-.77-.414-1.067-1.05-1.887-2-1.907a5.815,5.815,0,0,0-3.5-1.476,15.344,15.344,0,0,0-7.875,1.476c-8.225,3.5-10.149,3.675-10.149,3.675l-4.136,5.416-.852,1.114a107.123,107.123,0,0,0-8.432,12.8,22.865,22.865,0,0,1-5.661,7.09C97.743,430.312,94.94,440.811,94.94,440.811Z" transform="translate(-74.706 -300.967)"/><path class="d" d="M160.743,482.3s-11.684,2.887-16.213,10.173Z" transform="translate(-109.833 -362.694)"/><path class="d" d="M183.6,526.18s-2.208,14.833-1.6,15.95S183.6,526.18,183.6,526.18Z" transform="translate(-136.305 -393.776)"/><path class="d" d="M189.771,543.223c.852,1.114,4.3,9.715,4.3,9.715l-1,14.44-.875,8.4s4.375-1.575,5.778-1.4c.624.079,1.318-.5,1.89-1.167-.91-4.92-2.852-15.213-3.208-15.411-.464-.262-2.826-8.534-2.951-10.832s-3.415-7.478-3.415-7.478S188.916,542.109,189.771,543.223Z" transform="translate(-141.681 -403.204)"/><path class="d" d="M201.644,436.349c.213.656.551,4.462.551,4.462a5.132,5.132,0,0,0,4.351,4.8,4.278,4.278,0,0,1,.169-.691c1.05-2.972,14.7-31.679,14.7-31.679a18.849,18.849,0,0,0-.545-4.322c-2.972-.875-7.679.472-7.679.472-1.359-.178-5.8,8.645-5.8,8.645s-2.957,6.758-3.281,7.676,0,2.432-.131,2.957-1.514.98-1.709,1.706-.067,2.161-.2,2.424A10.554,10.554,0,0,0,201.644,436.349Z" transform="translate(-150.25 -310.507)"/><path class="x" d="M205.249,434.557c.216.656.551,4.462.551,4.462a4.955,4.955,0,0,0,3.5,4.559,7.381,7.381,0,0,0,2.1.42l2.112,1.832,9.744,7.189s3.634-6.708,2.648-6.752-6.67-4.812-6.67-4.812c-1.75-.927-3.482-4.031-4.29-5.623a4.531,4.531,0,0,0,.1-.583c.353-2.972,7.7-14.349,7.7-14.349a21.525,21.525,0,0,0,3.949-9.543c.032-.14.053-.292.079-.435a4.759,4.759,0,0,0,.058-.583c.131-2.383-1.6-3.249-3.66-3.456h0a14.823,14.823,0,0,0-3.208.1,23.1,23.1,0,0,0-3.15.618c-.875-.114-3.051,3.546-4.474,6.139h0c-.767,1.406-1.318,2.505-1.318,2.505s-2.972,6.76-3.3,7.679,0,2.429-.131,2.957-1.514.98-1.706,1.706-.07,2.161-.2,2.424A10.706,10.706,0,0,0,205.249,434.557Z" transform="translate(-152.805 -309.24)"/><path class="d" d="M166.61,373.67c1.849,1.9,4.865,1.907,7.274.942s4.454-2.727,6.691-4.083c1.458-.875,2.987-1.613,4.416-2.526h0c.21-.137.414-.274.612-.414,1.651-1.167,3.077-2.663,4.783-3.733a7.443,7.443,0,0,1,3.844-1.231,4.355,4.355,0,0,1,1.834.385,2.371,2.371,0,0,1,.292.152,7.972,7.972,0,0,1,1.546,1.167c.481.435.945.9,1.458,1.3.032-.14.052-.292.079-.435a4.756,4.756,0,0,0,.058-.583c.385.038.773.058,1.167.058a11.04,11.04,0,0,0,3.684-.653.819.819,0,0,1,.026-.143c.42-2.2,1.167-4.541,2.952-5.781,1.03-.72,2.674-1.012,4.1-1.56a11.2,11.2,0,1,0-21.1,1.213,15.344,15.344,0,0,0-7.875,1.476c-8.225,3.5-10.149,3.675-10.149,3.675l-4.112,5.425a4.647,4.647,0,0,1,1,2.152C169.273,371.95,167.85,372.967,166.61,373.67Z" transform="translate(-125.473 -263.484)"/><path class="z" d="M207.346,338.254c-1.776,1.242-2.532,3.576-2.952,5.778a4.543,4.543,0,0,1-.677,1.96c-.942,1.222-2.838.875-4.069,0s-2.2-2.2-3.573-2.826c-1.826-.822-3.969-.222-5.676.849s-3.135,2.567-4.786,3.73c-1.6,1.126-3.374,1.928-5.037,2.94-2.234,1.362-4.276,3.121-6.688,4.083s-5.425.962-7.271-.939c1.24-.688,2.663-1.706,2.567-3.179s-1.814-2.578-1.7-4.083,1.893-2.106,3.167-2.847c2.669-1.552,3.791-4.958,4.375-8.108.443-2.459.808-5.209,2.648-6.787,1.184-1.018,2.791-1.35,3.984-2.357a12.322,12.322,0,0,0,2.473-3.739,14.851,14.851,0,0,1,4.806-5.62,7.759,7.759,0,0,1,6.947-.948c.875.341,1.657.875,2.514,1.245,2.129.922,4.57.8,6.682,1.767,2.6,1.2,4.287,3.838,5.833,6.346,1.321,2.144,3.905,5.938,3.182,8.709C213.363,337.056,209.274,336.9,207.346,338.254Z" transform="translate(-125.48 -244.693)"/><g class="l" transform="translate(41.128 85.717)"><path d="M169.587,420.041a1.812,1.812,0,0,1,.061-.341,5.238,5.238,0,0,1,1.111,2.333,2.016,2.016,0,0,1-.05.6A4.566,4.566,0,0,1,169.587,420.041Z" transform="translate(-168.706 -404.067)"/><path d="M173.338,388.181c2.412-.968,4.454-2.727,6.688-4.083,1.662-1.012,3.441-1.814,5.037-2.94,1.651-1.167,3.08-2.663,4.786-3.73s3.85-1.671,5.676-.849c1.374.621,2.333,1.937,3.573,2.826s3.127,1.237,4.069.015a4.494,4.494,0,0,0,.677-1.957c.42-2.2,1.167-4.538,2.952-5.781,1.931-1.347,6.017-1.2,6.758-4.039a4.374,4.374,0,0,0,.1-1.543,6.2,6.2,0,0,1,.432,3.643c-.744,2.844-4.83,2.692-6.76,4.039-1.773,1.242-2.532,3.576-2.952,5.781a4.514,4.514,0,0,1-.674,1.957c-.945,1.222-2.841.875-4.083-.015s-2.2-2.2-3.573-2.826c-1.826-.822-3.969-.219-5.676.849s-3.135,2.567-4.786,3.73c-1.6,1.129-3.374,1.928-5.037,2.94-2.234,1.365-4.276,3.121-6.688,4.083s-5.425.96-7.271-.942a9.077,9.077,0,0,0,1.353-.9A7.775,7.775,0,0,0,173.338,388.181Z" transform="translate(-166.58 -366.1)"/></g><path class="aa" d="M474.9,309.8l-11.958-12.025a6.349,6.349,0,0,0-9.018-.061l-75.089,74.453-31.749-32a6.332,6.332,0,0,0-8.954-.064l-12.086,11.958a6.416,6.416,0,0,0-.061,9.018L374.2,409.672a6.416,6.416,0,0,0,9.018.064l91.614-90.925a6.349,6.349,0,0,0,.067-9.015Z" transform="translate(-237.078 -230.63)"/><g class="ab" transform="translate(211.846 175.577)"><path class="o" d="M759.888,674.222s-8.919-.537-7.875,5.713a1.526,1.526,0,0,0,.793,1.6s0-.464.913-.306a4.022,4.022,0,0,0,.971.047,2,2,0,0,0,1.184-.487h0s2.505-1.035,3.482-5.136c0,0,.72-.892.691-1.123l-1.5.644a2.687,2.687,0,0,1,.111,1.986s-.049-1.948-.338-1.9c-.058,0-.782.376-.782.376a4.5,4.5,0,0,1,.216,3.267s.254-2.333-.493-3.129l-1.059.618a4.684,4.684,0,0,1,.332,3.547s.181-2.444-.557-3.395l-.96.747s.971,1.925.379,3.249c0,0-.076-2.846-.583-3.062a5.826,5.826,0,0,0-.968,1.047s.665,1.4.254,2.135c0,0-.254-1.9-.461-1.9a6.289,6.289,0,0,0-.924,2.115,4.555,4.555,0,0,1,.72-2.237,2.525,2.525,0,0,0-1.28.665s.128-.875,1.487-.968a5.875,5.875,0,0,1,.875-1.009,5.481,5.481,0,0,0-2.17.251,2.429,2.429,0,0,1,2.415-.458l.948-.773a7.817,7.817,0,0,0-2.532.023,3.092,3.092,0,0,1,2.788-.2l1.033-.615a9.4,9.4,0,0,0-2.421-.21,3.717,3.717,0,0,1,2.724.044l.738-.333s-1.111-.219-1.438-.251-.341-.125-.341-.125a3.858,3.858,0,0,1,2.085.233A9.429,9.429,0,0,0,759.888,674.222Z" transform="translate(-751.928 -674.211)"/></g><g class="ab" transform="translate(202.174 131.932)"><path class="o" d="M720.395,524.569s-4.529,7.7,1.519,9.6a1.529,1.529,0,0,0,1.791.023s-.405-.225.14-.954a4.177,4.177,0,0,0,.484-.843,2.041,2.041,0,0,0,.1-1.277h0s.213-2.7-3-5.433c0,0-.47-1.05-.686-1.129l-.111,1.633a2.7,2.7,0,0,1,1.82.8s-1.75-.84-1.849-.563c-.017.058-.02.875-.02.875a4.45,4.45,0,0,1,3.01,1.289s-1.96-1.283-3.013-.98l.07,1.225a4.681,4.681,0,0,1,3.313,1.312s-2.1-1.272-3.278-1.047l.23,1.2s2.158,0,3.065,1.135c0,0-2.57-1.222-2.992-.875a6.672,6.672,0,0,0,.49,1.339s1.549.041,2.018.744c0,0-1.805-.636-1.907-.455a6.421,6.421,0,0,0,1.458,1.785,4.564,4.564,0,0,1-1.665-1.659,2.513,2.513,0,0,0,0,1.458s-.732-.519-.184-1.75a5.8,5.8,0,0,1-.5-1.24,5.532,5.532,0,0,0-.761,2.042,2.438,2.438,0,0,1,.688-2.362l-.257-1.2a7.9,7.9,0,0,0-1.129,2.269s-.265-1.111,1.088-2.575l-.082-1.2a9.3,9.3,0,0,0-1.283,2.059,3.709,3.709,0,0,1,1.272-2.406l.041-.808s-.7.892-.875,1.167-.265.248-.265.248a3.837,3.837,0,0,1,1.152-1.75A9.74,9.74,0,0,0,720.395,524.569Z" transform="translate(-718.766 -524.56)"/></g><g class="ab" transform="translate(173.848 70.481)"><path class="o" d="M623.268,313.866s-4.526,7.705,1.519,9.6a1.522,1.522,0,0,0,1.791.023s-.405-.225.143-.954a4.156,4.156,0,0,0,.481-.843,2.021,2.021,0,0,0,.1-1.277h0s.216-2.7-3-5.433c0,0-.47-1.047-.685-1.126l-.111,1.63a2.7,2.7,0,0,1,1.82.8s-1.75-.84-1.846-.563c-.02.058-.02.875-.02.875a4.444,4.444,0,0,1,3.007,1.289s-1.96-1.283-3.013-.98l.073,1.225a4.675,4.675,0,0,1,3.31,1.312s-2.1-1.269-3.278-1.047l.23,1.2s2.158,0,3.068,1.137c0,0-2.572-1.225-3-.875a6.542,6.542,0,0,0,.493,1.336s1.546.041,2.015.744c0,0-1.805-.636-1.9-.455a6.323,6.323,0,0,0,1.458,1.785,4.568,4.568,0,0,1-1.668-1.657,2.532,2.532,0,0,0,0,1.441s-.732-.519-.184-1.764a5.8,5.8,0,0,1-.5-1.24,5.531,5.531,0,0,0-.761,2.042,2.436,2.436,0,0,1,.691-2.362l-.26-1.2a7.834,7.834,0,0,0-1.126,2.269s-.268-1.111,1.085-2.575l-.082-1.2a9.294,9.294,0,0,0-1.283,2.059,3.7,3.7,0,0,1,1.272-2.4l.041-.811s-.7.892-.875,1.167-.265.248-.265.248a3.855,3.855,0,0,1,1.167-1.75A9.339,9.339,0,0,0,623.268,313.866Z" transform="translate(-621.641 -313.86)"/></g><g class="ab" transform="translate(68.442 12.13)"><path class="o" d="M269.748,113.79s-16.857,12.249-5.7,21.953a3.559,3.559,0,0,0,3.809,1.718s-.659-.857,1.193-1.907a9.5,9.5,0,0,0,1.814-1.353,4.7,4.7,0,0,0,1.409-2.625h0s2.981-5.582-1.339-14.408c0,0-.026-2.68-.42-3.051l-1.75,3.389s2.534,1.193,3.144,3.418c0,0-2.978-3.439-3.43-2.917-.09.1-.852,1.837-.852,1.837s4.4,2.094,5.235,5.559c0,0-3-4.573-5.541-4.906l-.989,2.686s4.757,1.986,5.859,5.894c0,0-3.3-4.666-6.037-5.293l-.618,2.774s4.6,2.027,5.5,5.285c0,0-4.375-5.011-5.6-4.64a13.729,13.729,0,0,0-.2,3.316s3.272,1.531,3.622,3.471c0,0-3.269-3.039-3.654-2.747,0,0,.356,3.5,1.476,5.183a10.663,10.663,0,0,1-2.021-5.1,5.9,5.9,0,0,0-1.321,3.094s-1.085-1.794,1.245-3.946a13.585,13.585,0,0,1,.082-3.121,12.841,12.841,0,0,0-3.538,3.666s.055-2.578,3.675-4.407l.56-2.8s-3.561,2.2-4.521,3.791c0,0,.464-2.625,4.719-4.5l.945-2.639a22.049,22.049,0,0,0-4.666,3.208s.954-2.333,4.958-3.958l.837-1.692s-2.333,1.254-2.96,1.674-.8.292-.8.292a8.971,8.971,0,0,1,4.1-2.674S269.943,113.927,269.748,113.79Z" transform="translate(-260.232 -113.79)"/></g><g class="ab" transform="translate(36.399 50.014)"><path class="o" d="M175.546,246.221s-21.807-9.17-24.665,7.364a4.026,4.026,0,0,0,.583,4.707s.446-1.143,2.555.038a10.842,10.842,0,0,0,2.38.968,5.355,5.355,0,0,0,3.389-.181h0s7.169-.388,13.2-9.77c0,0,2.584-1.6,2.715-2.2l-4.325.292s.332,3.164-1.458,5.063c0,0,1.589-4.911.825-5.048-.155-.029-2.284.251-2.284.251s.551,5.5-2.333,8.35c0,0,2.677-5.6,1.511-8.251l-3.188.615s.875,5.789-2.281,9.155c0,0,2.593-5.95,1.592-8.971l-3.056,1.027s.738,5.661-1.9,8.458c0,0,2.3-7.178,1.219-8.166a15.973,15.973,0,0,0-3.336,1.75s.437,4.083-1.242,5.556c0,0,1.032-4.958.522-5.162,0,0-3.194,2.4-4.168,4.477a12.128,12.128,0,0,1,3.765-4.958,6.686,6.686,0,0,0-3.791.534s1.105-2.1,4.564-1.105c0,0,2.564-1.776,3.077-1.75,0,0-3.272-1.458-5.638-1.277,0,0,2.534-1.458,6.437.977l3.042-1.1s-4.226-2.167-6.346-2.158c0,0,2.817-1.091,7.14,1.942l3.121-.645a24.709,24.709,0,0,0-5.862-2.639s2.832-.449,6.76,2.494l2.135-.178s-2.584-1.522-3.366-1.893-.747-.61-.747-.61a10.179,10.179,0,0,1,5.008,2.409S175.526,246.492,175.546,246.221Z" transform="translate(-150.363 -243.685)"/></g><g class="ab" transform="translate(27.345 17.574)"><path class="o" d="M140.5,144.281s-7.732-17.869-18.847-9.674a3.308,3.308,0,0,0-2.333,3.121s.916-.426,1.493,1.479a9.058,9.058,0,0,0,.875,1.928,4.392,4.392,0,0,0,2.117,1.823h0s4.48,3.856,13.416,1.718c0,0,2.447.522,2.867.242l-2.733-2.3a5.869,5.869,0,0,1-3.756,2.17s3.742-2.012,3.366-2.529c-.076-.1-1.5-1.149-1.5-1.149s-2.809,3.581-6.125,3.637c0,0,4.78-1.8,5.6-4.039l-2.246-1.458s-2.82,3.946-6.609,4.153c0,0,4.929-2.056,6.058-4.424l-2.4-1.117s-2.788,3.791-5.941,3.934c0,0,5.457-2.951,5.372-4.156a12.673,12.673,0,0,0-2.984-.852s-2.062,2.669-3.9,2.593c0,0,3.439-2.359,3.249-2.771,0,0-3.267-.391-5.025.292a9.953,9.953,0,0,1,5.06-.8,5.465,5.465,0,0,0-2.552-1.837s1.858-.621,3.342,1.939a12.693,12.693,0,0,1,2.829.712,11.928,11.928,0,0,0-2.625-3.972s2.333.583,3.269,4.249l2.435,1.082s-1.275-3.7-2.54-4.9c0,0,2.3.957,3.135,5.221l2.214,1.4a20.457,20.457,0,0,0-1.974-4.908s1.937,1.347,2.6,5.334l1.371,1.108s-.671-2.374-.925-3.039-.093-.787-.093-.787a8.385,8.385,0,0,1,1.6,4.281S140.336,144.436,140.5,144.281Z" transform="translate(-119.32 -132.456)"/></g><g class="ab" transform="translate(190.291 32.102)"><path class="o" d="M686.945,188.863s-1.823-8.75-7.583-6.093a1.522,1.522,0,0,0-1.342,1.187s.452-.108.537.8a4.185,4.185,0,0,0,.207.948,2.042,2.042,0,0,0,.785,1.015h0s1.656,2.147,5.865,2.012c0,0,1.053.461,1.269.373l-1.018-1.283a2.692,2.692,0,0,1-1.887.627s1.867-.557,1.75-.825c-.026-.055-.569-.656-.569-.656a4.45,4.45,0,0,1-3.094,1.067s2.313-.367,2.89-1.3l-.875-.86a4.678,4.678,0,0,1-3.336,1.251s2.406-.467,3.132-1.426l-.974-.729s-1.6,1.441-3.036,1.216c0,0,2.727-.822,2.8-1.371a5.809,5.809,0,0,0-1.263-.659s-1.167,1.009-1.992.8c0,0,1.75-.741,1.718-.945a6.284,6.284,0,0,0-2.286-.335,4.582,4.582,0,0,1,2.348.108,2.5,2.5,0,0,0-.977-1.062s.892-.108,1.324,1.167a5.716,5.716,0,0,1,1.2.583,5.611,5.611,0,0,0-.811-2.042,2.44,2.44,0,0,1,1.076,2.214l.995.712a7.819,7.819,0,0,0-.688-2.438,3.071,3.071,0,0,1,.924,2.625l.875.834A9.356,9.356,0,0,0,684.48,184a3.7,3.7,0,0,1,.671,2.625l.513.627s-.079-1.129-.131-1.458.029-.365.029-.365a3.856,3.856,0,0,1,.324,2.077A9.785,9.785,0,0,0,686.945,188.863Z" transform="translate(-678.02 -182.268)"/></g><g class="ab" transform="translate(158.9 194.295)"><path class="o" d="M579.318,744.983s-1.82-8.75-7.583-6.093a1.525,1.525,0,0,0-1.345,1.187s.452-.108.537.8a4.03,4.03,0,0,0,.21.948,2.041,2.041,0,0,0,.782,1.015h0s1.657,2.147,5.868,2.012c0,0,1.053.461,1.266.373l-1.015-1.283a2.7,2.7,0,0,1-1.89.627s1.867-.557,1.75-.825c-.023-.055-.569-.656-.569-.656a4.45,4.45,0,0,1-3.094,1.067s2.316-.367,2.89-1.3l-.875-.875a4.59,4.59,0,0,1-3.325,1.248s2.406-.467,3.132-1.426l-.974-.729s-1.6,1.441-3.033,1.216c0,0,2.727-.82,2.8-1.371a5.877,5.877,0,0,0-1.263-.659s-1.167,1.009-1.995.8c0,0,1.75-.741,1.718-.945a6.284,6.284,0,0,0-2.286-.335,4.59,4.59,0,0,1,2.351.108,2.522,2.522,0,0,0-.977-1.062s.89-.108,1.321,1.167a5.734,5.734,0,0,1,1.207.583,5.612,5.612,0,0,0-.811-2.042,2.435,2.435,0,0,1,1.073,2.214l1,.712a7.849,7.849,0,0,0-.691-2.438,3.067,3.067,0,0,1,.927,2.625l.875.834a9.27,9.27,0,0,0-.435-2.389,3.689,3.689,0,0,1,.674,2.625l.513.627s-.082-1.129-.134-1.458.029-.362.029-.362a3.842,3.842,0,0,1,.324,2.074A10.929,10.929,0,0,0,579.318,744.983Z" transform="translate(-570.39 -738.388)"/></g></g></svg>