<svg xmlns="http://www.w3.org/2000/svg" width="312.618" height="368.625" viewBox="0 0 312.618 368.625"><defs><style>.a{fill:#868686;opacity:0.33;}.b{fill:#fff;}.c{fill:#ccc;}.d{fill:#54acf0;}.e{fill:#3f3d56;}.f{fill:#a0616a;}.g{fill:#393848;}.h{opacity:0.2;}.i{fill:#2f2e41;}</style></defs><g transform="translate(-37.182)"><path class="a" d="M274.284,678.281a189.748,189.748,0,0,0,1.789,24.383c.039.284.082.568.121.851l76.4-.427c.224-.282.445-.567.659-.856.713-.955,1.382-1.937,2-2.954,2.95-4.9,4.3-10.628,2.947-14.582l-.024-.061a6.939,6.939,0,0,0-1.354-2.353c-3.085-3.473-9.323-2.894-14.984-.091,5.077-5.558,9.12-12.571,9.427-18.831.3-6.106-2.892-10.468-6.354-14.175-.114-.122-.227-.242-.341-.361-.055-.061-.114-.119-.169-.18-2.7-2.825-5.852-5.61-10.411-5.273-5,.37-10.544,4.558-14.431,9.439s-6.47,10.417-9.088,15.825S305,679.581,300.8,684.2c5.7-7.207,10.292-15.407,11.989-23.382s.2-15.635-4.875-19.391a11.877,11.877,0,0,0-5.2-2.1c-.219-.036-.442-.066-.668-.092-4.7-.535-10.314,1.091-15.089,4.977a34.736,34.736,0,0,0-10.719,16.645C274.419,666.88,274.225,672.677,274.284,678.281Z" transform="translate(-89.966 -334.89)"/><path class="b" d="M275.759,729.51l1.461-.008q.7-.435,1.4-.86c.29-.183.583-.359.876-.539q7.268-4.439,14.628-8.516T308.9,711.8a.612.612,0,0,0,.352-.7.178.178,0,0,0-.024-.051c-.069-.13-.223-.183-.449-.073-.607.3-1.218.609-1.825.92q-7.447,3.768-14.83,7.911t-14.671,8.65c-.1.062-.2.128-.307.19Z" transform="translate(-41.458 -361.154)"/><path class="b" d="M296.04,708.94l.9-.005c.2-.285.4-.57.608-.855q7.18-10.069,14.358-20.138,11.754-16.485,23.5-32.969a.583.583,0,0,0,.1-.2c.067-.243-.112-.386-.341-.361a.686.686,0,0,0-.477.3L321.516,673.2,298.135,706c-.5.694-.991,1.391-1.487,2.085C296.444,708.37,296.24,708.655,296.04,708.94Z" transform="translate(-80.575 -340.478)"/><path class="b" d="M362.625,698.073c.046,1.522.147,3.021.278,4.5l.077.852.948-.005c-.029-.284-.058-.568-.083-.851-.2-2.144-.342-4.313-.362-6.54a91.238,91.238,0,0,1,1.8-18.391,114.509,114.509,0,0,1,5.563-19.107,131.209,131.209,0,0,1,9.1-18.9.505.505,0,0,0,.084-.336c-.039-.27-.4-.35-.668-.092a.786.786,0,0,0-.136.172q-.656,1.128-1.288,2.262a131.127,131.127,0,0,0-8.711,18.97,113.965,113.965,0,0,0-5.186,19.135A90.008,90.008,0,0,0,362.625,698.073Z" transform="translate(-167.285 -334.857)"/><path class="c" d="M713.725,171.387a12.048,12.048,0,1,1,12.048,12.048A12.048,12.048,0,0,1,713.725,171.387Zm22.828,0a10.78,10.78,0,1,0-10.78,10.78,10.78,10.78,0,0,0,10.78-10.78Z" transform="translate(-498.357 -159.339)"/><circle class="d" cx="6.975" cy="6.975" r="6.975" transform="translate(220.441 5.073)"/><circle class="c" cx="11.414" cy="11.414" r="11.414" transform="translate(175.419 0.634)"/><circle class="c" cx="11.414" cy="11.414" r="11.414" transform="translate(134.836 0.634)"/><path class="e" d="M734.563,404.721H443.5a10.792,10.792,0,0,1-10.78-10.78V241.119a10.792,10.792,0,0,1,10.78-10.78H734.563a10.792,10.792,0,0,1,10.78,10.78V393.941A10.792,10.792,0,0,1,734.563,404.721ZM443.5,231.607a9.523,9.523,0,0,0-9.512,9.512V393.941a9.523,9.523,0,0,0,9.512,9.512H734.563a9.522,9.522,0,0,0,9.512-9.512V241.119a9.522,9.522,0,0,0-9.512-9.512Z" transform="translate(-395.543 -185.317)"/><path class="c" d="M556.33,385.724H481.5a10.792,10.792,0,0,1-10.78-10.78V300.119a10.792,10.792,0,0,1,10.78-10.78H556.33a10.792,10.792,0,0,1,10.78,10.78v74.826a10.792,10.792,0,0,1-10.78,10.78ZM481.5,290.607a9.522,9.522,0,0,0-9.512,9.512v74.826a9.522,9.522,0,0,0,9.512,9.512H556.33a9.522,9.522,0,0,0,9.512-9.512V300.119a9.522,9.522,0,0,0-9.512-9.512Z" transform="translate(-409.447 -206.904)"/><path class="c" d="M565.84,383.886a.632.632,0,0,1-.451-.189L476.856,293.97a.634.634,0,1,1,.9-.89l88.534,89.727a.634.634,0,0,1-.452,1.079Z" transform="translate(-411.623 -208.204)"/><path class="c" d="M475.8,383.886a.634.634,0,0,1-.451-1.079l88.53-89.726a.634.634,0,1,1,.9.89L476.246,383.7a.631.631,0,0,1-.451.189Z" transform="translate(-411.07 -208.204)"/><path class="d" d="M860.637,464.5H820.054a9.829,9.829,0,1,1,0-19.658h40.583a9.829,9.829,0,1,1,0,19.658Z" transform="translate(-533.665 -263.799)"/><path class="e" d="M473.134,739.831H282.265a.634.634,0,1,1,0-1.268H473.134a.634.634,0,1,1,0,1.268Z" transform="translate(-209.681 -371.268)"/><path class="f" d="M196.283,552.471h7.774l3.7-29.986H196.282Z" transform="translate(-67.937 -191.169)"/><path d="M0,0H24.433V9.44H9.44A9.44,9.44,0,0,1,0,0H0Z" transform="translate(151.112 368.521) rotate(179.997)"/><path class="f" d="M107.329,540.147l7.071,3.23,15.824-25.739-10.437-4.767Z" transform="translate(-35.39 -187.652)"/><path d="M0,0H24.433V9.44H9.44A9.44,9.44,0,0,1,0,0H0Z" transform="translate(89.647 368.521) rotate(-155.452)"/><path class="f" d="M411.74,552.07a6.377,6.377,0,0,1-.508-9.764l-9.139-20.735,11.61,1.968,6.9,19.389a6.411,6.411,0,0,1-8.861,9.143Z" transform="translate(-317.161 -291.874)"/><path class="g" d="M437.816,648.416l-7.458-65.139a2.219,2.219,0,0,0-4.378-.2l-3.7,17.815a2.835,2.835,0,0,1-.256.724L400.382,643.7a2.854,2.854,0,0,1-3.524,1.372l-7.526-2.773a2.853,2.853,0,0,1-1.676-3.7l17.619-45.69a2.215,2.215,0,0,0,.148-.757l.9-47.708a2.854,2.854,0,0,1,2.576-2.786l46.756-4.561a2.854,2.854,0,0,1,3.123,3.047L450.924,648.3a2.864,2.864,0,0,1-2.846,2.647h-7.427A2.853,2.853,0,0,1,437.816,648.416Z" transform="translate(-311.809 -297.551)"/><circle class="f" cx="15.574" cy="15.574" r="15.574" transform="translate(109.569 126.879)"/><path class="d" d="M461,420.027q-.64-.306-1.27-.588h0a31.536,31.536,0,0,0-31.719,3.425,26.764,26.764,0,0,0-10.969,25.521c2.79,21.162-.4,49.869-.736,52.728,25.6,11.773,48.065-3.029,50.059-4.4Z" transform="translate(-322.363 -253.49)"/><path class="d" d="M406.057,511.2a2.846,2.846,0,0,1-2.149-1.644L390.839,480.6a7.261,7.261,0,0,1,.437-6.8l16.049-26.041a5.269,5.269,0,0,1,9.4,4.763l-11.872,24.931,7.8,26.409a2.868,2.868,0,0,1-.633,2.736l-3.407,3.717a2.844,2.844,0,0,1-2.1.926A2.9,2.9,0,0,1,406.057,511.2Z" transform="translate(-312.808 -263.853)"/><path class="h" d="M471.189,511.94l-2.416-48.32.627-.082,10.861,51.112h-6.222A2.851,2.851,0,0,1,471.189,511.94Z" transform="translate(-341.559 -270.641)"/><path class="f" d="M484.365,545.811a6.376,6.376,0,0,1,1.53-9.657l-4.634-22.181,10.948,4.335,2.722,20.4a6.411,6.411,0,0,1-10.567,7.1Z" transform="translate(-346.128 -289.095)"/><path class="d" d="M477.422,496.588l-9.15-61-.009-.058,1.768-8.136a8.578,8.578,0,0,1,16.953,1.468l2.746,66.444a2.863,2.863,0,0,1-2.536,2.954l-6.636.737a2.969,2.969,0,0,1-.322.018,2.844,2.844,0,0,1-2.815-2.431Z" transform="translate(-341.372 -254.946)"/><path class="i" d="M448.207,385.374a11.217,11.217,0,0,1-10.069-6.474h0a22.84,22.84,0,0,1-2.384-7.231c-.372-4.688,2.276-12.054,5.784-16.086,3.848-4.423,9.939-5.04,15.829-5.637,1.609-.163,3.273-.332,4.849-.577a9.116,9.116,0,0,1,4.463.059,3.237,3.237,0,0,1,1.859,1.759,1.119,1.119,0,0,0,.627.628.949.949,0,0,0,.762-.036,1.7,1.7,0,0,1,1.544,0,1.5,1.5,0,0,1,.805,1.1,1.572,1.572,0,0,0,.147.46,1.819,1.819,0,0,0,1.189.9,1.606,1.606,0,0,1,1.249,1.721c-.095.8-.135,1.663-.174,2.5-.147,3.142-.3,6.39-3.457,6.338a9.09,9.09,0,0,1-2.378-.42,3.528,3.528,0,0,0-3.265.189c-1.872,1.167-2.177,3.606-2.447,5.757l-.047.376c-.315,2.461-1.616,5.423-4.245,5.671a6.114,6.114,0,0,1-2.444-.424,4.378,4.378,0,0,0-2.546-.306c-1.444.412-2.139,2.137-2.08,3.628a14.139,14.139,0,0,0,.234,1.818,9.691,9.691,0,0,1,.2,2.9c-.075.591-.754.98-2.136,1.225a10.694,10.694,0,0,1-1.868.164Z" transform="translate(-329.465 -228.776)"/><rect class="c" width="153.218" height="10.423" rx="5.211" transform="translate(182.276 112.595)"/><rect class="c" width="115.695" height="10.423" rx="5.211" transform="translate(182.276 91.749)"/><rect class="c" width="80.257" height="10.423" rx="5.211" transform="translate(182.276 133.441)"/><rect class="c" width="135.499" height="11.465" rx="5.733" transform="translate(182.276 154.287)"/></g></svg>