<svg xmlns="http://www.w3.org/2000/svg" width="60.664" height="36.398" viewBox="0 0 60.664 36.398"><defs><style>.a{fill:#ffb600;}.b{fill:#f7981d;}.c{fill:#ff8500;}.d{fill:#ff5050;}.e{fill:#e52836;}.f{fill:#cb2026;}.g{fill:#fff;}.h{fill:#dce5e5;}</style></defs><g transform="translate(0 -100.8)"><path class="a" d="M238,119a18.2,18.2,0,0,1-36.4,0h0a18.2,18.2,0,1,1,36.4,0Z" transform="translate(-177.334 0)"/><path class="b" d="M219.8,100.8A18.247,18.247,0,0,1,238,119h0a18.2,18.2,0,0,1-36.4,0" transform="translate(-177.334)"/><path class="c" d="M352.8,100.8A18.246,18.246,0,0,1,371,119h0a18.185,18.185,0,0,1-18.2,18.2" transform="translate(-310.335)"/><path class="d" d="M18.007,100.8a18.2,18.2,0,0,0,.193,36.4,18.411,18.411,0,0,0,12.229-4.718h0a17.3,17.3,0,0,0,1.83-1.926H28.5a22.214,22.214,0,0,1-1.348-1.83h6.452a12.335,12.335,0,0,0,1.059-1.926H26.1a11.477,11.477,0,0,1-.77-1.926H35.339A19.12,19.12,0,0,0,36.3,119.1a24.855,24.855,0,0,0-.385-3.852H24.747a14.078,14.078,0,0,1,.481-1.926H35.243a11.477,11.477,0,0,0-.77-1.926H26a19.1,19.1,0,0,1,1.059-1.926H33.51a9.157,9.157,0,0,0-1.444-1.926H28.5a16.412,16.412,0,0,1,1.83-1.83A17.769,17.769,0,0,0,18.1,100.993C18.1,100.8,18.1,100.8,18.007,100.8Z"/><path class="e" d="M0,120.407a18.185,18.185,0,0,0,18.2,18.2,18.411,18.411,0,0,0,12.229-4.718h0a17.3,17.3,0,0,0,1.83-1.926H28.5a22.214,22.214,0,0,1-1.348-1.83h6.452a12.335,12.335,0,0,0,1.059-1.926H26.1a11.476,11.476,0,0,1-.77-1.926H35.339A19.12,19.12,0,0,0,36.3,120.5a24.855,24.855,0,0,0-.385-3.852H24.747a14.078,14.078,0,0,1,.481-1.926H35.243a11.477,11.477,0,0,0-.77-1.926H26a19.1,19.1,0,0,1,1.059-1.926H33.51a9.157,9.157,0,0,0-1.444-1.926H28.5a16.412,16.412,0,0,1,1.83-1.83A17.769,17.769,0,0,0,18.1,102.4h-.1" transform="translate(0 -1.407)"/><path class="f" d="M149.793,138.606a18.411,18.411,0,0,0,12.229-4.718h0a17.3,17.3,0,0,0,1.83-1.926H160.1a22.216,22.216,0,0,1-1.348-1.83H165.2a12.335,12.335,0,0,0,1.059-1.926h-8.57a11.476,11.476,0,0,1-.77-1.926h10.014a19.12,19.12,0,0,0,.963-5.778,24.856,24.856,0,0,0-.385-3.852H156.34a14.079,14.079,0,0,1,.481-1.926h10.014a11.476,11.476,0,0,0-.77-1.926h-8.474a19.1,19.1,0,0,1,1.059-1.926H165.1a9.157,9.157,0,0,0-1.444-1.926H160.1a16.412,16.412,0,0,1,1.83-1.83A17.769,17.769,0,0,0,149.7,102.4h-.1" transform="translate(-131.593 -1.407)"/><g transform="translate(1.733 114.281)"><path class="g" d="M184.392,228.474l.289-1.637a4.169,4.169,0,0,1-.481.1c-.674,0-.77-.385-.674-.578l.578-3.37h1.059l.289-1.83h-.963l.193-1.156h-1.926s-1.156,6.355-1.156,7.126a1.445,1.445,0,0,0,1.541,1.637A2.956,2.956,0,0,0,184.392,228.474Z" transform="translate(-161.475 -219.133)"/><path class="g" d="M210.4,233.044a3.063,3.063,0,0,0,3.37,3.37,5,5,0,0,0,2.022-.289l.385-1.83a5.772,5.772,0,0,1-2.022.481c-2.118,0-1.733-1.541-1.733-1.541h3.948a12.486,12.486,0,0,0,.289-1.733,2.609,2.609,0,0,0-2.792-2.792C211.844,228.518,210.4,230.637,210.4,233.044Zm3.37-2.792c1.059,0,.867,1.252.867,1.348h-2.118C212.518,231.5,212.711,230.252,213.77,230.252Z" transform="translate(-186.808 -226.785)"/><path class="g" d="M301.3,222.14l.385-2.118a4.732,4.732,0,0,1-1.637.481c-1.348,0-1.926-1.059-1.926-2.215,0-2.311,1.156-3.563,2.5-3.563a3.216,3.216,0,0,1,1.733.578l.289-2.022a6.77,6.77,0,0,0-2.215-.481c-2.215,0-4.429,1.926-4.429,5.585,0,2.407,1.156,4.044,3.467,4.044A8.642,8.642,0,0,0,301.3,222.14Z" transform="translate(-262.105 -212.8)"/><path class="g" d="M90.059,227.2a6.82,6.82,0,0,0-2.311.385l-.289,1.637a5.692,5.692,0,0,1,2.118-.385c.674,0,1.252.1,1.252.674,0,.385-.1.481-.1.481h-.867c-1.637,0-3.467.674-3.467,2.889,0,1.733,1.156,2.118,1.83,2.118a2.893,2.893,0,0,0,2.022-.867l-.1.77h1.733l.77-5.3A2.282,2.282,0,0,0,90.059,227.2Zm.385,4.333c0,.289-.193,1.83-1.348,1.83a.752.752,0,0,1-.77-.77c0-.481.289-1.156,1.733-1.156A1.519,1.519,0,0,0,90.444,231.533Z" transform="translate(-77.734 -225.467)"/><path class="g" d="M137.415,234.3c.481,0,2.889.1,2.889-2.5,0-2.407-2.311-1.926-2.311-2.889,0-.481.385-.674,1.059-.674.289,0,1.348.1,1.348.1l.289-1.733a7.315,7.315,0,0,0-1.83-.193c-1.444,0-2.889.578-2.889,2.5,0,2.215,2.407,2.022,2.407,2.889,0,.578-.674.674-1.156.674a6.3,6.3,0,0,1-1.733-.289l-.289,1.733C135.3,234.1,135.778,234.3,137.415,234.3Z" transform="translate(-120.66 -224.763)"/><path class="g" d="M432.689,214.4,432.3,217a2.67,2.67,0,0,0-1.83-.963c-1.733,0-3.274,2.118-3.274,4.622,0,1.541.77,3.178,2.407,3.178a2.571,2.571,0,0,0,1.83-.77l-.1.674h1.926l1.444-9.244Zm-.867,5.1c0,1.059-.481,2.407-1.541,2.407-.674,0-1.059-.578-1.059-1.541,0-1.541.674-2.5,1.541-2.5C431.437,217.867,431.822,218.348,431.822,219.5Z" transform="translate(-377.513 -214.207)"/><path class="g" d="M16.23,223.644l1.156-6.933.193,6.933h1.348l2.5-6.933-1.059,6.933h2.022l1.541-9.244H20.755l-1.926,5.681-.1-5.681H15.941L14.4,223.644Z" transform="translate(-14.4 -214.207)"/><path class="g" d="M262.118,236.311c.578-3.178.674-5.778,2.022-5.3a7.557,7.557,0,0,1,.674-2.215h-.385c-.867,0-1.541,1.156-1.541,1.156l.193-1.059h-1.83L260,236.407h2.118Z" transform="translate(-230.438 -226.874)"/><path class="g" d="M350.059,227.2a6.82,6.82,0,0,0-2.311.385l-.289,1.637a5.692,5.692,0,0,1,2.118-.385c.674,0,1.252.1,1.252.674,0,.385-.1.481-.1.481h-.867c-1.637,0-3.467.674-3.467,2.889,0,1.733,1.155,2.118,1.83,2.118a2.893,2.893,0,0,0,2.022-.867l-.1.77h1.733l.77-5.3C352.755,227.3,350.733,227.2,350.059,227.2Zm.481,4.333c0,.289-.193,1.83-1.348,1.83a.752.752,0,0,1-.77-.77c0-.481.289-1.156,1.733-1.156C350.444,231.533,350.444,231.533,350.541,231.533Z" transform="translate(-306.439 -225.467)"/><path class="g" d="M396.518,236.311c.578-3.178.674-5.778,2.022-5.3a7.558,7.558,0,0,1,.674-2.215h-.385c-.867,0-1.541,1.156-1.541,1.156l.193-1.059h-1.83l-1.252,7.511h2.118Z" transform="translate(-348.661 -226.874)"/></g><g transform="translate(1.733 114.281)"><path class="h" d="M180,227.126a1.445,1.445,0,0,0,1.541,1.637,3.665,3.665,0,0,0,1.444-.289l.289-1.637a4.169,4.169,0,0,1-.481.1c-.674,0-.77-.385-.674-.578l.578-3.37h1.059l.289-1.83h-.963l.193-1.156" transform="translate(-160.068 -219.133)"/><path class="h" d="M218.4,233.044c0,2.7.867,3.37,2.407,3.37a5,5,0,0,0,2.022-.289l.385-1.83a5.772,5.772,0,0,1-2.022.481c-2.118,0-1.733-1.541-1.733-1.541h3.948a12.486,12.486,0,0,0,.289-1.733,2.609,2.609,0,0,0-2.792-2.792C218.881,228.518,218.4,230.637,218.4,233.044Zm2.407-2.792c1.059,0,1.252,1.252,1.252,1.348h-2.5C219.555,231.5,219.748,230.252,220.807,230.252Z" transform="translate(-193.845 -226.785)"/><path class="h" d="M308.333,222.14l.385-2.118a4.732,4.732,0,0,1-1.637.481c-1.348,0-1.926-1.059-1.926-2.215,0-2.311,1.156-3.563,2.5-3.563a3.216,3.216,0,0,1,1.733.578l.289-2.022a6.77,6.77,0,0,0-2.215-.481c-2.215,0-3.466,1.926-3.466,5.585,0,2.407.193,4.044,2.5,4.044A8.642,8.642,0,0,0,308.333,222.14Z" transform="translate(-269.142 -212.8)"/><path class="h" d="M87.459,230.726a5.692,5.692,0,0,1,2.118-.385c.674,0,1.252.1,1.252.674,0,.385-.1.481-.1.481h-.867c-1.637,0-3.467.674-3.467,2.889,0,1.733,1.156,2.118,1.83,2.118a2.893,2.893,0,0,0,2.022-.867l-.1.77h1.733l.77-5.3c0-2.215-1.926-2.311-2.7-2.311m1.444,4.141a3.153,3.153,0,0,1-2.311,1.83.752.752,0,0,1-.77-.77c0-.481.289-1.156,1.733-1.156A7.867,7.867,0,0,0,91.407,232.941Z" transform="translate(-77.734 -226.874)"/><path class="h" d="M136,234.1a8.15,8.15,0,0,0,2.215.193c.481,0,2.889.1,2.889-2.5,0-2.407-2.311-1.926-2.311-2.889,0-.481.385-.674,1.059-.674.289,0,1.348.1,1.348.1l.289-1.733a7.315,7.315,0,0,0-1.83-.193c-1.444,0-1.926.578-1.926,2.5,0,2.215,1.444,2.022,1.444,2.889,0,.578-.674.674-1.156.674" transform="translate(-121.364 -224.763)"/><path class="h" d="M439.289,217.7a2.67,2.67,0,0,0-1.83-.963c-1.733,0-2.311,2.118-2.311,4.622,0,1.541-.193,3.178,1.444,3.178a2.57,2.57,0,0,0,1.83-.77l-.1.674h1.926L441.7,215.2m-2.5,5.007c0,1.059-.867,2.407-1.926,2.407-.674,0-1.059-.578-1.059-1.541,0-1.541.674-2.5,1.541-2.5A1.471,1.471,0,0,1,439.193,220.207Z" transform="translate(-384.499 -214.911)"/><path class="h" d="M16.23,223.644l1.156-6.933.193,6.933h1.348l2.5-6.933-1.059,6.933h2.022l1.541-9.244H21.526l-2.7,5.681-.1-5.681H17.674L14.4,223.644Z" transform="translate(-14.4 -214.207)"/><path class="h" d="M260.8,236.311h2.022c.578-3.178.674-5.778,2.022-5.3a7.557,7.557,0,0,1,.674-2.215h-.385c-.867,0-1.541,1.156-1.541,1.156l.193-1.059" transform="translate(-231.142 -226.874)"/><path class="h" d="M347.459,230.726a5.692,5.692,0,0,1,2.118-.385c.674,0,1.252.1,1.252.674,0,.385-.1.481-.1.481h-.867c-1.637,0-3.467.674-3.467,2.889,0,1.733,1.155,2.118,1.83,2.118a2.893,2.893,0,0,0,2.022-.867l-.1.77h1.733l.77-5.3c0-2.215-1.926-2.311-2.7-2.311m1.444,4.141a3.153,3.153,0,0,1-2.311,1.83.752.752,0,0,1-.77-.77c0-.481.289-1.156,1.733-1.156A8.471,8.471,0,0,0,351.407,232.941Z" transform="translate(-306.439 -226.874)"/><path class="h" d="M395.2,236.311h2.022c.578-3.178.674-5.778,2.022-5.3a7.558,7.558,0,0,1,.674-2.215h-.385c-.867,0-1.541,1.156-1.541,1.156l.193-1.059" transform="translate(-349.365 -226.874)"/></g></g></svg>