<svg id="Capa_1" enable-background="new 0 0 508.198 508.198" height="512" viewBox="0 0 508.198 508.198" width="512" xmlns="http://www.w3.org/2000/svg"><path id="XMLID_197_" d="m253.069 193.792h2.445c11.961 0 21.691-9.731 21.691-21.691v-28.853h-45.827v28.853c0 11.96 9.731 21.691 21.691 21.691z"/><path id="XMLID_198_" d="m465.643 279.684h-422.955l.05.065v34.627h422.576v-34.265z"/><path id="XMLID_208_" d="m488.964 249.463 19.235-24.927-18.219-76.667-235.688-92.483-235.615 92.454-18.677 75.827 19.658 25.796zm-181.537-77.362c0 28.625-23.288 51.913-51.913 51.913h-2.445c-28.625 0-51.913-23.288-51.913-51.913v-59.075h106.27v59.075z"/><path id="XMLID_209_" d="m16.583 344.598c-2.383 6.141-2.805 12.845-1.088 19.3 7.697 28.943 27.279 53.874 55.139 70.202 27.855 16.325 61.228 22.244 93.968 16.667l53.688-9.146c23.773-4.05 47.88-4.05 71.653 0l53.688 9.146c8.037 1.369 16.107 2.045 24.13 2.045 24.658 0 48.821-6.395 69.839-18.712 27.86-16.327 47.442-41.259 55.139-70.202 1.717-6.455 1.295-13.159-1.088-19.3z"/></svg>