<svg xmlns="http://www.w3.org/2000/svg" width="21.953" height="25.109" viewBox="0 0 21.953 25.109"><defs><style>.a,.b{fill:none;stroke-linecap:round;stroke-linejoin:round;stroke-width:1.5px;}.a{stroke:#ab57ff;}.b{stroke:#fff;}</style></defs><g transform="translate(-12.375 -3.62)"><path class="a" d="M13.125,7.7v7.986a12.489,12.489,0,0,0,8,11.656l1.092.42a3.147,3.147,0,0,0,2.259,0l1.092-.42a12.489,12.489,0,0,0,8-11.656V7.7a1.56,1.56,0,0,0-.91-1.429,22.76,22.76,0,0,0-9.316-1.9,22.76,22.76,0,0,0-9.316,1.9A1.56,1.56,0,0,0,13.125,7.7Z" transform="translate(0 0)"/><path class="b" d="M47.356,36.552a.433.433,0,0,1,.774,0l.9,1.811a.43.43,0,0,0,.325.233l2.016.292a.428.428,0,0,1,.346.287.42.42,0,0,1-.107.434l-1.464,1.42a.42.42,0,0,0-.122.373l.345,2a.421.421,0,0,1-.172.414.436.436,0,0,1-.453.031l-1.8-.939a.437.437,0,0,0-.4,0l-1.8.94a.436.436,0,0,1-.453-.031.421.421,0,0,1-.172-.414l.345-2a.42.42,0,0,0-.122-.373l-1.464-1.42a.42.42,0,0,1-.107-.434.429.429,0,0,1,.346-.287l2.017-.291a.43.43,0,0,0,.324-.233Z" transform="translate(-24.392 -25.658)"/></g></svg>