<svg xmlns="http://www.w3.org/2000/svg" width="80" height="80" viewBox="0 0 80 80">
    <defs>
        <style>
            .cls-2,.cls-3{fill:none;stroke-linecap:round;stroke-linejoin:round;stroke-width:2.25px}.cls-2{stroke:#c38bfd}.cls-3{stroke:#fff}
        </style>
    </defs>
    <g id="Remote_and_onground" transform="translate(-920 -2656)">
        <circle id="Ellipse_14" cx="40" cy="40" r="40" fill="#701fc0" transform="translate(920 2656)"/>
        <g id="streamline-icon-headphones-customer-support-human-1_140x140" transform="translate(945 2680)">
            <path id="Path_319" d="M89.378 14.869a13.174 13.174 0 0 1 3.3 24.183v6.156" class="cls-2" transform="translate(-69.855 -12.233)"/>
            <path id="Path_320" d="M54.378 49.246a5.5 5.5 0 1 0 5.5-5.5 5.5 5.5 0 0 0-5.5 5.5z" class="cls-3" transform="translate(-43.649 -33.857)"/>
            <path id="Path_321" d="M63.128 15.367V5.474a1.1 1.1 0 0 1 1.1-1.1h4.4a1.1 1.1 0 0 1 1.1 1.1v9.893" class="cls-3" transform="translate(-50.2 -4.375)"/>
            <path id="Path_322" d="M14.71 33.849l-1.372-.343a2.2 2.2 0 0 1-1.3-3.352l2.667-4v-1.1c0-5.191 4.2-9.543 9.891-10.7" class="cls-2" transform="translate(-11.674 -11.848)"/>
            <path id="Path_323" d="M40.177 125.846v-3.282l-1.476.245a4.365 4.365 0 0 1-1.823-.078" class="cls-2" transform="translate(-30.546 -92.869)"/>
            <path id="Path_324" d="M36.944 65.625a10.992 10.992 0 0 1-10.992 10.992h-2.2" class="cls-3" transform="translate(-20.718 -50.236)"/>
        </g>
    </g>
</svg>
