<svg xmlns="http://www.w3.org/2000/svg" width="53.251" height="31.996" viewBox="0 0 53.251 31.996"><defs><style>.a{fill:#fff;}.b{fill:#382a8d;}.b,.c,.d,.e{fill-rule:evenodd;}.c{fill:#1d8546;}.d{fill:#ec6b00;}</style></defs><g transform="translate(-8.709 -3.972)"><path class="a" d="M53.251,108.7a2.966,2.966,0,0,1-3.148,2.743H3.148A2.966,2.966,0,0,1,0,108.7V82.194a2.966,2.966,0,0,1,3.148-2.743H50.1a2.966,2.966,0,0,1,3.148,2.743V108.7Z" transform="translate(8.709 -75.479)"/><path class="b" d="M41234.469,70774.391h2.406v3.82l2.078-3.82h2.2l-4.445,7.719a3.945,3.945,0,0,1-.926.992,2.149,2.149,0,0,1-1.1.281c-.875-.016-1.934-.016-1.934-.016l.512-1.836.824-.008a.889.889,0,0,0,.527-.219.945.945,0,0,0,.211-.617c0-.391-.359-6.3-.359-6.3Zm-24.961.766c-.336.773-1.375.688-1.375.688l-1.2-.008.438-1.641h1.609c.566,0,.742.461.531.961Zm2.742-1.117c.2-1.633-1.227-2.039-2.777-2.039h-4.07l-2.4,8.758h2.586l.809-2.977,1.449.008s.6-.031.609.531c.016.6-.445,1.7-.414,2.438h2.656l0-.234a.323.323,0,0,1-.2-.375,9.938,9.938,0,0,1,.34-1.086,3.389,3.389,0,0,0,.266-1.289c-.02-.586-.387-.852-.918-1.047,1.652-.383,2.066-2.687,2.066-2.687Zm.586.352h2.359l-.969,3.734s-.246.836.531.906c.617.047,1.078-.687,1.227-1.187.2-.656.965-3.453.965-3.453h2.43l-1.848,6.367h-2.125l.262-.914a3.373,3.373,0,0,1-2.691,1.164c-1.43-.141-1.551-1.18-1.3-2.469C41211.8,70777.9,41212.836,70774.391,41212.836,70774.391Zm12.117.781a1.222,1.222,0,0,1-1.266.836h-1.266l.5-1.867s.8.008,1.328.008a.711.711,0,0,1,.7,1.023Zm2.656-.867c.2-1.625-1.035-2.3-2.586-2.3h-4.07l-2.4,8.758h2.586l.727-2.7,2.063.008s3.188.141,3.68-3.758Zm2.176,5.148c-.4.109-.895.164-.992-.2-.27-1.008,2.09-1.3,2.09-1.3a1.621,1.621,0,0,1-1.1,1.508Zm3.559-1.836c.316-1.055.707-2.062.391-2.617-.484-.852-1.359-.922-2.641-.922-1.414,0-3.16.266-3.727,2.148h2.352a1.035,1.035,0,0,1,1.1-.664c.781.039.734.578.449.875-.5.523-1.9.227-3.449.766a2.624,2.624,0,0,0-1.531,2.961c.285.688.813.773,1.531.844a3.236,3.236,0,0,0,2.438-.906c0,.422.008.656.008.656h2.48l0-.234a.323.323,0,0,1-.2-.375c.016-.227.445-1.32.8-2.531Z" transform="translate(-41191.258 -70757.555)"/><path class="c" d="M252514.781,75852l-2.781,9.641,5.188-4.812Z" transform="translate(-252461.797 -75836.633)"/><path class="d" d="M242745.766,75852l-2.766,9.641,5.188-4.812Z" transform="translate(-242694.563 -75836.633)"/><path class="e" d="M280582.031,65706.094a.957.957,0,0,0,0,1.914.957.957,0,1,0,0-1.914Zm0,1.352v-.75h.156l.156.531a.18.18,0,0,1,.031.109.149.149,0,0,0,.031-.117l.188-.523h.156v.75h-.094v-.633l-.25.633h-.062l-.219-.633v.633Zm-.5,0v-.664h-.25v-.086h.594v.086h-.25v.664Zm.5.656a1.051,1.051,0,0,1,0-2.1,1.051,1.051,0,1,1,0,2.1Z" transform="translate(-280525.688 -65692.477)"/></g></svg>