<svg xmlns="http://www.w3.org/2000/svg" width="35.552" height="35.552" viewBox="0 0 35.552 35.552">
  <g id="software" transform="translate(1.25 1.25)">
    <path id="Path_472" data-name="Path 472" d="M48.125,98.485l1.1-6.61" transform="translate(-37.107 -69.84)" fill="none" stroke="#54acf0" stroke-linecap="round" stroke-linejoin="round" stroke-width="2.5"/>
    <path id="Path_473" data-name="Path 473" d="M35,118.125h4.407" transform="translate(-27.288 -89.48)" fill="none" stroke="#54acf0" stroke-linecap="round" stroke-linejoin="round" stroke-width="2.5"/>
    <path id="Path_474" data-name="Path 474" d="M4.375,74.375H25.5" transform="translate(-4.375 -56.747)" fill="none" stroke="#54acf0" stroke-linecap="round" stroke-linejoin="round" stroke-width="2.5"/>
    <path id="Path_475" data-name="Path 475" d="M16.494,26.409H8.782A4.407,4.407,0,0,1,4.375,22V8.782A4.407,4.407,0,0,1,8.782,4.375H33.02a4.407,4.407,0,0,1,4.407,4.407v6.61" transform="translate(-4.375 -4.375)" fill="none" stroke="#54acf0" stroke-linecap="round" stroke-linejoin="round" stroke-width="2.5"/>
    <path id="Path_476" data-name="Path 476" d="M65.625,95.18a3.305,3.305,0,1,0,3.305-3.305A3.305,3.305,0,0,0,65.625,95.18Z" transform="translate(-50.2 -69.84)" fill="none" stroke="#54acf0" stroke-linecap="round" stroke-linejoin="round" stroke-width="2.5"/>
    <path id="Path_477" data-name="Path 477" d="M109.375,112.68a3.305,3.305,0,1,0,3.305-3.305A3.305,3.305,0,0,0,109.375,112.68Z" transform="translate(-82.933 -82.934)" fill="none" stroke="#54acf0" stroke-linecap="round" stroke-linejoin="round" stroke-width="2.5"/>
    <path id="Path_478" data-name="Path 478" d="M109.375,68.93a3.305,3.305,0,1,0,3.305-3.305A3.305,3.305,0,0,0,109.375,68.93Z" transform="translate(-82.933 -50.201)" fill="none" stroke="#54acf0" stroke-linecap="round" stroke-linejoin="round" stroke-width="2.5"/>
    <path id="Path_479" data-name="Path 479" d="M89.979,88.7l5.362-3.217" transform="translate(-68.422 -65.061)" fill="none" stroke="#54acf0" stroke-linecap="round" stroke-linejoin="round" stroke-width="2.5"/>
    <path id="Path_480" data-name="Path 480" d="M90.93,109.871l4.883,1.954" transform="translate(-69.133 -83.305)" fill="none" stroke="#54acf0" stroke-linecap="round" stroke-linejoin="round" stroke-width="2.5"/>
  </g>
</svg>
