<svg xmlns="http://www.w3.org/2000/svg" width="45.407" height="45.919" viewBox="0 0 45.407 45.919"><defs><style>.a{fill:none;stroke:#76c1fc;stroke-linecap:round;stroke-linejoin:round;stroke-width:2.5px;}</style></defs><g transform="translate(1.25 1.25)"><path class="a" d="M56.369,14.387a1.43,1.43,0,0,0-1.43-1.43H47.788V5.805a1.43,1.43,0,0,0-1.43-1.43H40.637a1.43,1.43,0,0,0-1.43,1.43v7.151H32.055a1.43,1.43,0,0,0-1.43,1.43v5.721a1.43,1.43,0,0,0,1.43,1.43h7.151v7.151a1.43,1.43,0,0,0,1.43,1.43h5.721a1.43,1.43,0,0,0,1.43-1.43V21.538h7.151a1.43,1.43,0,0,0,1.43-1.43Z" transform="translate(-22.043 -4.375)"/><path class="a" d="M10.1,89.047,6.255,84.506a8.581,8.581,0,0,1-1.88-5.361V69.285a2.86,2.86,0,0,1,2.86-2.86h0a2.86,2.86,0,0,1,2.86,2.86v7.151" transform="translate(-4.375 -46.14)"/><path class="a" d="M30.469,104.66V98.939a8.581,8.581,0,0,0-1.444-4.767l-2.178-3.261a2.67,2.67,0,0,0-3.77-.839h0a2.67,2.67,0,0,0-.9,3.408l2.578,4.291" transform="translate(-16.166 -61.753)"/><path class="a" d="M118.125,89.047l3.841-4.541a8.581,8.581,0,0,0,1.88-5.361V69.285a2.86,2.86,0,0,0-2.861-2.86h0a2.86,2.86,0,0,0-2.86,2.86v7.151" transform="translate(-80.938 -46.14)"/><path class="a" d="M91.875,104.641V98.92a8.581,8.581,0,0,1,1.444-4.767L95.5,90.888a2.67,2.67,0,0,1,3.77-.847h0a2.67,2.67,0,0,1,.908,3.415L97.6,97.747" transform="translate(-63.27 -61.734)"/></g></svg>