<svg xmlns="http://www.w3.org/2000/svg" width="33.348" height="33.348" viewBox="0 0 33.348 33.348">
  <g id="technical" transform="translate(1.25 1.25)">
    <path id="Path_427" data-name="Path 427" d="M21.875,21.875H46.113V46.113H21.875Z" transform="translate(-18.57 -18.57)" fill="none" stroke="#54acf0" stroke-linecap="round" stroke-linejoin="round" stroke-width="2.5"/>
    <path id="Path_428" data-name="Path 428" d="M70,12.055V8.75" transform="translate(-54.576 -8.75)" fill="none" stroke="#54acf0" stroke-linecap="round" stroke-linejoin="round" stroke-width="2.5"/>
    <path id="Path_429" data-name="Path 429" d="M39.375,12.055V8.75" transform="translate(-31.663 -8.75)" fill="none" stroke="#54acf0" stroke-linecap="round" stroke-linejoin="round" stroke-width="2.5"/>
    <path id="Path_430" data-name="Path 430" d="M100.625,12.055V8.75" transform="translate(-77.489 -8.75)" fill="none" stroke="#54acf0" stroke-linecap="round" stroke-linejoin="round" stroke-width="2.5"/>
    <path id="Path_431" data-name="Path 431" d="M70,121.43v-3.305" transform="translate(-54.576 -90.582)" fill="none" stroke="#54acf0" stroke-linecap="round" stroke-linejoin="round" stroke-width="2.5"/>
    <path id="Path_432" data-name="Path 432" d="M39.375,121.43v-3.305" transform="translate(-31.663 -90.582)" fill="none" stroke="#54acf0" stroke-linecap="round" stroke-linejoin="round" stroke-width="2.5"/>
    <path id="Path_433" data-name="Path 433" d="M100.625,121.43v-3.305" transform="translate(-77.489 -90.582)" fill="none" stroke="#54acf0" stroke-linecap="round" stroke-linejoin="round" stroke-width="2.5"/>
    <path id="Path_434" data-name="Path 434" d="M121.43,70h-3.305" transform="translate(-90.582 -54.576)" fill="none" stroke="#54acf0" stroke-linecap="round" stroke-linejoin="round" stroke-width="2.5"/>
    <path id="Path_435" data-name="Path 435" d="M121.43,100.625h-3.305" transform="translate(-90.582 -77.489)" fill="none" stroke="#54acf0" stroke-linecap="round" stroke-linejoin="round" stroke-width="2.5"/>
    <path id="Path_436" data-name="Path 436" d="M121.43,39.375h-3.305" transform="translate(-90.582 -31.663)" fill="none" stroke="#54acf0" stroke-linecap="round" stroke-linejoin="round" stroke-width="2.5"/>
    <path id="Path_437" data-name="Path 437" d="M12.055,70H8.75" transform="translate(-8.75 -54.576)" fill="none" stroke="#54acf0" stroke-linecap="round" stroke-linejoin="round" stroke-width="2.5"/>
    <path id="Path_438" data-name="Path 438" d="M12.055,100.625H8.75" transform="translate(-8.75 -77.489)" fill="none" stroke="#54acf0" stroke-linecap="round" stroke-linejoin="round" stroke-width="2.5"/>
    <path id="Path_439" data-name="Path 439" d="M12.055,39.375H8.75" transform="translate(-8.75 -31.663)" fill="none" stroke="#54acf0" stroke-linecap="round" stroke-linejoin="round" stroke-width="2.5"/>
    <path id="Path_440" data-name="Path 440" d="M39.375,39.375H54.8V54.8H39.375Z" transform="translate(-31.663 -31.663)" fill="none" stroke="#54acf0" stroke-linecap="round" stroke-linejoin="round" stroke-width="2.5"/>
    <path id="Path_441" data-name="Path 441" d="M73.305,83.125H70" transform="translate(-54.576 -64.396)" fill="none" stroke="#54acf0" stroke-linecap="round" stroke-linejoin="round" stroke-width="2.5"/>
  </g>
</svg>
