<svg xmlns="http://www.w3.org/2000/svg" width="56.465" height="17.67" viewBox="0 0 56.465 17.67"><defs><style>.a{fill:#2394bc;}.b{fill:#efc75e;}</style></defs><g transform="translate(0 -100.23)"><g transform="translate(5.276 100.23)"><path class="a" d="M45.066,100.23l-2.834,17.635h4.53l2.832-17.635Zm13.663,7.184c-1.583-.782-2.553-1.309-2.553-2.109.019-.727.821-1.472,2.61-1.472a7.882,7.882,0,0,1,3.374.653l.411.183.616-3.69a11.433,11.433,0,0,0-4.066-.727c-4.473,0-7.623,2.326-7.642,5.652-.037,2.455,2.255,3.817,3.97,4.634,1.752.838,2.349,1.382,2.349,2.126-.019,1.143-1.417,1.671-2.721,1.671a9.212,9.212,0,0,1-4.251-.909l-.6-.272L49.6,116.99a14.145,14.145,0,0,0,5.052.911c4.754,0,7.847-2.29,7.886-5.835C62.549,110.12,61.341,108.631,58.729,107.414Zm16.07-7.129h-3.5a2.245,2.245,0,0,0-2.368,1.419L62.2,117.865h4.754l1.309-3.5h5.318l.679,3.513h4.193Zm-5.22,10.55c.092.009,1.825-5.712,1.825-5.712l1.38,5.712Zm-31.132-10.6L34.01,112.211l-.483-2.363a13.166,13.166,0,0,0-6.264-7.16l4.064,15.159h4.793l7.122-17.615H38.448Z" transform="translate(-27.262 -100.23)"/></g><path class="b" d="M10.047,102.519A2.959,2.959,0,0,0,7.1,100.248H.072L0,100.574c5.483,1.352,10.084,5.511,11.577,9.423Z" transform="translate(0 -0.015)"/></g></svg>