<svg xmlns="http://www.w3.org/2000/svg" width="32" height="31.326" viewBox="0 0 32 31.326"><defs><style>.a{fill:none;stroke:#a3a3a3;stroke-linecap:round;stroke-linejoin:round;stroke-width:2px;}</style></defs><g transform="translate(-5.25 -7.426)"><path class="a" d="M34.25,70.167v2a4,4,0,0,1-4,4h-20a4,4,0,0,1-4-4v-14a4,4,0,0,1,4-4h20a4,4,0,0,1,4,4v2" transform="translate(0 -38.415)"/><path class="a" d="M51.25,15.752,48.145,9.541a2,2,0,0,0-2.684-.895L31.25,15.752" transform="translate(-21)"/><path class="a" d="M128.75,101.667a2,2,0,0,0,2-2v-6a2,2,0,0,0-2-2h-5a5,5,0,0,0,0,10Z" transform="translate(-94.5 -69.915)"/><path class="a" d="M147.375,119.792a.5.5,0,1,1-.5.5.5.5,0,0,1,.5-.5" transform="translate(-118.125 -93.54)"/></g></svg>